<?xml version="1.0" encoding="UTF-8" standalone="no"?>
<svg
   xmlns:dc="http://purl.org/dc/elements/1.1/"
   xmlns:cc="http://creativecommons.org/ns#"
   xmlns:rdf="http://www.w3.org/1999/02/22-rdf-syntax-ns#"
   xmlns:svg="http://www.w3.org/2000/svg"
   xmlns="http://www.w3.org/2000/svg"
   viewBox="0 0 1333.3333 800"
   height="800"
   width="1333.3333"
   xml:space="preserve"
   id="svg2"
   version="1.1"><metadata
     id="metadata8"><rdf:RDF><cc:Work
         rdf:about=""><dc:format>image/svg+xml</dc:format><dc:type
           rdf:resource="http://purl.org/dc/dcmitype/StillImage" /></cc:Work></rdf:RDF></metadata><defs
     id="defs6"><clipPath
       id="clipPath26"
       clipPathUnits="userSpaceOnUse"><path
         id="path24"
         d="m 3195.5,4247.25 c -0.1,4.58 -0.27,9.24 -0.51,13.96 27.72,19.16 64.68,44.7 92.41,63.84 l 1.16,-1.5 c 1.34,-0.17 2.74,-0.36 6.06,0.59 7.25,2.04 13.95,4.9 25.37,10.15 11.13,-26.2 3.81,-66.78 -0.78,-94.86 -3.22,-19.74 -16.39,-43.73 -24.83,-61.85 -15.62,-33.54 -58.83,-63.57 -87.76,-86.61 L 3050.64,3983.2 c 84.19,58.15 147.81,125.38 144.86,264.05" /></clipPath><clipPath
       id="clipPath38"
       clipPathUnits="userSpaceOnUse"><path
         id="path36"
         d="m 3195.5,4247.25 c -0.1,4.58 -0.27,9.23 -0.51,13.96 27.72,19.16 64.68,44.7 92.4,63.84 -0.11,-3.46 -0.29,-7.93 -0.72,-14.81 -27.35,-18.89 -63.82,-44.09 -91.17,-62.99" /></clipPath><clipPath
       id="clipPath50"
       clipPathUnits="userSpaceOnUse"><path
         id="path48"
         d="m 3195.5,4247.25 c -0.1,4.58 -0.27,9.23 -0.51,13.96 27.72,19.16 64.68,44.7 92.4,63.84 -0.11,-3.46 -0.29,-7.93 -0.72,-14.81 -27.35,-18.89 -63.82,-44.09 -91.17,-62.99" /></clipPath><clipPath
       id="clipPath62"
       clipPathUnits="userSpaceOnUse"><path
         id="path60"
         d="m 3285.74,4145.63 c -23.74,-16.39 -55.39,-38.26 -79.12,-54.66 28.93,23.04 72.14,53.07 87.76,86.61 8.44,18.12 21.61,42.11 24.83,61.85 4.59,28.08 11.91,68.66 0.78,94.86 -11.42,-5.25 -18.12,-8.11 -25.37,-10.15 -3.32,-0.95 -4.72,-0.76 -6.06,-0.59 l -1.16,1.5 142.69,98.6 c 0.25,-4.73 0.41,-9.38 0.51,-13.96 2.94,-138.67 -60.66,-205.91 -144.86,-264.06" /></clipPath><clipPath
       id="clipPath74"
       clipPathUnits="userSpaceOnUse"><path
         id="path72"
         d="m 3430.6,4409.69 c -43.18,-29.83 -100.76,-69.62 -143.93,-99.45 0.43,6.88 0.61,11.35 0.72,14.81 l 142.69,98.6 c 0.25,-4.73 0.42,-9.38 0.52,-13.96" /></clipPath><clipPath
       id="clipPath86"
       clipPathUnits="userSpaceOnUse"><path
         id="path84"
         d="m 3430.6,4409.69 c -43.18,-29.83 -100.76,-69.62 -143.93,-99.45 0.43,6.88 0.61,11.35 0.72,14.81 l 142.69,98.6 c 0.25,-4.73 0.42,-9.38 0.52,-13.96" /></clipPath><clipPath
       id="clipPath98"
       clipPathUnits="userSpaceOnUse"><path
         id="path96"
         d="m 3430.09,4423.65 c -42.81,-29.59 -99.89,-69.01 -142.69,-98.6 0.93,15.63 2.99,36.44 3.11,52.09 0.21,25.6 0.43,59.85 -2.01,85.35 -1.97,20.53 -4.84,47.93 -8.67,68.18 -1.7,9.04 -3.78,21.11 -5.9,30.04 -4,16.76 -9.2,39.16 -14.47,55.56 -11.38,35.42 -15.54,46.99 -30.24,79.34 -7.57,16.66 -20.18,37.65 -29.98,53.1 -10.96,17.31 -29.6,37.58 -43.64,52.49 -7.87,8.37 -20.41,17.38 -29.15,24.84 183.98,-42.55 297.89,-176.13 303.64,-402.39" /></clipPath><clipPath
       id="clipPath110"
       clipPathUnits="userSpaceOnUse"><path
         id="path108"
         d="m 2730.79,4662.52 c -13.92,-4.42 -26.99,-10.12 -39.25,-16.96 78.37,54.14 156.74,108.28 235.1,162.43 12.26,6.85 25.33,12.54 39.25,16.97 -78.34,-54.13 -156.68,-108.25 -235.03,-162.38 78.35,54.13 156.69,108.25 235.03,162.38 44.63,14.21 97.88,15.54 160.38,1.12 l -235.1,-162.45 c -62.5,14.44 -115.75,13.11 -160.38,-1.11 13.99,6.16 43.08,18.96 82.86,29.89 41.73,11.46 72.31,15.38 90.57,17.73 -18.26,-2.35 -48.84,-6.27 -90.57,-17.73 -20.9,-5.73 -37.62,-11.77 -43.92,-14.04 -11.13,-4.02 -24.37,-9.43 -29.82,-11.83 -2.73,-1.2 -6.32,-2.96 -9.12,-4.02" /></clipPath><clipPath
       id="clipPath122"
       clipPathUnits="userSpaceOnUse"><path
         id="path120"
         d="m 2730.79,4662.52 c -13.92,-4.42 -26.99,-10.12 -39.25,-16.96 78.37,54.14 156.74,108.28 235.1,162.43 12.26,6.85 25.33,12.54 39.25,16.97 -78.34,-54.13 -156.68,-108.25 -235.03,-162.38 78.35,54.13 156.69,108.25 235.03,162.38 44.63,14.21 97.88,15.54 160.38,1.12 l -235.1,-162.45 c -62.5,14.44 -115.75,13.11 -160.38,-1.11 13.99,6.16 43.08,18.96 82.86,29.89 41.73,11.46 72.31,15.38 90.57,17.73 -18.26,-2.35 -48.84,-6.27 -90.57,-17.73 -20.9,-5.73 -37.62,-11.77 -43.92,-14.04 -11.13,-4.02 -24.37,-9.43 -29.82,-11.83 -2.73,-1.2 -6.32,-2.96 -9.12,-4.02" /></clipPath><clipPath
       id="clipPath134"
       clipPathUnits="userSpaceOnUse"><path
         id="path132"
         d="m 2891.17,4663.63 c -91.14,21.05 -162.63,8.59 -216.37,-28.51 l 235.1,162.44 c 53.74,37.09 125.23,49.56 216.37,28.52 l 0.18,-0.04 c 8.74,-7.46 21.28,-16.47 29.15,-24.84 14.04,-14.91 32.68,-35.18 43.64,-52.49 9.8,-15.45 22.41,-36.44 29.98,-53.1 14.7,-32.35 18.86,-43.92 30.24,-79.34 5.27,-16.4 10.47,-38.8 14.47,-55.56 2.12,-8.93 4.2,-21 5.9,-30.04 3.83,-20.25 6.7,-47.65 8.67,-68.18 2.44,-25.5 2.22,-59.75 2.01,-85.35 -0.12,-15.65 -2.18,-36.46 -3.11,-52.09 l -92.41,-63.84 c -5.75,226.34 -119.73,359.92 -303.82,402.42" /></clipPath><clipPath
       id="clipPath146"
       clipPathUnits="userSpaceOnUse"><path
         id="path144"
         d="m 2891.17,4663.63 c 42.93,29.58 192.34,132.82 235.1,162.45 8.76,-7.46 21.32,-16.47 29.2,-24.83 14.06,-14.9 32.71,-35.2 43.69,-52.5 9.81,-15.45 22.44,-36.45 30.02,-53.11 14.7,-32.29 18.86,-43.87 30.26,-79.37 5.28,-16.39 10.49,-38.79 14.48,-55.55 2.13,-8.92 4.21,-21 5.91,-30.04 3.83,-20.25 6.7,-47.65 8.67,-68.19 2.44,-25.5 2.22,-59.75 2.01,-85.35 -0.12,-15.65 -2.18,-36.46 -3.12,-52.09 l -92.4,-63.84 c -5.75,226.34 -119.73,359.92 -303.82,402.42" /></clipPath><clipPath
       id="clipPath158"
       clipPathUnits="userSpaceOnUse"><path
         id="path156"
         d="m 2891.17,4663.63 c 42.93,29.58 192.34,132.82 235.1,162.45 8.76,-7.46 21.32,-16.47 29.2,-24.83 14.06,-14.9 32.71,-35.2 43.69,-52.5 9.81,-15.45 22.44,-36.45 30.02,-53.11 14.7,-32.29 18.86,-43.87 30.26,-79.37 5.28,-16.39 10.49,-38.79 14.48,-55.55 2.13,-8.92 4.21,-21 5.91,-30.04 3.83,-20.25 6.7,-47.65 8.67,-68.19 2.44,-25.5 2.22,-59.75 2.01,-85.35 -0.12,-15.65 -2.18,-36.46 -3.12,-52.09 l -92.4,-63.84 c -5.75,226.34 -119.73,359.92 -303.82,402.42" /></clipPath><clipPath
       id="clipPath170"
       clipPathUnits="userSpaceOnUse"><path
         id="path168"
         d="m 3430.08,4423.65 c -42.81,-29.59 -99.88,-69.01 -142.69,-98.6 0.94,15.63 3,36.44 3.12,52.09 0.21,25.6 0.43,59.85 -2.01,85.35 -1.97,20.54 -4.84,47.94 -8.67,68.19 -1.7,9.04 -3.78,21.12 -5.91,30.04 -3.99,16.76 -9.2,39.16 -14.48,55.55 -11.4,35.5 -15.56,47.08 -30.26,79.37 -7.58,16.66 -20.21,37.66 -30.02,53.11 -10.98,17.3 -29.63,37.6 -43.69,52.5 -7.88,8.36 -20.44,17.37 -29.2,24.83 184.1,-42.5 298.07,-176.09 303.81,-402.43" /></clipPath><clipPath
       id="clipPath182"
       clipPathUnits="userSpaceOnUse"><path
         id="path180"
         d="m 3430.08,4423.65 c -42.81,-29.59 -99.88,-69.01 -142.69,-98.6 0.94,15.63 3,36.44 3.12,52.09 0.21,25.6 0.43,59.85 -2.01,85.35 -1.97,20.54 -4.84,47.94 -8.67,68.19 -1.7,9.04 -3.78,21.12 -5.91,30.04 -3.99,16.76 -9.2,39.16 -14.48,55.55 -11.4,35.5 -15.56,47.08 -30.26,79.37 -7.58,16.66 -20.21,37.66 -30.02,53.11 -10.98,17.3 -29.63,37.6 -43.69,52.5 -7.88,8.36 -20.44,17.37 -29.2,24.83 184.1,-42.5 298.07,-176.09 303.81,-402.43" /></clipPath><clipPath
       id="clipPath194"
       clipPathUnits="userSpaceOnUse"><path
         id="path192"
         d="m 2691.54,4645.56 c -5.76,-3.24 -11.33,-6.71 -16.74,-10.44 l 235.1,162.44 c 5.4,3.73 10.98,7.21 16.74,10.43 -78.36,-54.15 -156.73,-108.29 -235.1,-162.43" /></clipPath><clipPath
       id="clipPath206"
       clipPathUnits="userSpaceOnUse"><path
         id="path204"
         d="m 2691.54,4645.56 c -5.76,-3.24 -11.33,-6.71 -16.74,-10.44 l 235.1,162.44 c 5.4,3.73 10.98,7.21 16.74,10.43 -78.36,-54.15 -156.73,-108.29 -235.1,-162.43" /></clipPath><clipPath
       id="clipPath218"
       clipPathUnits="userSpaceOnUse"><path
         id="path216"
         d="m 3754.54,3825.22 c -78.37,-54.15 -156.74,-108.29 -235.11,-162.43 -76.58,-52.93 -160.92,-88.31 -231.42,-137.03 78.36,54.16 156.73,108.29 235.1,162.44 70.5,48.72 154.84,84.1 231.43,137.02" /></clipPath><clipPath
       id="clipPath230"
       clipPathUnits="userSpaceOnUse"><path
         id="path228"
         d="m 2561.65,4445.15 c 19.33,83.83 56.25,150.62 113.02,189.87 l 235.1,162.44 c -19.95,-13.79 -37.44,-30.99 -52.59,-51.11 -78.34,-54.14 -156.68,-108.26 -235.02,-162.39 78.34,54.13 156.68,108.25 235.02,162.39 -27.96,-37.18 -47.89,-84.39 -60.43,-138.77 -23.85,-16.49 -47.7,-32.96 -71.54,-49.44 -4.57,-3.14 -10.65,-7.34 -15.22,-10.5 -9.22,-6.38 -21.52,-14.88 -30.75,-21.25 -4.62,-3.19 -10.79,-7.45 -15.41,-10.65 -4.61,-3.18 -10.74,-7.42 -15.34,-10.6 -4.56,-3.15 -10.65,-7.35 -15.21,-10.5 -4.5,-3.11 -10.5,-7.27 -15,-10.37 -4.41,-3.04 -10.31,-7.12 -14.72,-10.17 -13.95,-9.63 -27.89,-19.28 -41.83,-28.9 h -0.01 l -0.07,-0.05" /></clipPath><clipPath
       id="clipPath242"
       clipPathUnits="userSpaceOnUse"><path
         id="path240"
         d="m 2561.65,4445.15 c 19.33,83.83 56.25,150.62 113.02,189.87 l 235.1,162.44 c -19.95,-13.79 -37.44,-30.99 -52.59,-51.11 -78.34,-54.14 -156.68,-108.26 -235.02,-162.39 78.34,54.13 156.68,108.25 235.02,162.39 -27.96,-37.18 -47.89,-84.39 -60.43,-138.77 -23.85,-16.49 -47.7,-32.96 -71.54,-49.44 -4.57,-3.14 -10.65,-7.34 -15.22,-10.5 -9.22,-6.38 -21.52,-14.88 -30.75,-21.25 -4.62,-3.19 -10.79,-7.45 -15.41,-10.65 -4.61,-3.18 -10.74,-7.42 -15.34,-10.6 -4.56,-3.15 -10.65,-7.35 -15.21,-10.5 -4.5,-3.11 -10.5,-7.27 -15,-10.37 -4.41,-3.04 -10.31,-7.12 -14.72,-10.17 -13.95,-9.63 -27.89,-19.28 -41.83,-28.9 h -0.01 l -0.07,-0.05" /></clipPath><clipPath
       id="clipPath254"
       clipPathUnits="userSpaceOnUse"><path
         id="path252"
         d="m 2561.65,4445.15 0.05,0.03 c 13.95,9.63 27.9,19.27 41.86,28.92 4.41,3.05 10.31,7.13 14.72,10.17 59.49,41.1 118.99,82.21 178.47,123.31 -12.53,-54.39 -17.65,-115.94 -15.98,-181.82 l -235.1,-162.44 c -1.67,65.89 3.45,127.44 15.98,181.83" /></clipPath><clipPath
       id="clipPath266"
       clipPathUnits="userSpaceOnUse"><path
         id="path264"
         d="m 2561.65,4445.15 0.05,0.03 c 13.95,9.63 27.9,19.27 41.86,28.92 4.41,3.05 10.31,7.13 14.72,10.17 59.49,41.1 118.99,82.21 178.47,123.31 -12.53,-54.39 -17.65,-115.94 -15.98,-181.82 l -235.1,-162.44 c -1.67,65.89 3.45,127.44 15.98,181.83" /></clipPath><clipPath
       id="clipPath278"
       clipPathUnits="userSpaceOnUse"><path
         id="path276"
         d="m 2308.58,5029.51 c 78.36,54.14 156.73,108.28 235.1,162.44 -177.07,-122.34 -275.36,-351.04 -273.63,-648.28 l -235.1,-162.44 c -1.73,297.25 96.56,525.94 273.63,648.28" /></clipPath><clipPath
       id="clipPath298"
       clipPathUnits="userSpaceOnUse"><path
         id="path296"
         d="m 2915.73,3895.75 c 51.04,35.28 119.09,82.3 170.14,117.57 -12.84,-9.24 -29.73,-21.87 -42.12,-31.69 -6.29,-4.99 -14.14,-12.29 -20.13,-17.65 -12.26,-10.93 -27.04,-27.2 -37.59,-39.79 -11.05,-13.17 -24.23,-32.08 -32.99,-46.89 -9.4,-15.86 -19.93,-38.14 -27.37,-55.01 -8.13,-18.45 -15.93,-44.36 -20.86,-63.92 -5.47,-21.69 -10.3,-51.2 -13.7,-73.31 -3.79,-24.64 -4.88,-57.98 -6.08,-82.89 -0.66,-13.48 -0.08,-31.49 -0.11,-45 l -220.57,-152.39 c 14.69,288.67 131.2,407.95 251.38,490.97" /></clipPath><clipPath
       id="clipPath310"
       clipPathUnits="userSpaceOnUse"><path
         id="path308"
         d="m 2884.92,3557.17 c 0.03,13.51 -0.55,31.52 0.11,45 1.2,24.91 2.29,58.25 6.08,82.89 3.4,22.11 8.23,51.62 13.7,73.31 4.93,19.56 12.73,45.47 20.86,63.92 7.44,16.87 17.97,39.15 27.37,55.01 8.76,14.81 21.94,33.72 32.99,46.89 10.55,12.59 25.33,28.86 37.59,39.79 5.99,5.36 13.84,12.66 20.13,17.65 12.39,9.82 29.28,22.45 42.12,31.69 l 64.96,44.88 c -120.17,-83.04 -236.69,-202.31 -251.39,-490.99 -4.35,-3.01 -10.16,-7.03 -14.52,-10.04" /></clipPath></defs><g
     transform="matrix(1.3333333,0,0,-1.3333333,0,800)"
     id="g10"><g
       transform="scale(0.1)"
       id="g12"><path
         id="path14"
         style="fill:transparent;fill-opacity:1;fill-rule:nonzero;stroke:none"
         d="M 0,0 H 10000 V 6000 H 0 Z" /><path
         id="path16"
         style="fill:#03689e;fill-opacity:1;fill-rule:nonzero;stroke:none"
         d="m 5007.78,946.332 c -2264.25,0 -4099.807,142.068 -4099.807,317.318 0,175.27 1835.557,317.35 4099.807,317.35 2264.26,0 4099.81,-142.08 4099.81,-317.35 0,-175.25 -1835.55,-317.318 -4099.81,-317.318" /><path
         id="path18"
         style="fill:#bcd0e2;fill-opacity:1;fill-rule:nonzero;stroke:none"
         d="m 3195.5,4247.25 c -0.1,4.58 -0.27,9.23 -0.51,13.96 27.72,19.16 64.68,44.7 92.41,63.84 l 1.15,-1.5 c 1.35,-0.17 2.75,-0.36 6.07,0.59 7.25,2.04 13.95,4.9 25.37,10.15 11.13,-26.2 3.81,-66.78 -0.78,-94.86 -3.22,-19.74 -16.39,-43.73 -24.83,-61.85 -15.62,-33.54 -58.83,-63.57 -87.76,-86.61 L 3050.63,3983.2 c 84.2,58.15 147.82,125.38 144.87,264.05" /><g
         id="g20"><g
           clip-path="url(#clipPath26)"
           id="g22"><path
             id="path28"
             style="fill:#bcd0e2;fill-opacity:1;fill-rule:nonzero;stroke:none"
             d="m 3285.9,4145.75 -235.1,-162.43 c 84.12,58.11 147.65,125.35 144.7,263.93 -0.1,4.58 -0.27,9.23 -0.51,13.96 l 235.1,162.44 c 0.25,-4.73 0.41,-9.38 0.51,-13.96 2.94,-138.6 -60.59,-205.81 -144.7,-263.94" /></g></g><path
         id="path30"
         style="fill:#bcd0e2;fill-opacity:1;fill-rule:nonzero;stroke:none"
         d="m 3195.5,4247.25 c -0.1,4.58 -0.27,9.22 -0.51,13.96 27.72,19.16 64.68,44.7 92.4,63.84 -0.11,-3.46 -0.3,-7.93 -0.72,-14.81 -27.35,-18.89 -63.82,-44.09 -91.17,-62.99" /><g
         id="g32"><g
           clip-path="url(#clipPath38)"
           id="g34"><path
             id="path40"
             style="fill:#bcd0e2;fill-opacity:1;fill-rule:nonzero;stroke:none"
             d="m 3430.6,4409.69 -235.1,-162.44 c -0.1,4.58 -0.27,9.22 -0.51,13.96 l 235.09,162.44 c 0.25,-4.73 0.42,-9.38 0.52,-13.96" /></g></g><path
         id="path42"
         style="fill:#bcd0e2;fill-opacity:1;fill-rule:nonzero;stroke:none"
         d="m 3195.5,4247.25 c -0.1,4.58 -0.27,9.22 -0.51,13.96 27.72,19.16 64.68,44.7 92.4,63.84 -0.11,-3.46 -0.3,-7.93 -0.72,-14.81 -27.35,-18.89 -63.82,-44.09 -91.17,-62.99" /><g
         id="g44"><g
           clip-path="url(#clipPath50)"
           id="g46"><path
             id="path52"
             style="fill:#bcd0e2;fill-opacity:1;fill-rule:nonzero;stroke:none"
             d="m 3430.6,4409.69 -235.1,-162.44 c -0.1,4.58 -0.27,9.22 -0.51,13.96 l 235.09,162.44 c 0.25,-4.73 0.42,-9.38 0.52,-13.96" /></g></g><path
         id="path54"
         style="fill:#bcd0e2;fill-opacity:1;fill-rule:nonzero;stroke:none"
         d="m 3285.74,4145.63 c -23.74,-16.39 -55.39,-38.26 -79.12,-54.66 28.93,23.04 72.14,53.07 87.76,86.61 8.44,18.12 21.61,42.11 24.83,61.85 4.59,28.08 11.91,68.66 0.78,94.86 -11.42,-5.25 -18.12,-8.11 -25.37,-10.15 -3.32,-0.95 -4.72,-0.76 -6.07,-0.59 l -1.15,1.5 142.69,98.6 c 0.25,-4.73 0.41,-9.38 0.51,-13.96 2.94,-138.67 -60.66,-205.91 -144.86,-264.06" /><g
         id="g56"><g
           clip-path="url(#clipPath62)"
           id="g58"><path
             id="path64"
             style="fill:#bcd0e2;fill-opacity:1;fill-rule:nonzero;stroke:none"
             d="m 3285.9,4145.75 -235.1,-162.43 c 84.12,58.11 147.65,125.35 144.7,263.93 -0.1,4.58 -0.27,9.23 -0.51,13.96 l 235.1,162.44 c 0.25,-4.73 0.41,-9.38 0.51,-13.96 2.94,-138.6 -60.59,-205.81 -144.7,-263.94" /></g></g><path
         id="path66"
         style="fill:#bcd0e2;fill-opacity:1;fill-rule:nonzero;stroke:none"
         d="m 3430.6,4409.69 c -43.18,-29.83 -100.76,-69.62 -143.93,-99.45 0.42,6.88 0.61,11.35 0.72,14.81 l 142.69,98.6 c 0.25,-4.73 0.42,-9.38 0.52,-13.96" /><g
         id="g68"><g
           clip-path="url(#clipPath74)"
           id="g70"><path
             id="path76"
             style="fill:#bcd0e2;fill-opacity:1;fill-rule:nonzero;stroke:none"
             d="m 3430.6,4409.69 -235.1,-162.44 c -0.1,4.58 -0.27,9.22 -0.51,13.96 l 235.09,162.44 c 0.25,-4.73 0.42,-9.38 0.52,-13.96" /></g></g><path
         id="path78"
         style="fill:#bcd0e2;fill-opacity:1;fill-rule:nonzero;stroke:none"
         d="m 3430.6,4409.69 c -43.18,-29.83 -100.76,-69.62 -143.93,-99.45 0.42,6.88 0.61,11.35 0.72,14.81 l 142.69,98.6 c 0.25,-4.73 0.42,-9.38 0.52,-13.96" /><g
         id="g80"><g
           clip-path="url(#clipPath86)"
           id="g82"><path
             id="path88"
             style="fill:#bcd0e2;fill-opacity:1;fill-rule:nonzero;stroke:none"
             d="m 3430.6,4409.69 -235.1,-162.44 c -0.1,4.58 -0.27,9.22 -0.51,13.96 l 235.09,162.44 c 0.25,-4.73 0.42,-9.38 0.52,-13.96" /></g></g><path
         id="path90"
         style="fill:#bcd0e2;fill-opacity:1;fill-rule:nonzero;stroke:none"
         d="m 3430.09,4423.65 c -42.81,-29.59 -99.88,-69.01 -142.69,-98.6 0.93,15.63 2.99,36.43 3.11,52.09 0.21,25.6 0.43,59.85 -2.01,85.35 -1.97,20.53 -4.84,47.93 -8.67,68.18 -1.7,9.04 -3.78,21.11 -5.9,30.04 -4,16.76 -9.2,39.16 -14.47,55.56 -11.38,35.42 -15.54,46.99 -30.24,79.34 -7.57,16.66 -20.18,37.65 -29.98,53.1 -10.96,17.31 -29.6,37.58 -43.63,52.49 -7.88,8.37 -20.42,17.37 -29.16,24.84 183.98,-42.55 297.89,-176.13 303.64,-402.39" /><g
         id="g92"><g
           clip-path="url(#clipPath98)"
           id="g94"><path
             id="path100"
             style="fill:#bcd0e2;fill-opacity:1;fill-rule:nonzero;stroke:none"
             d="m 3430.09,4423.65 -235.1,-162.44 c -5.75,226.34 -119.73,359.92 -303.82,402.42 -91.17,21.06 -162.68,8.58 -216.42,-28.54 l 235.09,162.43 c 53.74,37.13 125.25,49.6 216.43,28.55 184.1,-42.5 298.07,-176.08 303.82,-402.42" /></g></g><path
         id="path102"
         style="fill:#bcd0e2;fill-opacity:1;fill-rule:nonzero;stroke:none"
         d="m 2730.79,4662.52 c -13.91,-4.42 -26.99,-10.12 -39.25,-16.96 78.37,54.14 156.74,108.28 235.1,162.43 12.26,6.85 25.33,12.54 39.25,16.97 -78.34,-54.13 -156.68,-108.25 -235.03,-162.38 78.35,54.13 156.69,108.25 235.03,162.38 44.63,14.21 97.88,15.54 160.38,1.11 l -235.1,-162.44 c -62.5,14.44 -115.75,13.11 -160.38,-1.11 13.99,6.16 43.08,18.96 82.86,29.89 41.73,11.46 72.31,15.38 90.57,17.73 -18.26,-2.35 -48.84,-6.27 -90.57,-17.73 -20.9,-5.73 -37.62,-11.78 -43.92,-14.04 -11.13,-4.01 -24.37,-9.42 -29.82,-11.83 -2.73,-1.2 -6.32,-2.96 -9.12,-4.02" /><g
         id="g104"><g
           clip-path="url(#clipPath110)"
           id="g106"><path
             id="path112"
             style="fill:#bcd0e2;fill-opacity:1;fill-rule:nonzero;stroke:none"
             d="m 3126.27,4826.07 -235.1,-162.44 c -91.17,21.06 -162.68,8.58 -216.42,-28.54 l 235.09,162.43 c 53.74,37.13 125.25,49.6 216.43,28.55" /></g></g><path
         id="path114"
         style="fill:#bcd0e2;fill-opacity:1;fill-rule:nonzero;stroke:none"
         d="m 2730.79,4662.52 c -13.91,-4.42 -26.99,-10.12 -39.25,-16.96 78.37,54.14 156.74,108.28 235.1,162.43 12.26,6.85 25.33,12.54 39.25,16.97 -78.34,-54.13 -156.68,-108.25 -235.03,-162.38 78.35,54.13 156.69,108.25 235.03,162.38 44.63,14.21 97.88,15.54 160.38,1.11 l -235.1,-162.44 c -62.5,14.44 -115.75,13.11 -160.38,-1.11 13.99,6.16 43.08,18.96 82.86,29.89 41.73,11.46 72.31,15.38 90.57,17.73 -18.26,-2.35 -48.84,-6.27 -90.57,-17.73 -20.9,-5.73 -37.62,-11.78 -43.92,-14.04 -11.13,-4.01 -24.37,-9.42 -29.82,-11.83 -2.73,-1.2 -6.32,-2.96 -9.12,-4.02" /><g
         id="g116"><g
           clip-path="url(#clipPath122)"
           id="g118"><path
             id="path124"
             style="fill:#bcd0e2;fill-opacity:1;fill-rule:nonzero;stroke:none"
             d="m 3126.27,4826.07 -235.1,-162.44 c -91.17,21.06 -162.68,8.58 -216.42,-28.54 l 235.09,162.43 c 53.74,37.13 125.25,49.6 216.43,28.55" /></g></g><path
         id="path126"
         style="fill:#bcd0e2;fill-opacity:1;fill-rule:nonzero;stroke:none"
         d="m 2891.17,4663.63 c -91.15,21.05 -162.63,8.59 -216.37,-28.51 l 235.1,162.44 c 53.74,37.09 125.23,49.56 216.37,28.51 l 0.18,-0.03 c 8.74,-7.47 21.28,-16.47 29.16,-24.84 14.03,-14.91 32.67,-35.18 43.63,-52.49 9.8,-15.45 22.41,-36.44 29.98,-53.1 14.7,-32.35 18.86,-43.92 30.24,-79.34 5.27,-16.4 10.47,-38.8 14.47,-55.56 2.12,-8.93 4.2,-21 5.9,-30.04 3.83,-20.25 6.7,-47.65 8.67,-68.18 2.44,-25.5 2.22,-59.75 2.01,-85.35 -0.12,-15.66 -2.18,-36.46 -3.11,-52.09 l -92.41,-63.84 c -5.75,226.34 -119.73,359.92 -303.82,402.42" /><g
         id="g128"><g
           clip-path="url(#clipPath134)"
           id="g130"><path
             id="path136"
             style="fill:#bcd0e2;fill-opacity:1;fill-rule:nonzero;stroke:none"
             d="m 3430.09,4423.65 -235.1,-162.44 c -5.75,226.34 -119.73,359.92 -303.82,402.42 -91.17,21.06 -162.68,8.58 -216.42,-28.54 l 235.09,162.43 c 53.74,37.13 125.25,49.6 216.43,28.55 184.1,-42.5 298.07,-176.08 303.82,-402.42" /></g></g><path
         id="path138"
         style="fill:#bcd0e2;fill-opacity:1;fill-rule:nonzero;stroke:none"
         d="m 2891.17,4663.63 c 42.93,29.58 192.34,132.82 235.1,162.44 8.76,-7.45 21.32,-16.46 29.2,-24.82 14.06,-14.9 32.71,-35.2 43.69,-52.5 9.81,-15.45 22.44,-36.46 30.02,-53.12 14.7,-32.28 18.86,-43.86 30.26,-79.36 5.28,-16.39 10.49,-38.79 14.48,-55.55 2.12,-8.92 4.21,-21 5.91,-30.04 3.83,-20.25 6.7,-47.65 8.67,-68.19 2.44,-25.5 2.22,-59.75 2.01,-85.35 -0.12,-15.66 -2.18,-36.46 -3.12,-52.09 l -92.4,-63.84 c -5.75,226.34 -119.73,359.92 -303.82,402.42" /><g
         id="g140"><g
           clip-path="url(#clipPath146)"
           id="g142"><path
             id="path148"
             style="fill:#bcd0e2;fill-opacity:1;fill-rule:nonzero;stroke:none"
             d="m 3430.08,4423.65 -235.09,-162.44 c -5.75,226.34 -119.73,359.92 -303.82,402.42 l 235.1,162.44 c 184.1,-42.5 298.07,-176.08 303.81,-402.42" /></g></g><path
         id="path150"
         style="fill:#bcd0e2;fill-opacity:1;fill-rule:nonzero;stroke:none"
         d="m 2891.17,4663.63 c 42.93,29.58 192.34,132.82 235.1,162.44 8.76,-7.45 21.32,-16.46 29.2,-24.82 14.06,-14.9 32.71,-35.2 43.69,-52.5 9.81,-15.45 22.44,-36.46 30.02,-53.12 14.7,-32.28 18.86,-43.86 30.26,-79.36 5.28,-16.39 10.49,-38.79 14.48,-55.55 2.12,-8.92 4.21,-21 5.91,-30.04 3.83,-20.25 6.7,-47.65 8.67,-68.19 2.44,-25.5 2.22,-59.75 2.01,-85.35 -0.12,-15.66 -2.18,-36.46 -3.12,-52.09 l -92.4,-63.84 c -5.75,226.34 -119.73,359.92 -303.82,402.42" /><g
         id="g152"><g
           clip-path="url(#clipPath158)"
           id="g154"><path
             id="path160"
             style="fill:#bcd0e2;fill-opacity:1;fill-rule:nonzero;stroke:none"
             d="m 3430.08,4423.65 -235.09,-162.44 c -5.75,226.34 -119.73,359.92 -303.82,402.42 l 235.1,162.44 c 184.1,-42.5 298.07,-176.08 303.81,-402.42" /></g></g><path
         id="path162"
         style="fill:#bcd0e2;fill-opacity:1;fill-rule:nonzero;stroke:none"
         d="m 3430.08,4423.65 c -42.8,-29.59 -99.88,-69.01 -142.69,-98.6 0.94,15.63 3,36.43 3.12,52.09 0.21,25.6 0.43,59.85 -2.01,85.35 -1.97,20.54 -4.84,47.94 -8.67,68.19 -1.7,9.04 -3.79,21.12 -5.91,30.04 -3.99,16.76 -9.2,39.16 -14.48,55.55 -11.4,35.5 -15.56,47.08 -30.26,79.36 -7.58,16.66 -20.21,37.67 -30.02,53.12 -10.98,17.3 -29.63,37.6 -43.69,52.5 -7.88,8.36 -20.44,17.37 -29.2,24.82 184.1,-42.5 298.07,-176.08 303.81,-402.42" /><g
         id="g164"><g
           clip-path="url(#clipPath170)"
           id="g166"><path
             id="path172"
             style="fill:#bcd0e2;fill-opacity:1;fill-rule:nonzero;stroke:none"
             d="m 3430.08,4423.65 -235.09,-162.44 c -5.75,226.34 -119.73,359.92 -303.82,402.42 l 235.1,162.44 c 184.1,-42.5 298.07,-176.08 303.81,-402.42" /></g></g><path
         id="path174"
         style="fill:#bcd0e2;fill-opacity:1;fill-rule:nonzero;stroke:none"
         d="m 3430.08,4423.65 c -42.8,-29.59 -99.88,-69.01 -142.69,-98.6 0.94,15.63 3,36.43 3.12,52.09 0.21,25.6 0.43,59.85 -2.01,85.35 -1.97,20.54 -4.84,47.94 -8.67,68.19 -1.7,9.04 -3.79,21.12 -5.91,30.04 -3.99,16.76 -9.2,39.16 -14.48,55.55 -11.4,35.5 -15.56,47.08 -30.26,79.36 -7.58,16.66 -20.21,37.67 -30.02,53.12 -10.98,17.3 -29.63,37.6 -43.69,52.5 -7.88,8.36 -20.44,17.37 -29.2,24.82 184.1,-42.5 298.07,-176.08 303.81,-402.42" /><g
         id="g176"><g
           clip-path="url(#clipPath182)"
           id="g178"><path
             id="path184"
             style="fill:#bcd0e2;fill-opacity:1;fill-rule:nonzero;stroke:none"
             d="m 3430.08,4423.65 -235.09,-162.44 c -5.75,226.34 -119.73,359.92 -303.82,402.42 l 235.1,162.44 c 184.1,-42.5 298.07,-176.08 303.81,-402.42" /></g></g><path
         id="path186"
         style="fill:#bcd0e2;fill-opacity:1;fill-rule:nonzero;stroke:none"
         d="m 2691.54,4645.56 c -5.76,-3.24 -11.33,-6.71 -16.74,-10.44 l 235.1,162.44 c 5.4,3.73 10.98,7.21 16.74,10.43 -78.36,-54.15 -156.73,-108.29 -235.1,-162.43" /><g
         id="g188"><g
           clip-path="url(#clipPath194)"
           id="g190"><path
             id="path196"
             style="fill:#bcd0e2;fill-opacity:1;fill-rule:nonzero;stroke:none"
             d="m 3126.27,4826.07 -235.1,-162.44 c -91.17,21.06 -162.68,8.58 -216.42,-28.54 l 235.09,162.43 c 53.74,37.13 125.25,49.6 216.43,28.55" /></g></g><path
         id="path198"
         style="fill:#bcd0e2;fill-opacity:1;fill-rule:nonzero;stroke:none"
         d="m 2691.54,4645.56 c -5.76,-3.24 -11.33,-6.71 -16.74,-10.44 l 235.1,162.44 c 5.4,3.73 10.98,7.21 16.74,10.43 -78.36,-54.15 -156.73,-108.29 -235.1,-162.43" /><g
         id="g200"><g
           clip-path="url(#clipPath206)"
           id="g202"><path
             id="path208"
             style="fill:#bcd0e2;fill-opacity:1;fill-rule:nonzero;stroke:none"
             d="m 3126.27,4826.07 -235.1,-162.44 c -91.17,21.06 -162.68,8.58 -216.42,-28.54 l 235.09,162.43 c 53.74,37.13 125.25,49.6 216.43,28.55" /></g></g><path
         id="path210"
         style="fill:#bcd0e2;fill-opacity:1;fill-rule:nonzero;stroke:none"
         d="m 3754.54,3825.21 c -78.37,-54.14 -156.74,-108.28 -235.11,-162.42 -76.58,-52.93 -160.92,-88.31 -231.42,-137.03 78.36,54.16 156.73,108.29 235.1,162.44 70.5,48.72 154.84,84.1 231.43,137.01" /><g
         id="g212"><g
           clip-path="url(#clipPath218)"
           id="g214"><path
             id="path220"
             style="fill:#bcd0e2;fill-opacity:1;fill-rule:nonzero;stroke:none"
             d="m 3754.54,3825.21 -235.11,-162.42 c -76.58,-52.93 -160.92,-88.31 -231.42,-137.03 l 235.1,162.44 c 70.5,48.72 154.84,84.1 231.43,137.01" /></g></g><path
         id="path222"
         style="fill:#bcd0e2;fill-opacity:1;fill-rule:nonzero;stroke:none"
         d="m 2561.66,4445.15 c 19.32,83.83 56.24,150.62 113.01,189.87 l 235.1,162.44 c -19.95,-13.79 -37.44,-30.99 -52.59,-51.11 -78.34,-54.14 -156.68,-108.26 -235.02,-162.39 78.34,54.13 156.68,108.25 235.02,162.39 -27.96,-37.18 -47.89,-84.39 -60.43,-138.77 -23.85,-16.49 -47.7,-32.96 -71.54,-49.44 -4.57,-3.14 -10.65,-7.34 -15.22,-10.5 -9.22,-6.38 -21.52,-14.88 -30.75,-21.25 -4.62,-3.19 -10.79,-7.45 -15.41,-10.65 -4.61,-3.18 -10.74,-7.42 -15.34,-10.6 -4.56,-3.15 -10.65,-7.35 -15.21,-10.5 -4.5,-3.11 -10.5,-7.27 -15,-10.37 -4.41,-3.04 -10.31,-7.12 -14.72,-10.17 -13.95,-9.63 -27.89,-19.28 -41.83,-28.9 h -0.01 l -0.06,-0.05" /><g
         id="g224"><g
           clip-path="url(#clipPath230)"
           id="g226"><path
             id="path232"
             style="fill:#bcd0e2;fill-opacity:1;fill-rule:nonzero;stroke:none"
             d="m 2780.77,4425.76 -235.1,-162.44 c -4.25,167.49 35.43,307.06 129.08,371.77 l 235.09,162.43 c -93.64,-64.71 -133.33,-204.28 -129.07,-371.76" /></g></g><path
         id="path234"
         style="fill:#bcd0e2;fill-opacity:1;fill-rule:nonzero;stroke:none"
         d="m 2561.66,4445.15 c 19.32,83.83 56.24,150.62 113.01,189.87 l 235.1,162.44 c -19.95,-13.79 -37.44,-30.99 -52.59,-51.11 -78.34,-54.14 -156.68,-108.26 -235.02,-162.39 78.34,54.13 156.68,108.25 235.02,162.39 -27.96,-37.18 -47.89,-84.39 -60.43,-138.77 -23.85,-16.49 -47.7,-32.96 -71.54,-49.44 -4.57,-3.14 -10.65,-7.34 -15.22,-10.5 -9.22,-6.38 -21.52,-14.88 -30.75,-21.25 -4.62,-3.19 -10.79,-7.45 -15.41,-10.65 -4.61,-3.18 -10.74,-7.42 -15.34,-10.6 -4.56,-3.15 -10.65,-7.35 -15.21,-10.5 -4.5,-3.11 -10.5,-7.27 -15,-10.37 -4.41,-3.04 -10.31,-7.12 -14.72,-10.17 -13.95,-9.63 -27.89,-19.28 -41.83,-28.9 h -0.01 l -0.06,-0.05" /><g
         id="g236"><g
           clip-path="url(#clipPath242)"
           id="g238"><path
             id="path244"
             style="fill:#bcd0e2;fill-opacity:1;fill-rule:nonzero;stroke:none"
             d="m 2780.77,4425.76 -235.1,-162.44 c -4.25,167.49 35.43,307.06 129.08,371.77 l 235.09,162.43 c -93.64,-64.71 -133.33,-204.28 -129.07,-371.76" /></g></g><path
         id="path246"
         style="fill:#bcd0e2;fill-opacity:1;fill-rule:nonzero;stroke:none"
         d="m 2561.66,4445.15 0.04,0.03 c 13.95,9.63 27.9,19.27 41.86,28.92 4.41,3.05 10.31,7.13 14.72,10.17 59.49,41.1 118.99,82.21 178.47,123.31 -12.53,-54.39 -17.65,-115.94 -15.98,-181.82 l -235.1,-162.44 c -1.67,65.89 3.46,127.44 15.99,181.83" /><g
         id="g248"><g
           clip-path="url(#clipPath254)"
           id="g250"><path
             id="path256"
             style="fill:#bcd0e2;fill-opacity:1;fill-rule:nonzero;stroke:none"
             d="m 2780.77,4425.76 -235.1,-162.44 c -4.25,167.49 35.43,307.06 129.08,371.77 l 235.09,162.43 c -93.64,-64.71 -133.33,-204.28 -129.07,-371.76" /></g></g><path
         id="path258"
         style="fill:#bcd0e2;fill-opacity:1;fill-rule:nonzero;stroke:none"
         d="m 2561.66,4445.15 0.04,0.03 c 13.95,9.63 27.9,19.27 41.86,28.92 4.41,3.05 10.31,7.13 14.72,10.17 59.49,41.1 118.99,82.21 178.47,123.31 -12.53,-54.39 -17.65,-115.94 -15.98,-181.82 l -235.1,-162.44 c -1.67,65.89 3.46,127.44 15.99,181.83" /><g
         id="g260"><g
           clip-path="url(#clipPath266)"
           id="g262"><path
             id="path268"
             style="fill:#bcd0e2;fill-opacity:1;fill-rule:nonzero;stroke:none"
             d="m 2780.77,4425.76 -235.1,-162.44 c -4.25,167.49 35.43,307.06 129.08,371.77 l 235.09,162.43 c -93.64,-64.71 -133.33,-204.28 -129.07,-371.76" /></g></g><path
         id="path270"
         style="fill:#bcd0e2;fill-opacity:1;fill-rule:nonzero;stroke:none"
         d="m 2308.58,5029.51 c 78.36,54.14 156.73,108.28 235.1,162.43 -177.07,-122.33 -275.35,-351.03 -273.63,-648.27 l -235.1,-162.44 c -1.73,297.25 96.56,525.94 273.63,648.28" /><g
         id="g272"><g
           clip-path="url(#clipPath278)"
           id="g274"><path
             id="path280"
             style="fill:#bcd0e2;fill-opacity:1;fill-rule:nonzero;stroke:none"
             d="m 2270.05,4543.67 -235.1,-162.44 c -1.73,297.25 96.56,525.94 273.63,648.28 l 235.1,162.43 c -177.07,-122.33 -275.35,-351.03 -273.63,-648.27" /></g></g><path
         id="path282"
         style="fill:#858585;fill-opacity:1;fill-rule:nonzero;stroke:none"
         d="m 2780.77,4425.76 -235.1,-162.44 -510.72,117.91 235.1,162.44 510.72,-117.91" /><path
         id="path284"
         style="fill:#626c76;fill-opacity:1;fill-rule:nonzero;stroke:none"
         d="m 2780.77,4425.76 -235.1,-162.44 -510.72,117.91 235.09,162.44 510.73,-117.91" /><path
         id="path286"
         style="fill:#bcd0e2;fill-opacity:1;fill-rule:nonzero;stroke:none"
         d="m 3126.27,4826.07 c -250.06,57.73 -352.19,-136.71 -345.5,-400.31 l -510.73,117.91 510.73,-117.91 c -6.69,263.6 95.44,458.04 345.5,400.31 184.1,-42.5 298.07,-176.08 303.81,-402.42 0.25,-4.73 0.42,-9.38 0.52,-13.96 -0.1,4.58 -0.27,9.23 -0.52,13.96 -5.74,226.34 -119.71,359.92 -303.81,402.42" /><path
         id="path288"
         style="fill:#b0bfde;fill-opacity:1;fill-rule:nonzero;stroke:none"
         d="m 2780.77,4425.76 -235.1,-162.44 -510.72,117.91 235.09,162.44 510.73,-117.91" /><path
         id="path290"
         style="fill:#bcd0e2;fill-opacity:1;fill-rule:nonzero;stroke:none"
         d="m 2915.73,3895.75 c 51.04,35.28 119.09,82.3 170.14,117.57 -12.84,-9.24 -29.73,-21.87 -42.12,-31.69 -6.29,-4.99 -14.14,-12.29 -20.13,-17.65 -12.26,-10.93 -27.04,-27.2 -37.59,-39.79 -11.05,-13.17 -24.23,-32.08 -32.99,-46.89 -9.4,-15.85 -19.93,-38.14 -27.37,-55.01 -8.13,-18.45 -15.93,-44.36 -20.86,-63.92 -5.46,-21.69 -10.3,-51.2 -13.7,-73.31 -3.79,-24.64 -4.88,-57.98 -6.09,-82.89 -0.65,-13.48 -0.07,-31.5 -0.1,-45 l -220.57,-152.39 c 14.69,288.67 131.2,407.94 251.38,490.97" /><g
         id="g292"><g
           clip-path="url(#clipPath298)"
           id="g294"><path
             id="path300"
             style="fill:#bcd0e2;fill-opacity:1;fill-rule:nonzero;stroke:none"
             d="m 2899.44,3567.21 -235.09,-162.43 c 14.69,288.68 131.21,407.94 251.38,490.98 l 235.1,162.44 c -120.18,-83.04 -236.69,-202.31 -251.39,-490.99" /></g></g><path
         id="path302"
         style="fill:#bcd0e2;fill-opacity:1;fill-rule:nonzero;stroke:none"
         d="m 2884.92,3557.17 c 0.03,13.5 -0.55,31.52 0.1,45 1.21,24.91 2.3,58.25 6.09,82.89 3.4,22.11 8.24,51.62 13.7,73.31 4.93,19.56 12.73,45.47 20.86,63.92 7.44,16.87 17.97,39.16 27.37,55.01 8.76,14.81 21.94,33.72 32.99,46.89 10.55,12.59 25.33,28.86 37.59,39.79 5.99,5.36 13.84,12.66 20.13,17.65 12.39,9.82 29.28,22.45 42.12,31.69 l 64.96,44.88 c -120.18,-83.04 -236.69,-202.31 -251.39,-490.99 -4.35,-3.01 -10.16,-7.03 -14.52,-10.04" /><g
         id="g304"><g
           clip-path="url(#clipPath310)"
           id="g306"><path
             id="path312"
             style="fill:#bcd0e2;fill-opacity:1;fill-rule:nonzero;stroke:none"
             d="m 2899.44,3567.21 -235.09,-162.43 c 14.69,288.68 131.21,407.94 251.38,490.98 l 235.1,162.44 c -120.18,-83.04 -236.69,-202.31 -251.39,-490.99" /></g></g><path
         id="path314"
         style="fill:#b0bfde;fill-opacity:1;fill-rule:nonzero;stroke:none"
         d="m 3372.35,3291.51 -235.1,-162.43 -468.65,108.21 235.1,162.43 468.65,-108.21" /><path
         id="path316"
         style="fill:#ffffff;fill-opacity:1;fill-rule:nonzero;stroke:none"
         d="m 3090.75,5266.41 c 653.34,-150.84 876.15,-634.41 883.33,-916.9 18.03,-709.72 -557.49,-480.93 -605.31,-916.79 l 3.58,-141.21 -468.65,108.21 -4.26,167.49 c 31.77,624.06 539.35,456.42 531.16,842.48 -0.1,4.58 -0.26,9.23 -0.51,13.96 -5.75,226.34 -119.72,359.92 -303.82,402.42 -250.06,57.73 -352.19,-136.71 -345.5,-400.31 l -510.72,117.91 c -3.07,528.75 310.3,840.57 820.7,722.74" /><path
         id="path318"
         style="fill:#bcd0e2;fill-opacity:1;fill-rule:nonzero;stroke:none"
         d="m 2903.7,3399.72 -235.1,-162.43 -4.25,167.49 235.09,162.43 4.26,-167.49" /><path
         id="path320"
         style="fill:#ffffff;fill-opacity:1;fill-rule:nonzero;stroke:none"
         d="m 2875.09,2615.78 -14.53,572.37 545.39,-125.9 14.53,-572.39 -545.39,125.92" /><path
         id="path322"
         style="fill:#bcd0e2;fill-opacity:1;fill-rule:nonzero;stroke:none"
         d="M 2875.09,2615.78 2640,2453.34 l -14.55,572.38 235.11,162.43 14.53,-572.37" /><path
         id="path324"
         style="fill:#b0bfde;fill-opacity:1;fill-rule:nonzero;stroke:none"
         d="m 3420.48,2489.86 -235.09,-162.44 -545.39,125.92 235.09,162.44 545.39,-125.92" /><path
         id="path326"
         style="fill:#e4eef3;fill-opacity:1;fill-rule:nonzero;stroke:none"
         d="M 6695.18,1334.49 H 5275.15 v 461.74 h 1420.03 v -461.74" /><path
         id="path328"
         style="fill:#c4d1e1;fill-opacity:1;fill-rule:nonzero;stroke:none"
         d="m 6442.36,1681.32 h -521.02 v 34.78 h 521.02 v -34.78" /><path
         id="path330"
         style="fill:#c4d1e1;fill-opacity:1;fill-rule:nonzero;stroke:none"
         d="m 6515.66,1615.54 h -594.32 v 26.05 h 594.32 v -26.05" /><path
         id="path332"
         style="fill:#c4d1e1;fill-opacity:1;fill-rule:nonzero;stroke:none"
         d="M 6437.74,1554.43 H 5918.9 v 26.27 h 518.84 v -26.27" /><path
         id="path334"
         style="fill:#c4d1e1;fill-opacity:1;fill-rule:nonzero;stroke:none"
         d="M 6496.59,1495.78 H 5918.9 v 26.06 h 577.69 v -26.06" /><path
         id="path336"
         style="fill:#c4d1e1;fill-opacity:1;fill-rule:nonzero;stroke:none"
         d="M 6047.98,1432.37 H 5918.9 v 26.04 h 129.08 v -26.04" /><path
         id="path338"
         style="fill:#b0bfde;fill-opacity:1;fill-rule:nonzero;stroke:none"
         d="m 5348.15,1408.44 v 305.82 h 524.34 v -305.82 h -524.34" /><path
         id="path340"
         style="fill:#ffffff;fill-opacity:1;fill-rule:nonzero;stroke:none"
         d="m 5631.25,1560.99 -34.34,-19.77 -0.53,-0.22 -0.04,0.56 v 39.67 l 0.04,0.57 0.53,-0.17 34.34,-19.83 0.48,-0.45 z m -20.96,51.98 c -28.53,0 -51.54,-23.06 -51.54,-51.62 0,-28.41 23.01,-51.46 51.54,-51.46 28.44,0 51.62,23.05 51.62,51.46 0,28.56 -23.18,51.62 -51.62,51.62" /><path
         id="path342"
         style="fill:#194866;fill-opacity:1;fill-rule:nonzero;stroke:none"
         d="m 2063.5,2144.57 c -247.54,0 -448.24,-200.7 -448.24,-448.26 0,-247.58 200.7,-448.27 448.24,-448.27 247.53,0 448.26,200.69 448.26,448.27 0,247.56 -200.73,448.26 -448.26,448.26" /><path
         id="path344"
         style="fill:#ffffff;fill-opacity:1;fill-rule:nonzero;stroke:none"
         d="m 2119.15,1853.53 c 0,-11.58 -4.36,-21.34 -13.09,-29.47 -8.7,-8.16 -19.2,-12.18 -31.52,-12.18 -12.31,0 -22.84,4.02 -31.66,12.18 -8.81,8.13 -13.21,17.89 -13.21,29.47 0,11.53 4.4,21.45 13.21,29.65 8.82,8.16 19.35,12.26 31.66,12.26 12.32,0 22.82,-4.1 31.52,-12.26 8.73,-8.2 13.09,-18.12 13.09,-29.65 z m -4.77,-277.96 -5,-20.58 c -15.06,-5.91 -27.03,-10.38 -36,-13.49 -8.9,-3.14 -19.3,-4.64 -31.18,-4.64 -18.2,0 -32.36,4.39 -42.48,13.28 -10.06,8.86 -15.08,20.13 -15.08,33.77 0,5.39 0.34,10.8 1.09,16.35 0.75,5.52 1.97,11.79 3.67,18.79 l 18.83,66.48 c 1.67,6.38 3.03,12.39 4.19,18.08 1.12,5.73 1.67,10.88 1.67,15.55 0,8.54 -1.67,14.47 -5.18,17.87 -3.58,3.28 -10.26,4.97 -20.12,4.97 -4.91,0 -9.82,-0.8 -14.97,-2.24 -5.09,-1.57 -9.48,-3.07 -13.1,-4.43 l 4.94,20.53 c 12.38,5.07 24.12,9.34 35.39,12.86 11.22,3.58 21.87,5.36 31.92,5.36 18.05,0 32.03,-4.31 41.81,-13.1 9.83,-8.71 14.68,-20.06 14.68,-34.04 0,-2.83 -0.29,-7.95 -0.98,-15.25 -0.7,-7.27 -1.96,-13.98 -3.82,-20.04 l -18.67,-66.2 c -1.51,-5.38 -2.89,-11.46 -4.11,-18.28 -1.22,-6.86 -1.85,-11.97 -1.85,-15.49 0,-8.77 1.97,-14.81 5.96,-17.96 3.9,-3.21 10.69,-4.77 20.41,-4.77 4.56,0 9.72,0.82 15.49,2.38 5.73,1.56 9.89,3 12.49,4.24" /><path
         id="path346"
         style="fill:#282723;fill-opacity:1;fill-rule:nonzero;stroke:none"
         d="m 1998.83,2551.92 c 23.86,-48.96 83.72,-68.89 133.72,-44.53 50,24.37 71.2,83.79 47.35,132.76 -23.86,48.95 -83.72,68.89 -133.74,44.52 -50,-24.35 -71.18,-83.79 -47.33,-132.75" /><path
         id="path348"
         style="fill:#282723;fill-opacity:1;fill-rule:nonzero;stroke:none"
         d="m 1948.26,2426.16 c 30.12,-61.8 105.72,-86.98 168.85,-56.21 63.12,30.76 89.89,105.78 59.76,167.61 -30.12,61.82 -105.71,86.99 -168.84,56.22 -63.12,-30.77 -89.88,-105.79 -59.77,-167.62" /><path
         id="path350"
         style="fill:#dee7ec;fill-opacity:1;fill-rule:nonzero;stroke:none"
         d="m 2054.16,2289.56 c 0,0 3.7,-16.49 -75.81,-36.67 -79.49,-20.19 -201.2,-30.15 -201.2,-30.15 l 179.06,63.72 c 0,0 69.62,21.09 97.95,3.1" /><path
         id="path352"
         style="fill:#dee7ec;fill-opacity:1;fill-rule:nonzero;stroke:none"
         d="m 1841.18,2232.78 c -37.5,-10.75 -48.21,-34.17 -61.41,-44.26 -13.2,-10.09 -25.58,-23.3 -25.53,-23.09 3.76,18.42 15.73,22.34 20.31,29.29 4.58,6.94 3.75,3.87 -9.89,1.05 -7.75,-1.62 -17.26,-18.84 -24.74,-29.01 -6.49,-8.77 -11.57,-10.82 -11.57,-10.82 0,0 5.83,16.33 15.11,30.77 11.18,17.43 26.49,33.74 30.38,36.72 7.1,5.42 31.94,13.48 50.49,16.24 20.92,3.08 43.87,0.85 16.85,-6.89" /><path
         id="path354"
         style="fill:#dee7ec;fill-opacity:1;fill-rule:nonzero;stroke:none"
         d="m 1776.04,2223.26 c 0,0 -26.61,-15.53 -30.57,-20.76 -2.75,-3.62 -13,-23.26 -13,-23.26 0,0 10.24,4.83 14.78,12.44 4.53,7.58 28.79,31.58 28.79,31.58" /><path
         id="path356"
         style="fill:#b0bfde;fill-opacity:1;fill-rule:nonzero;stroke:none"
         d="m 2009.76,2313.79 c 0,0 73.86,16.44 81.32,-28.01 4.27,-25.25 -9.83,-38.52 -32.25,-43.12 -41.68,-8.5 -89.55,-15.95 -89.55,-15.95 l -39.98,60.89 80.46,26.19" /><path
         id="path358"
         style="fill:#b0bfde;fill-opacity:1;fill-rule:nonzero;stroke:none"
         d="m 2005.59,2350.5 20.57,201.88 c 0,0 -1.47,52.84 17.57,51.73 27.43,-1.56 32.68,-47.16 35.07,-63.52 4.85,-33.37 11.87,-46.49 11.33,-130.47 -0.33,-51.78 3.36,-110.28 0.09,-145.22 -2.24,-24.06 -25.69,2.69 -50.13,4.98 -45.57,4.28 -34.5,80.62 -34.5,80.62" /><path
         id="path360"
         style="fill:#e4eef3;fill-opacity:1;fill-rule:nonzero;stroke:none"
         d="m 1562.5,1784.9 -67.44,-146.23 -93.51,-2.07 -47.27,9.57 101.7,24.18 54.47,135.76 52.05,-21.21" /><path
         id="path362"
         style="fill:#161711;fill-opacity:1;fill-rule:nonzero;stroke:none"
         d="m 1484.74,1615.57 -12.43,2.93 -6.94,15.14 -75.43,-3.33 -60.76,11.25 c 0,0 1.2,4.64 4.07,6.19 10.73,5.71 57.91,8.55 57.91,8.55 0,0 -4.95,-13.13 0.4,-15.87 5.36,-2.73 63.59,0.84 77.57,2.81 24.03,3.42 36.48,9.48 35.41,6.27 -1.57,-4.67 -19.8,-33.94 -19.8,-33.94" /><path
         id="path364"
         style="fill:#854638;fill-opacity:1;fill-rule:nonzero;stroke:none"
         d="m 1935.93,2082.26 -220.49,5.86 -164.26,-359.57 -68.03,26.87 160.26,432.66 c 0,0 12.69,27.38 79.3,27.38 64.79,0 326.36,7.14 356.09,-1.13 70.49,-19.62 -155,-72.34 -142.87,-132.07" /><path
         id="path366"
         style="fill:#282723;fill-opacity:1;fill-rule:nonzero;stroke:none"
         d="m 2092.76,2680.02 c 23.86,-48.96 83.72,-68.9 133.72,-44.54 50.01,24.36 71.21,83.81 47.35,132.75 -23.86,48.96 -83.73,68.9 -133.72,44.54 -50,-24.37 -71.19,-83.79 -47.35,-132.75" /><path
         id="path368"
         style="fill:#282723;fill-opacity:1;fill-rule:nonzero;stroke:none"
         d="m 1989.93,2711.71 c 18.34,-37.58 63.66,-53.21 101.26,-34.88 l 1.27,40.61 c 37.6,18.33 53.22,63.66 34.89,101.25 l -12.42,25.52 c -18.33,37.63 -63.66,53.25 -101.26,34.93 l -17.01,-8.3 c -37.61,-18.32 -53.24,-63.65 -34.92,-101.26 l 28.19,-57.87" /><path
         id="path370"
         style="fill:#ffffff;fill-opacity:1;fill-rule:nonzero;stroke:none"
         d="m 1968.37,2825.09 c 3.13,-6.21 6.79,-12.38 10.98,-18.39 28.18,-40.36 70.93,-60.61 101.97,-50.55 10.54,-19.37 23.2,-35.22 35.34,-48.03 13.81,-14.6 42.87,-22.98 42.87,-22.98 19.81,-28.14 8.59,-109.14 -62.2,-117.45 -42.54,-5.03 -33.83,39.81 -18.98,67.79 6.98,13.13 13.66,28.23 12.13,35.6 -5.36,25.82 -14.82,29.35 -29.95,38.17 -25.56,11.2 -48.97,-0.56 -48.97,-0.56 -2.28,-1.09 -4.78,-1.12 -6.98,-0.27 -3.57,3.81 -6.66,8.21 -9.06,13.17 l -27.36,56.15 c -7.57,15.54 -6.91,32.95 0.21,47.35" /><path
         id="path372"
         style="fill:#194866;fill-opacity:1;fill-rule:nonzero;stroke:none"
         d="m 2190.46,2153.46 c 0,0 -32.33,-6.67 -41.29,-10.03 -12,-4.51 -47.1,1.18 -47.1,1.18 0,0 -4.49,173.24 -12.95,233.71 -8.46,60.45 -24.15,76.87 -24.03,95.78 0.19,30.22 2.67,37.28 8,60.71 5.33,23.47 -10.26,54.64 -4.96,48.67 8.53,-9.6 40.56,-24.55 70.45,8.54 5.14,5.69 51.88,-438.56 51.88,-438.56" /><path
         id="path374"
         style="fill:#d1dbea;fill-opacity:1;fill-rule:nonzero;stroke:none"
         d="m 2075.77,2653.73 c 0,0 -43.97,-44.3 -42.2,-58.87 1.77,-14.58 -2.7,-75.7 7.4,-140.8 10.08,-65.1 18.19,-81.26 19.86,-128.79 1.66,-47.53 -9.35,-58.12 -5.35,-116.47 3.12,-45.7 10.29,-86.01 10.29,-86.01 0,0 20.75,-5.84 36.41,11.14 15.66,16.99 10.02,175.9 4.23,215.02 -5.75,39.13 -28.74,141.78 -27.38,169.02 1.39,27.26 10.21,92.36 15.02,100.93 12.05,21.37 -14.79,32.6 -18.28,34.83" /><path
         id="path376"
         style="fill:#b0bfde;fill-opacity:1;fill-rule:nonzero;stroke:none"
         d="m 2075.6,2657.81 c 0,0 2.38,-3.8 5.44,-5.92 5.76,-3.93 12.92,-11.69 12.92,-11.69 0,0 -8.8,4.21 -12.15,-3.37 -4.13,-9.32 -6.67,-30.4 -6.67,-30.4 0,0 -16.26,26.84 -12.39,35.37 6.99,15.44 12.85,16.01 12.85,16.01" /><path
         id="path378"
         style="fill:#282723;fill-opacity:1;fill-rule:nonzero;stroke:none"
         d="m 2135.88,2552.31 c 16.89,-54.31 75.54,-84.38 131.01,-67.15 55.48,17.26 86.75,75.24 69.89,129.58 -16.88,54.3 -75.53,84.37 -131,67.13 -55.48,-17.25 -86.78,-75.25 -69.9,-129.56" /><path
         id="path380"
         style="fill:#e4eef3;fill-opacity:1;fill-rule:nonzero;stroke:none"
         d="m 1780,1753.03 -3.28,-102.44 -20.88,-24.56 -55.61,-32.07 -41.24,7.48 72.68,54.15 5.33,107.48 43,-10.04" /><path
         id="path382"
         style="fill:#161711;fill-opacity:1;fill-rule:nonzero;stroke:none"
         d="m 1773.52,1628.14 -18.69,-13.35 -5.73,4.55 -51.55,-32.68 c 0,0 -46.93,-12.27 -56.01,-1.59 -2.92,3.44 4.62,9.16 15.09,16.92 8.28,6.14 13.35,8.55 13.35,8.55 0,0 2.14,-8.01 20.69,-11.09 5.95,-0.97 42.72,23.38 55.35,29.67 22.69,11.31 31.7,27.21 32.84,25.72 2.99,-3.89 -5.34,-26.7 -5.34,-26.7" /><path
         id="path384"
         style="fill:#ad5c49;fill-opacity:1;fill-rule:nonzero;stroke:none"
         d="m 2216.43,2293.03 -26.62,-62.85 -45.7,-5.59 -368.98,-23.5 c 0,0 -33.01,10.2 -54.04,-41.96 -29.91,-74.25 9.21,-445.93 9.21,-445.93 l 54.61,0.85 29.51,350.42 c 0,0 354.65,-62.05 456.78,-30.68 39.21,12.04 69.15,81.26 63.56,151.18 -4.38,54.8 -40.97,105.19 -40.97,105.19 l -77.36,2.87" /><path
         id="path386"
         style="fill:#d1dbea;fill-opacity:1;fill-rule:nonzero;stroke:none"
         d="m 2166.24,2161.07 c 0,0 -17.13,154.66 -26.85,227.89 -9.71,73.2 -7.58,196.05 -9.8,213.68 -2.24,17.59 -11.46,42.94 -11.46,42.94 0,0 17.8,39.96 41.08,38.66 20.49,-1.17 85.09,-22.8 116.39,-35.51 21.63,-8.81 10.29,-255.37 12.22,-268.36 7,-46.81 30,-100.49 44.9,-137.56 11.85,-29.46 21.04,-73.47 21.04,-73.47 0,0 -118.13,13.94 -187.52,-8.27" /><path
         id="path388"
         style="fill:#b0bfde;fill-opacity:1;fill-rule:nonzero;stroke:none"
         d="m 2154.85,2696.36 -17.35,-19.58 c 0,0 -24.27,-33.52 -16.39,-28.82 10,5.98 21.49,-29 21.49,-29 l 32.26,66.2 -20.01,11.2" /><path
         id="path390"
         style="fill:#ffffff;fill-opacity:1;fill-rule:nonzero;stroke:none"
         d="m 2296.31,2320.5 c 0,0 26.99,-19.14 -75,-29.64 -101.98,-10.49 -254.14,-2.96 -254.14,-2.96 l 233.27,44.21 c 0,0 64.33,13.05 95.87,-11.61" /><path
         id="path392"
         style="fill:#ffffff;fill-opacity:1;fill-rule:nonzero;stroke:none"
         d="m 2048.14,2289.34 c -48.38,-6.34 -66.07,-31.06 -84.31,-40.4 -18.22,-9.34 -36.02,-22.28 -35.93,-22.08 8.15,20.18 23.71,22.77 30.7,29.89 6.97,7.1 5.36,3.78 -12.01,2.7 -9.89,-0.62 -24.92,-18.58 -36.12,-28.87 -9.69,-8.91 -16.34,-10.4 -16.34,-10.4 0,0 10.31,17.48 24.53,32.32 17.17,17.92 39.18,33.95 44.54,36.7 9.83,5.04 42.02,10.28 65.45,10.51 26.42,0.27 54.32,-5.8 19.49,-10.37" /><path
         id="path394"
         style="fill:#edeef0;fill-opacity:1;fill-rule:nonzero;stroke:none"
         d="m 1965.9,2288.66 c 0,0 -35.81,-13.38 -41.71,-18.67 -4.1,-3.68 -20.51,-24.21 -20.51,-24.21 0,0 13.55,3.88 20.61,11.73 7.08,7.85 41.61,31.15 41.61,31.15" /><path
         id="path396"
         style="fill:#b0bfde;fill-opacity:1;fill-rule:nonzero;stroke:none"
         d="m 2235.97,2349.43 -33.17,224.65 c 0,0 8.22,46.27 22.58,62.13 17.03,18.79 49.47,13.19 49.47,13.19 0,0 37.97,-31.11 40.7,-209 1.86,-121.72 13.02,-171.77 -39.43,-177.05 -48.96,-4.95 -104.84,-8 -104.84,-8 l -37.14,73.47 101.83,20.61" /><path
         id="path398"
         style="fill:#cdd5d7;fill-opacity:1;fill-rule:nonzero;stroke:none"
         d="m 1959.1,2221.27 h -321.92 v 6.63 h 321.92 v -6.63" /><path
         id="path400"
         style="fill:#cdd5d7;fill-opacity:1;fill-rule:nonzero;stroke:none"
         d="m 1817.02,2228.28 c -0.01,-5.12 -3.66,-9.29 -8.14,-9.29 h -165.1 c -4.47,0 -10.58,3.28 -16.07,16.28 l -81.61,149.03 c 0,6.49 5.03,10.38 9.52,9.34 l 169.38,-5.1 c 4.5,-1.06 8.17,-4.48 10.71,-11.29 l 81.31,-148.97" /><path
         id="path402"
         style="fill:#b7bec0;fill-opacity:1;fill-rule:nonzero;stroke:none"
         d="m 1797.05,2221.27 h 162.84 c -5.77,-3.05 -15.42,-5.1 -26.36,-5.1 h -134.81 -1.67 -134.81 c -10.94,0 -20.59,2.05 -26.36,5.1 h 161.17" /><path
         id="path404"
         style="fill:#ffffff;fill-opacity:1;fill-rule:nonzero;stroke:none"
         d="m 2487.58,1716.46 c -16.3,0 -29.51,-13.2 -29.51,-29.52 v -78.7 H 2340 l 118.07,-177.1 V 969.762 c 0,-16.301 13.21,-29.532 29.51,-29.532 h 1048.8 c 16.3,0 29.52,13.231 29.52,29.532 v 717.178 c 0,16.32 -13.22,29.52 -29.52,29.52 h -1048.8" /><path
         id="path406"
         style="fill:#ffffff;fill-opacity:1;fill-rule:nonzero;stroke:none"
         d="m 1711.46,2502.99 v 170.04 h -170.03 z" /><path
         id="path408"
         style="fill:#ffffff;fill-opacity:1;fill-rule:nonzero;stroke:none"
         d="m 1221.46,2700.45 c 0,-36.36 29.47,-65.82 65.82,-65.82 h 479.03 c 36.36,0 65.82,29.46 65.82,65.82 v 394.93 c 0,36.36 -29.46,65.82 -65.82,65.82 h -479.03 c -36.35,0 -65.82,-29.46 -65.82,-65.82 v -394.93" /><path
         id="path410"
         style="fill:#bdcfe8;fill-opacity:1;fill-rule:nonzero;stroke:none"
         d="m 2651.22,1474.31 h 734.64 v 32.8 h -734.64 v -32.8" /><path
         id="path412"
         style="fill:#bdcfe8;fill-opacity:1;fill-rule:nonzero;stroke:none"
         d="m 2651.22,1369.34 h 734.64 v 32.81 h -734.64 v -32.81" /><path
         id="path414"
         style="fill:#bdcfe8;fill-opacity:1;fill-rule:nonzero;stroke:none"
         d="m 2651.22,1264.39 h 734.64 v 32.8 h -734.64 v -32.8" /><path
         id="path416"
         style="fill:#bdcfe8;fill-opacity:1;fill-rule:nonzero;stroke:none"
         d="m 2651.22,1159.45 h 734.64 v 32.78 h -734.64 v -32.78" /><path
         id="path418"
         style="fill:#bdcfe8;fill-opacity:1;fill-rule:nonzero;stroke:none"
         d="m 1439.03,2897.91 c 0,-18.16 -14.73,-32.91 -32.91,-32.91 -18.17,0 -32.91,14.75 -32.91,32.91 0,18.17 14.74,32.92 32.91,32.92 18.18,0 32.91,-14.75 32.91,-32.92" /><path
         id="path420"
         style="fill:#bdcfe8;fill-opacity:1;fill-rule:nonzero;stroke:none"
         d="m 1559.7,2897.91 c 0,-18.16 -14.73,-32.91 -32.91,-32.91 -18.17,0 -32.91,14.75 -32.91,32.91 0,18.17 14.74,32.92 32.91,32.92 18.18,0 32.91,-14.75 32.91,-32.92" /><path
         id="path422"
         style="fill:#bdcfe8;fill-opacity:1;fill-rule:nonzero;stroke:none"
         d="m 1680.37,2897.91 c 0,-18.16 -14.73,-32.91 -32.91,-32.91 -18.17,0 -32.91,14.75 -32.91,32.91 0,18.17 14.74,32.92 32.91,32.92 18.18,0 32.91,-14.75 32.91,-32.92" /><path
         id="path424"
         style="fill:#3c463b;fill-opacity:1;fill-rule:nonzero;stroke:none"
         d="m 2973.48,1714.75 c 0,0 261.95,-0.55 363.05,-2.09 69.96,-1.05 76.34,98.66 48.73,113.69 -83.76,45.6 -345.15,69.02 -345.15,69.02 l -177.8,-163.28 c 0,0 9.98,0.27 111.17,-17.34" /><path
         id="path426"
         style="fill:#854638;fill-opacity:1;fill-rule:nonzero;stroke:none"
         d="m 3220.46,2249.27 c 0,0 67.33,18.85 96.65,-69.09 45,-134.97 41.02,-258.75 34.77,-285.15 -2.9,-12.13 -11.55,-54.07 -86.81,-55.68 -30.49,-0.66 -18.3,64.72 -18.3,64.72 0,0 -19.58,55.53 -40.41,149.48 -20.84,93.98 14.1,195.72 14.1,195.72" /><path
         id="path428"
         style="fill:#ad5c49;fill-opacity:1;fill-rule:nonzero;stroke:none"
         d="m 3273.74,2241.68 -172.72,55.86 -130.75,8.79 -143.25,-43.34 c 0,0 -46.89,-32.32 -3.36,-136.15 43.54,-103.86 26.8,-266.58 26.8,-266.58 L 3220,1848.43 c 0,0 6.99,150.41 31.48,300.87 5.46,33.58 6.15,73.09 22.26,92.38" /><path
         id="path430"
         style="fill:#854638;fill-opacity:1;fill-rule:nonzero;stroke:none"
         d="m 3020.23,1855.7 h 18.83 c 19.69,145.26 18.76,295.1 -2.92,439.79 -5.68,-3.39 -11.36,-6.76 -17.04,-10.13 4.77,-148.02 -3.36,-296.02 1.13,-429.66" /><path
         id="path432"
         style="fill:#edeef0;fill-opacity:1;fill-rule:nonzero;stroke:none"
         d="m 3093.65,2256.84 c -2.55,-19.99 -18.86,-37.31 -36.02,-38.13 -16.28,0 -32.54,0 -48.82,0 -17.15,0.82 -33.49,18.14 -36.01,38.13 -4,32.93 -8,65.84 -12,98.81 -2.67,19.74 9.06,59.37 35.04,71.11 23.77,10.42 51,10.42 74.77,0 25.97,-11.72 37.71,-51.37 35.03,-71.11 -4,-32.97 -7.99,-65.88 -11.99,-98.81" /><path
         id="path434"
         style="fill:#854638;fill-opacity:1;fill-rule:nonzero;stroke:none"
         d="m 3031.28,2216.26 -31,-50.82 -56.81,71.02 8.93,37.38 18.44,15.12 0.24,-28.12 60.2,-44.58" /><path
         id="path436"
         style="fill:#854638;fill-opacity:1;fill-rule:nonzero;stroke:none"
         d="m 3035.03,2216.26 31.01,-50.82 52.86,66.18 -8.69,40.56 -13.25,17.07 -5.36,-33.21 -56.57,-39.78" /><path
         id="path438"
         style="fill:#163f59;fill-opacity:1;fill-rule:nonzero;stroke:none"
         d="m 3025.83,2489.43 c -13.69,0 -25.7,-7.02 -32.68,-17.66 h -13.41 c -16.72,0 -30.28,-13.55 -30.28,-30.28 v -74.78 h 21.31 v 30.42 c 0,11.75 9.55,21.28 21.3,21.28 h 12.44 -19.72 13.04 c 21.58,0 39.06,17.51 39.06,39.08 v 31.94 h -11.06" /><path
         id="path440"
         style="fill:#e4eef3;fill-opacity:1;fill-rule:nonzero;stroke:none"
         d="m 2988.09,2338.88 c 0,-10.25 -8.3,-18.54 -18.54,-18.54 h -1.54 c -10.24,0 -18.55,8.29 -18.55,18.54 v 22.49 c 0,10.21 8.31,18.53 18.55,18.53 h 1.54 c 7.57,0 14.08,-4.54 16.97,-11.05" /><path
         id="path442"
         style="fill:#163f59;fill-opacity:1;fill-rule:nonzero;stroke:none"
         d="m 3009.24,2459.72 v 29.71 h 64.14 c 21.61,0 39.07,-17.5 39.07,-39.06 v -29.71 h -12.29 -32.33 -19.53 c -21.57,0 -39.06,17.49 -39.06,39.06" /><path
         id="path444"
         style="fill:#ffffff;fill-opacity:1;fill-rule:nonzero;stroke:none"
         d="m 3106.95,2310.47 c -0.07,-15.52 -11.93,-41.86 -31.6,-50.17 -26.74,-11.03 -58.4,-11.03 -85.13,0 -19.69,8.31 -31.48,34.6 -31.59,50.17 0,44.1 0,88.18 0,132.25 -0.1,15.62 15.48,28.76 34.73,29.16 26.29,0 52.57,0 78.86,0 19.23,-0.37 34.85,-13.51 34.73,-29.16 0,-44.07 0,-88.15 0,-132.25" /><path
         id="path446"
         style="fill:#163f59;fill-opacity:1;fill-rule:nonzero;stroke:none"
         d="m 3047.96,2489.43 c 13.69,0 25.7,-7.02 32.68,-17.66 h 13.41 c 16.71,0 30.27,-13.55 30.27,-30.28 v -74.78 h -21.3 v 30.42 c 0,11.75 -9.54,21.28 -21.31,21.28 h -0.21 7.49 -34.48 c -21.58,0 -39.07,17.51 -39.07,39.08 v 31.94 h 32.52" /><path
         id="path448"
         style="fill:#ffffff;fill-opacity:1;fill-rule:nonzero;stroke:none"
         d="m 3086.01,2361.4 c 0,10.21 8.28,18.5 18.53,18.5 h 1.54 c 10.23,0 18.54,-8.29 18.54,-18.5 v -22.5 c 0,-10.25 -8.31,-18.56 -18.54,-18.56 h -1.54 c -7.58,0 -14.09,4.55 -16.97,11.04" /><path
         id="path450"
         style="fill:#163f59;fill-opacity:1;fill-rule:nonzero;stroke:none"
         d="m 3015.44,2452.07 c 0.49,2.48 0.76,5.02 0.76,7.65 v 29.71 h -12.28 -15.38 c -21.6,0 -39.08,-17.5 -39.08,-39.06 v -29.71 h 8.15 4.16 15.38 c 2.74,0 5.42,0.32 8.02,0.85 3.05,15.29 15.01,27.37 30.27,30.56" /><path
         id="path452"
         style="fill:#161711;fill-opacity:1;fill-rule:nonzero;stroke:none"
         d="m 2672.47,1213.89 c -4.03,-4.89 -1.07,-17.74 -1.07,-17.74 0,0 70.5,-7.87 93.18,-2.54 5.9,1.37 15.87,6.47 25.24,11.85 1.59,0.91 4.38,6.32 5.92,7.22 2.83,1.7 4.32,-1.12 6.73,0.4 6.29,3.94 10.71,7.04 10.79,7.43 6.19,32.34 -2.07,45.37 -2.07,45.37 0,0 -60.03,19.96 -71.27,6.07 -26.48,-32.79 -58.63,-47.36 -67.45,-58.06" /><path
         id="path454"
         style="fill:#161711;fill-opacity:1;fill-rule:nonzero;stroke:none"
         d="m 3331.49,1249.05 4.89,-53.26 53.33,-5.2 c 0,0 3.68,7.12 8.2,6.68 3.8,-0.4 7.99,-8.28 13.14,-8.77 11.24,-1.14 23.68,-2.32 28.65,-2.82 10.02,-0.98 107.01,-10.47 107.01,-10.47 0,0 3.5,10.77 0.91,14.85 -1.32,2.07 -9.9,6.37 -15.68,8.6 -26.79,10.41 -103.26,42.32 -114.41,69.96 -13.52,33.67 -86.04,-19.57 -86.04,-19.57" /><path
         id="path456"
         style="fill:#ffffff;fill-opacity:1;fill-rule:nonzero;stroke:none"
         d="m 3250.85,1923.4 -180.3,-73.63 c 0,0 127.9,-18.26 207.86,-1.96 54.06,11.04 -25.09,77.93 -27.56,75.59" /><path
         id="path458"
         style="fill:#3c463b;fill-opacity:1;fill-rule:nonzero;stroke:none"
         d="m 2841.58,1811.22 c 0,0 -17.36,-164.63 -14.88,-251.69 1.87,-65.62 2.06,-191.48 -13.57,-298.71 -0.95,-6.58 -84.83,-1.62 -84.83,-1.62 0,0 -30.1,408.15 -39.03,475.37 -8.92,67.26 17.06,115.74 152.31,76.65" /><path
         id="path460"
         style="fill:#323b31;fill-opacity:1;fill-rule:nonzero;stroke:none"
         d="m 3369.06,1771.52 c 0,0 -27.02,-42.67 -101.14,-52.76 -26.81,-3.66 43.19,-477.8 43.19,-477.8 l 109.53,35.06 -21.17,524.35 -30.41,-28.85" /><path
         id="path462"
         style="fill:#323b31;fill-opacity:1;fill-rule:nonzero;stroke:none"
         d="m 3066.91,1718.76 c 0,0 -143.18,-20.44 -238.77,-30.46 -35.03,-3.67 -65.37,94.42 -69.43,98.68 -25.58,26.78 -50.83,23.37 -49.95,24.34 20.7,22.39 127.94,43.17 239.99,69.47 112.04,26.25 129.12,9.71 129.12,9.71 l -10.96,-171.74" /><path
         id="path464"
         style="fill:#3c463b;fill-opacity:1;fill-rule:nonzero;stroke:none"
         d="m 2948.75,1880.79 c -112.05,-26.3 -219.29,-47.08 -239.99,-69.47 -0.88,-0.97 24.37,2.44 49.95,-24.34 1.11,-1.19 7.55,-32.63 12.18,-43.88 -18.26,32.91 245.06,125.74 301.97,149.75 -10.61,3.4 -41.6,7.29 -124.11,-12.06" /><path
         id="path466"
         style="fill:#323b31;fill-opacity:1;fill-rule:nonzero;stroke:none"
         d="m 2825.71,1719.98 -10.96,-320.4 -10.97,-74.31 -1.22,74.31 2.44,46.3 -25.58,71.85 -13.4,166.9 19.49,-7.3 -2.44,73.08 42.64,-30.43" /><path
         id="path468"
         style="fill:#3c463b;fill-opacity:1;fill-rule:nonzero;stroke:none"
         d="m 3365.36,1811.32 26.8,-7.3 9.75,-384.94 -56.04,-137.65 26.8,93.79 -10.96,193.7 c 0,0 -38.98,-93.8 -38.98,-88.96 0,4.91 32.9,203.48 32.9,203.48 0,0 -36.56,-30.48 -32.9,-29.24 3.65,1.21 21.93,138.87 42.63,157.12" /><path
         id="path470"
         style="fill:#ad5c49;fill-opacity:1;fill-rule:nonzero;stroke:none"
         d="m 2906.18,2261.4 c 0,0 -57.57,45.1 -113.88,-38.61 -82.51,-122.62 -118.33,-253.11 -131.46,-290.84 -10.02,-28.98 -4.49,-110.84 29.24,-144.58 8.12,-8.13 56.85,-1.6 56.85,-1.6 l 31.98,22.11 -13.39,25.75 -0.72,20.33 c 0,0 40.91,98.67 91.14,191.94 50.24,93.26 50.24,215.5 50.24,215.5" /><path
         id="path472"
         style="fill:#ffffff;fill-opacity:1;fill-rule:nonzero;stroke:none"
         d="m 2765.48,1886.41 186.85,-9.75 c 0,0 -179.97,-82.58 -185.91,-68.34 -33.73,80.64 -0.94,78.09 -0.94,78.09" /><path
         id="path474"
         style="fill:#ffffff;fill-opacity:1;fill-rule:nonzero;stroke:none"
         d="m 2868.29,1892.16 c 10.92,5.26 9.92,5.34 9.92,5.34 0,0 10,-11.88 24.45,-14.08 7.17,-1.1 30.36,-1.41 30.36,-1.41 l 34.42,-0.82 15.96,0.89 c 0,0 9.01,1.16 11.4,-0.38 6.96,-4.44 1.01,-8.03 1.01,-8.03 l -61.67,-8.73 59.26,-7.36 c 0,0 7.45,-2.19 7.8,-6.23 0.31,-3.75 -2.17,-3.64 -2.17,-3.64 l -68.83,-7.37 30.18,-7.17 c 0,0 7.22,-2.33 7.76,-6.24 0.62,-4.27 0.89,-5.45 0.89,-5.45 l -63.32,6.22 c 0,0 -48.33,59.19 -37.42,64.46" /><path
         id="path476"
         style="fill:#ffffff;fill-opacity:1;fill-rule:nonzero;stroke:none"
         d="m 2936.65,1854.03 41.43,-7.57 c 0,0 9.44,-0.67 13.65,-3.7 4.81,-3.49 1.98,-7.74 1.98,-7.74 l -63.51,5.32 6.45,13.69" /><path
         id="path478"
         style="fill:#b6c2c9;fill-opacity:1;fill-rule:nonzero;stroke:none"
         d="m 3196.43,1821.46 0.2,0.36 -0.2,11.78 h -368.16 v -11.78 -0.36 l 1.25,-2.22 c 6.28,-10.23 17.52,-12.05 30.4,-12.05 h 304.86 c 12.87,0 24.12,1.82 30.39,12.05 l 1.26,2.22" /><path
         id="path480"
         style="fill:#879ba6;fill-opacity:1;fill-rule:nonzero;stroke:none"
         d="m 3134.32,1822.55 h -243.77 v 8.31 h 243.77 v -8.31" /><path
         id="path482"
         style="fill:#e4eef3;fill-opacity:1;fill-rule:nonzero;stroke:none"
         d="m 3196.2,1832.31 0.99,241.42 c 0.03,6.35 -5.1,11.48 -11.48,11.48 h -344.6 c -6.37,0 -11.53,-5.13 -11.57,-11.48 l -0.98,-241.42 h 367.64" /><path
         id="path484"
         style="fill:#b6c2c9;fill-opacity:1;fill-rule:nonzero;stroke:none"
         d="m 3035.21,1958.79 c -0.05,-12.32 -10.08,-22.31 -22.41,-22.31 -12.32,0 -22.26,9.99 -22.21,22.31 0.05,12.29 10.07,22.28 22.4,22.28 12.32,0 22.27,-9.99 22.22,-22.28" /><path
         id="path486"
         style="fill:#854638;fill-opacity:1;fill-rule:nonzero;stroke:none"
         d="m 2741.23,1793.07 -12.83,81.92 21.29,21.9 47.19,-7.53 -9.65,-90.69 -46,-5.6" /><path
         id="path488"
         style="fill:#ad5c49;fill-opacity:1;fill-rule:nonzero;stroke:none"
         d="m 3314.16,1851.86 4.91,30.12 -59.69,53.61 -32.29,-14.59 42.22,-80.83 44.85,11.69" /><path
         id="path490"
         style="fill:#194866;fill-opacity:1;fill-rule:nonzero;stroke:none"
         d="m 4554.84,3485.45 h -567.53 v -403 h 98.72 v -106.94 l 106.92,106.94 h 361.89 v 403" /><path
         id="path492"
         style="fill:#ffffff;fill-opacity:1;fill-rule:nonzero;stroke:none"
         d="m 4215.48,3277.82 h 619.81 v 440.15 h -619.81 v -440.15" /><path
         id="path494"
         style="fill:#b0bfde;fill-opacity:1;fill-rule:nonzero;stroke:none"
         d="m 4314.3,3556.29 h 422.19 v 26.95 H 4314.3 v -26.95" /><path
         id="path496"
         style="fill:#b0bfde;fill-opacity:1;fill-rule:nonzero;stroke:none"
         d="m 4314.3,3484.42 h 422.19 v 26.95 H 4314.3 v -26.95" /><path
         id="path498"
         style="fill:#b0bfde;fill-opacity:1;fill-rule:nonzero;stroke:none"
         d="m 4314.3,3412.58 h 422.19 v 26.92 H 4314.3 v -26.92" /><path
         id="path500"
         style="fill:#ffffff;fill-opacity:1;fill-rule:nonzero;stroke:none"
         d="m 4727.52,3161.04 v 197.61 h -197.64 z" /><path
         id="path502"
         style="fill:#ffffff;fill-opacity:1;fill-rule:nonzero;stroke:none"
         d="m 4710.91,2299.04 -15.82,-204.31 c 0,0 -55.11,109.51 -61.03,186.19 -5.92,76.68 78.27,21.02 76.85,18.12" /><path
         id="path504"
         style="fill:#ffffff;fill-opacity:1;fill-rule:nonzero;stroke:none"
         d="m 4822.24,2802.43 c 1.94,-23.3 14.48,-43.5 27.66,-44.46 12.5,0 24.99,0 37.5,0 13.19,0.96 25.72,21.16 27.66,44.46 3.07,38.45 6.15,76.88 9.23,115.31 2.04,23.07 -6.97,69.34 -26.93,83.01 -18.24,12.15 -39.17,12.15 -57.42,0 -19.96,-13.67 -28.97,-59.94 -26.93,-83.01 3.08,-38.41 6.16,-76.86 9.23,-115.31" /><path
         id="path506"
         style="fill:#ffffff;fill-opacity:1;fill-rule:nonzero;stroke:none"
         d="m 5076.17,2415.33 -100.33,-163.07 c 0,0 149.2,71.66 141.48,138.36 -7.71,66.72 -41.15,24.71 -41.15,24.71" /><path
         id="path508"
         style="fill:#b0bfde;fill-opacity:1;fill-rule:nonzero;stroke:none"
         d="m 4713.44,2743.96 c 0,0 -48.88,-32.12 -77.18,-227.32 -28.29,-195.2 -10.28,-187.77 -10.28,-187.77 l 5.13,-44.49 72.04,-7.41 41.16,168.02 -30.87,298.97" /><path
         id="path510"
         style="fill:#161711;fill-opacity:1;fill-rule:nonzero;stroke:none"
         d="m 4981.22,1329.77 v -19.46 h -108.04 l -2.56,52.24 65.16,2.16 c 0,0 35.15,-32.17 45.44,-34.94" /><path
         id="path512"
         style="fill:#194866;fill-opacity:1;fill-rule:nonzero;stroke:none"
         d="m 4843.88,2230.24 c 0,0 -55.96,-320.22 -114.29,-460.78 -51.69,-124.54 -111.96,37.46 -111.96,37.46 l 94.34,537.32 155.52,11.8 c 0,0 10.69,-3.95 -23.61,-125.8" /><path
         id="path514"
         style="fill:#194866;fill-opacity:1;fill-rule:nonzero;stroke:none"
         d="m 4830.92,2354.75 -19.11,-206.49 26.96,-15.84 c 0,0 15.59,-306.72 20.69,-322.22 29.15,-88.79 104.61,-35.52 114.9,-5.93 10.29,29.59 27.44,248.61 24.01,408.43 -3.42,159.82 -3.42,159.82 -3.42,159.82 l -164.03,-17.77" /><path
         id="path516"
         style="fill:#194866;fill-opacity:1;fill-rule:nonzero;stroke:none"
         d="m 4866.01,1892.48 c 0,0 -12.49,-54.64 -10.69,-157.93 1.14,-65.5 7.57,-238.86 19.57,-367.92 0.74,-7.9 65.17,-1.92 65.17,-1.92 0,0 39.26,418.92 42.71,500.05 1.03,24.42 -65.31,85.51 -116.76,27.72" /><path
         id="path518"
         style="fill:#d1dbea;fill-opacity:1;fill-rule:nonzero;stroke:none"
         d="m 4695.43,2741.49 113.46,51.23 58.55,-17.51 72.38,8.28 79.76,-34.58 c 0,0 36.01,-34.59 2.57,-145.79 -33.45,-111.19 -28.46,-294.78 -28.46,-294.78 l -289.59,-18.36 c 0,0 19.63,389.75 -8.67,451.51" /><path
         id="path520"
         style="fill:#d1dbea;fill-opacity:1;fill-rule:nonzero;stroke:none"
         d="m 4968.13,2743.96 c 0,0 43.73,24.71 87.46,-29.64 74.53,-92.65 110.62,-207.56 118.34,-229.8 7.71,-22.24 17.99,-88.95 -12.87,-108.72 -30.86,-19.76 -30.86,-19.76 -30.86,-19.76 l -64.32,39.53 10.29,19.76 5.14,12.36 c 0,0 -36.01,79.07 -74.6,150.73 -38.58,71.65 -38.58,165.54 -38.58,165.54" /><path
         id="path522"
         style="fill:#b0bfde;fill-opacity:1;fill-rule:nonzero;stroke:none"
         d="m 4881.76,2777.72 28.62,-31.25 28.62,41.24 -17.18,25.43 -40.06,-35.42" /><path
         id="path524"
         style="fill:#b0bfde;fill-opacity:1;fill-rule:nonzero;stroke:none"
         d="m 4818.92,2810.68 55.03,-35.47 -26.02,-31.23 -42.94,48.74 13.93,17.96" /><path
         id="path526"
         style="fill:#194866;fill-opacity:1;fill-rule:nonzero;stroke:none"
         d="m 4643.65,1814.19 c 0,0 18.06,-5.91 75.49,-7.95 57.23,-2.06 -73.78,-462.55 -73.78,-462.55 l -81.29,29.87 58.54,463.57 21.04,-22.94" /><path
         id="path528"
         style="fill:#161711;fill-opacity:1;fill-rule:nonzero;stroke:none"
         d="m 4639.08,1348.75 -7.72,-40.37 h -41.16 c 0,0 -30.87,0 -38.59,0 -7.72,0 -54.03,0 -54.03,0 v 14.83 c 0,0 64.31,22.24 77.18,46.95 12.87,24.7 64.32,-21.41 64.32,-21.41" /><path
         id="path530"
         style="fill:#163f59;fill-opacity:1;fill-rule:nonzero;stroke:none"
         d="m 4863.13,3027.92 v 26.67 h -57.6 c -19.37,0 -35.07,-15.71 -35.07,-35.09 v -26.66 h 11.03 29.04 17.53 c 19.37,0 35.07,15.71 35.07,35.08" /><path
         id="path532"
         style="fill:#ffffff;fill-opacity:1;fill-rule:nonzero;stroke:none"
         d="m 4918.32,2866.04 c 0,-17.22 -13.97,-31.18 -31.19,-31.18 h -70.79 c -17.22,0 -31.18,13.96 -31.18,31.18 v 141.57 c 0,17.22 13.96,31.2 31.18,31.2 h 70.79 c 17.22,0 31.19,-13.98 31.19,-31.2 v -141.57" /><path
         id="path534"
         style="fill:#163f59;fill-opacity:1;fill-rule:nonzero;stroke:none"
         d="m 4865.37,3054.59 c 12.27,0 23.06,-6.33 29.32,-15.87 h 12.04 c 15.01,0 27.18,-12.18 27.18,-27.18 v -67.15 h -19.12 v 27.3 c 0,10.56 -8.59,19.12 -19.13,19.12 h -11.16 -29.04 -17.54 c -19.38,0 -35.07,15.71 -35.07,35.09 v 28.69 h 62.52" /><path
         id="path536"
         style="fill:#ffffff;fill-opacity:1;fill-rule:nonzero;stroke:none"
         d="m 4908.76,2926.95 c 0,9.18 7.44,16.61 16.64,16.61 h 1.38 c 9.19,0 16.65,-7.43 16.65,-16.61 v -20.21 c 0,-9.19 -7.46,-16.64 -16.65,-16.64 h -1.38 c -6.81,0 -12.64,4.08 -15.23,9.92" /><path
         id="path538"
         style="fill:#ffffff;fill-opacity:1;fill-rule:nonzero;stroke:none"
         d="m 4068.96,1463.77 25.04,-135.99 86.24,-22.22 45.91,-1.42 c 0,0 -84.06,36.12 -100.63,54.69 -25.13,28.13 -18.1,139.69 -18.1,139.69 l -38.46,-34.75" /><path
         id="path540"
         style="fill:#161711;fill-opacity:1;fill-rule:nonzero;stroke:none"
         d="m 4092.62,1305.56 18.08,-1.42 9.73,12.54 76.5,-22.62 48.7,-3.83 c 0,0 -3.66,7.68 -6.61,10.1 -8.88,7.23 -44.17,20.5 -44.17,20.5 0,0 0.69,-11.13 -4.86,-12.51 -5.57,-1.41 -58.43,13.22 -70.95,18.1 -21.54,8.37 -26.51,15.07 -27.81,13.89 -3.48,-3.14 1.39,-34.75 1.39,-34.75" /><path
         id="path542"
         style="fill:#163f59;fill-opacity:1;fill-rule:nonzero;stroke:none"
         d="m 4026.79,2338.27 44.13,-455.66 50.18,-435.94 -66.55,-8.28 c 0,0 -82.42,437.78 -91.55,475.58 -9.15,37.78 -102.08,339.93 -68.74,419.62 33.33,79.7 132.53,4.68 132.53,4.68" /><path
         id="path544"
         style="fill:#ad5c49;fill-opacity:1;fill-rule:nonzero;stroke:none"
         d="m 3912.82,2704.51 c 0,-54.14 -44.83,-98.05 -100.15,-98.05 -55.3,0 -100.15,43.91 -100.15,98.05 0,54.16 44.85,98.07 100.15,98.07 55.32,0 100.15,-43.91 100.15,-98.07" /><path
         id="path546"
         style="fill:#ad5c49;fill-opacity:1;fill-rule:nonzero;stroke:none"
         d="m 3986.41,2904.94 c 0,-39.82 -32.29,-72.1 -72.12,-72.1 l -18.03,34.25 c -39.82,0 -72.1,32.29 -72.1,72.13 v 27.03 c 0,39.82 32.28,72.11 72.1,72.11 h 18.03 c 39.83,0 72.12,-32.29 72.12,-72.11 v -61.31" /><path
         id="path548"
         style="fill:#ad5c49;fill-opacity:1;fill-rule:nonzero;stroke:none"
         d="m 3824.16,2939.22 v 27.03 c 0,39.82 32.28,72.11 72.1,72.11 h 18.03 c 16.47,0 31.61,-5.58 43.75,-14.88 1.27,-15.71 0.15,-32.36 -3.73,-49.21 -12.08,-52.53 -47.28,-91.63 -86.43,-101.37 -25.71,11.04 -43.72,36.55 -43.72,66.32" /><path
         id="path550"
         style="fill:#ad5c49;fill-opacity:1;fill-rule:nonzero;stroke:none"
         d="m 3911.62,2834.93 c 0,-51.86 -42.95,-93.9 -95.9,-93.9 -52.96,0 -95.9,42.04 -95.9,93.9 0,51.86 42.94,93.88 95.9,93.88 52.95,0 95.9,-42.02 95.9,-93.88" /><path
         id="path552"
         style="fill:#954f3f;fill-opacity:1;fill-rule:nonzero;stroke:none"
         d="m 3929.12,2709.73 c 0,-53.45 -44.25,-96.77 -98.82,-96.77 -54.58,0 -98.82,43.32 -98.82,96.77 0,53.43 44.24,96.75 98.82,96.75 54.57,0 98.82,-43.32 98.82,-96.75" /><path
         id="path554"
         style="fill:#954f3f;fill-opacity:1;fill-rule:nonzero;stroke:none"
         d="m 3814.11,2888.56 c 35.65,24.16 77.09,25.21 92.57,2.37 15.48,-22.84 -0.87,-60.95 -36.53,-85.09 -35.64,-24.16 -77.09,-25.22 -92.56,-2.37 -15.48,22.84 0.87,60.93 36.52,85.09" /><path
         id="path556"
         style="fill:#ffffff;fill-opacity:1;fill-rule:nonzero;stroke:none"
         d="m 3957.58,3010.98 c -0.08,-6.62 -0.64,-13.42 -1.73,-20.32 -7.29,-46.3 -35.42,-81.45 -66.19,-85.8 -0.94,-20.97 -5.18,-39.81 -10.21,-55.85 -5.74,-18.26 -27.13,-37.56 -27.13,-37.56 -5.21,-32.33 104.84,-79.8 102.24,-74.58 -2.62,5.2 -29.73,43.3 -38.6,78.25 -6.18,24.32 1.77,44.41 11.06,58.28 17.19,20.24 42.15,19.94 42.15,19.94 2.4,0 4.55,1.03 6.07,2.66 1.47,4.78 2.27,9.84 2.27,15.07 v 59.48 c 0,16.46 -7.83,31.09 -19.93,40.43" /><path
         id="path558"
         style="fill:#ffc40e;fill-opacity:1;fill-rule:nonzero;stroke:none"
         d="m 3980.38,2348.72 51.64,-13.24 c 0,0 -33.65,146.83 -43.04,204.21 -9.39,57.38 -8.34,76.15 -5.21,93.89 3.12,17.73 11.46,38.6 0,58.43 -11.48,19.82 -29.38,52.7 -36.5,55.29 -11.5,4.16 -24.01,9.38 -33.4,18.77 -5.16,5.16 66.51,-417.35 66.51,-417.35" /><path
         id="path560"
         style="fill:#ffffff;fill-opacity:1;fill-rule:nonzero;stroke:none"
         d="m 3828.68,1475.94 6.95,-144.66 86.25,-22.26 45.89,-1.38 c 0,0 -81.65,33.91 -94.51,55.21 -17.08,28.28 0,123.61 0,123.61 l -44.58,-10.52" /><path
         id="path562"
         style="fill:#161711;fill-opacity:1;fill-rule:nonzero;stroke:none"
         d="m 3834.25,1309.02 18.07,-1.38 9.74,12.51 69.2,-19.51 58.77,-2.75 c 0,0 -0.11,4.53 -2.43,6.59 -8.7,7.67 -51.83,20.53 -51.83,20.53 0,0 1.75,-13.19 -3.82,-14.62 -5.56,-1.37 -58.76,14.62 -71.29,19.48 -21.53,8.4 -26.5,15.11 -27.81,13.93 -3.48,-3.13 1.4,-34.78 1.4,-34.78" /><path
         id="path564"
         style="fill:#194866;fill-opacity:1;fill-rule:nonzero;stroke:none"
         d="m 3818.93,2332.09 12.53,-398.53 c 0,0 -16.55,-108.07 -17.89,-144.08 -3.02,-81.12 0.44,-324.52 0.44,-324.52 l 72.04,-2.93 c 0,0 50.77,439.96 57.31,478.09 6.55,38.13 80.24,344.63 37.67,420.89 -42.57,76.26 -162.1,-28.92 -162.1,-28.92" /><path
         id="path566"
         style="fill:#d1dbea;fill-opacity:1;fill-rule:nonzero;stroke:none"
         d="m 3998.37,2336.94 c 0,0 -25.03,137.73 -36.17,207.28 -11.12,69.54 -41.72,201.68 -44.5,218.38 -2.78,16.69 -12.52,38.95 -12.52,38.95 0,0 -26.42,19.47 -50.08,15.31 -23.64,-4.18 -43.12,-57.05 -52.86,-108.51 -9.73,-51.47 61.21,-194.75 61.21,-207.26 0,-12.52 -50.07,-118.23 -50.07,-148.83 0,-30.6 0,-34.79 0,-34.79 0,0 123.79,59.82 184.99,19.47" /><path
         id="path568"
         style="fill:#b0bfde;fill-opacity:1;fill-rule:nonzero;stroke:none"
         d="m 3858.58,2837.01 20.18,-12.58 28.86,-19.75 -5.52,-30.65 -53.96,48.38 10.44,14.6" /><path
         id="path570"
         style="fill:#ffffff;fill-opacity:1;fill-rule:nonzero;stroke:none"
         d="m 3736.58,2498.5 c 0,0 45.23,-60.3 68.97,-57.91 7.43,0.74 6.95,0.86 23.13,4 16.16,3.12 19.29,2.94 32.15,4.69 12.94,1.74 14.44,1.57 14.44,1.57 0,0 0,-7.31 -4.87,-9.23 -4.37,-1.72 -15.3,-3.12 -18.95,-4.68 -3.66,-1.57 9.21,1.03 28.52,-0.53 19.3,-1.57 38.07,-5.57 46.07,-7.84 5.07,-1.41 5.74,-1.71 5.74,-1.98 0,-2.35 -0.17,-4.53 -2.52,-4.96 -2.06,-0.37 -9.39,0.19 -8.95,-0.17 1.66,-1.34 13.15,-5.16 15.12,-5.67 2.09,-0.51 4.96,-1.12 6.7,-1.73 3.56,-1.23 1.91,-5.54 -4.26,-7.28 -0.08,-0.05 -1.45,-3.04 -3.31,-3.67 -0.96,-0.32 -1.64,-0.59 -2.61,-0.85 -1.09,-0.34 -2.39,-0.35 -3.48,-0.61 -4.15,-0.95 -8.31,-1.48 -12.34,-1.75 -1.65,-0.12 -16.08,1 -16.08,0.09 l 11.14,-3.44 c -0.46,-1.92 -2.62,-4.3 -4.63,-4.15 -3.66,0.33 -9.2,0.72 -24.33,2.63 -16.68,2.1 -20.17,3.82 -41.56,1.21 -18.65,-2.28 -16.83,-6.13 -30.08,-1.03 -17.73,6.82 -82.24,56.86 -94.23,64.68 -12,7.82 20.22,38.61 20.22,38.61" /><path
         id="path572"
         style="fill:#b0bfde;fill-opacity:1;fill-rule:nonzero;stroke:none"
         d="m 3712.52,2545.95 145.02,157.53 c 0,0 17.57,41.48 16.69,62.59 -1.04,25.02 -30.95,43.83 -30.95,43.83 0,0 -66.07,-59.48 -144.32,-145.02 -78.24,-85.54 -121.01,-123.1 -78.24,-156.49 42.78,-33.39 110.58,-76.16 110.58,-76.16 l 26.08,66.77 -44.86,46.95" /><path
         id="path574"
         style="fill:#194866;fill-opacity:1;fill-rule:nonzero;stroke:none"
         d="m 6125.14,1932.21 0.32,1.2 -0.71,0.93 c -11.78,60.91 -29.96,120.25 -57.71,173.89 -19.6,37.84 -59.12,73.72 -76.53,91.84 -44.92,-24.49 -89.32,-13.11 -131.33,-44.88 -5.41,-17.25 -9.83,-36.11 -13.03,-56.54 -6.37,-36.67 -11.86,-70.76 -16.6,-102.62 -65.13,-6.15 -225.86,-18.46 -286.35,-30.34 -35.83,-8.28 -37.92,-22.19 -43.51,-26.73 3.18,-58.47 50.64,-91.52 79.37,-138.35 5.1,-8.32 389.76,-1.12 455.83,-4.48 -8.94,-4.48 122.54,13.18 90.25,136.08" /><path
         id="path576"
         style="fill:#dee7ec;fill-opacity:1;fill-rule:nonzero;stroke:none"
         d="m 5524.47,1856.05 c -10.55,12.22 -16.41,27.49 -24.28,41.07 -6.13,26.14 -6.03,43.7 1.48,49.93 28.44,23.49 125.43,-25.45 369.37,-391.17 53.12,-79.65 158.19,-231.88 135.74,-215.02 -24.93,18.68 -45.02,41.02 -68.52,65.39 -333.38,345.59 -364.11,392.23 -413.79,449.8" /><path
         id="path578"
         style="fill:#163f59;fill-opacity:1;fill-rule:nonzero;stroke:none"
         d="m 6014.81,1354.42 -43.23,69.23 c -4.28,6.84 -10.99,10.31 -17.47,9.96 l 33.29,-53.3 c 6.45,-10.32 4.87,-24.22 -3.53,-31 -2.84,-2.3 -6.09,-3.42 -9.41,-3.59 l 9.94,-15.93 c 6.44,-10.31 18.47,-13.17 26.87,-6.35 8.39,6.78 9.98,20.66 3.54,30.98" /><path
         id="path580"
         style="fill:#15100c;fill-opacity:1;fill-rule:nonzero;stroke:none"
         d="m 5861.41,2157.59 c 0.12,-1.81 8.76,-2.74 19.31,-2.08 l 119.46,7.46 c 10.55,0.64 19.02,2.64 18.89,4.45 l -0.39,6.8 c -0.11,1.8 -8.76,2.71 -19.32,2.06 l -119.43,-7.43 c -10.57,-0.66 -19.04,-2.67 -18.92,-4.46 l 0.4,-6.8" /><path
         id="path582"
         style="fill:#ffffff;fill-opacity:1;fill-rule:nonzero;stroke:none"
         d="m 5592.24,1828.99 c -8.42,13.31 -10.99,29.27 -16.17,43.72 -1.2,26.33 3.36,41.65 10.58,48.21 32.73,29.77 104.79,-25.37 221.45,-265.35 58.81,-120.97 105.84,-233.53 185.31,-298.27 11.6,-9.43 14.65,-10.75 18.4,-21.7 11.56,-34.07 6.43,-76.52 5.01,-75.19 -55.67,51 -269.19,322.91 -424.58,568.58" /><path
         id="path584"
         style="fill:#194866;fill-opacity:1;fill-rule:nonzero;stroke:none"
         d="m 6039.6,1285.49 -37.5,72.52 c -3.69,7.15 -10.11,11.14 -16.6,11.35 l 28.88,-55.88 c 5.59,-10.77 2.89,-24.49 -6.04,-30.59 -3.01,-2.09 -6.33,-2.91 -9.67,-2.81 l 8.62,-16.67 c 5.59,-10.82 17.34,-14.62 26.28,-8.53 8.92,6.11 11.62,19.8 6.03,30.61" /><path
         id="path586"
         style="fill:#282723;fill-opacity:1;fill-rule:nonzero;stroke:none"
         d="m 5739.69,2576.86 c 9.85,16.56 23.89,31.04 41.73,41.65 56.01,33.27 127.83,15.81 160.43,-39.02 32.59,-54.85 13.61,-126.29 -42.39,-159.59 -54.81,-32.56 -124.65,-16.43 -158.18,35.63 17.47,37.87 17.99,82.4 -1.59,121.33" /><path
         id="path588"
         style="fill:#975140;fill-opacity:1;fill-rule:nonzero;stroke:none"
         d="m 5807.04,2507.86 c -14.13,2.14 -35.22,-14.5 -40,-42.29 -23.26,-135.36 -10.24,-292.58 -10.24,-292.58 0,0 3.15,-44.13 26.98,-34.41 23.96,9.77 51.77,104.72 71.69,297.39 5.77,55.64 -24.51,68.29 -48.43,71.89" /><path
         id="path590"
         style="fill:#dee7ec;fill-opacity:1;fill-rule:nonzero;stroke:none"
         d="m 5600.4,2050.25 c 0,0 -20.82,-10.9 -26.24,-21.37 -3.77,-7.33 -15.72,-44.6 -15.72,-44.6 0,0 12.28,7.78 17.17,22.72 7.06,21.88 24.79,43.25 24.79,43.25" /><path
         id="path592"
         style="fill:#dee7ec;fill-opacity:1;fill-rule:nonzero;stroke:none"
         d="m 5584.32,2028.82 c -13.74,-5.49 -22.38,-20.22 -28.38,-40.03 -5.75,-18.78 -17.7,-23.1 -17.7,-23.1 0,0 2.4,12.53 14.35,40.77 3.35,7.92 7.16,15.81 11.03,23.38 12.86,25.05 56,13.09 20.7,-1.02" /><path
         id="path594"
         style="fill:#ffffff;fill-opacity:1;fill-rule:nonzero;stroke:none"
         d="m 5620.89,2062.06 c -1.13,-10.3 -15.43,-23.7 -14.18,-30.07 3.67,-18.36 11.19,-27.19 10.95,-27.2 -21.77,-0.11 -25.19,30.62 -34.66,40.05 -9.43,9.42 40.8,43.85 37.89,17.22" /><path
         id="path596"
         style="fill:#ffffff;fill-opacity:1;fill-rule:nonzero;stroke:none"
         d="m 5724.22,2126.7 c -36.11,-14.25 -77.86,-29.79 -94.05,-45.54 -23.04,-22.37 -25.11,-44.04 -45.85,-52.34 -2.26,-0.9 -4.26,-2.3 -6.43,-3.48 -5.7,-3.17 -12.68,-5.67 -14.84,-7.31 -2.51,-1.82 -8.94,-7.8 -7.34,-4.41 14.12,30.38 32.91,62.95 39.52,67.67 13.52,9.67 90.73,59.95 123.27,72.71 36.67,14.41 54.49,-8.06 5.72,-27.3" /><path
         id="path598"
         style="fill:#ffffff;fill-opacity:1;fill-rule:nonzero;stroke:none"
         d="m 5583.32,2031.91 c 0,0 -3.05,7.42 -8.92,5.35 -9.67,-3.37 -24.77,-17.48 -29.91,-22.76 -5.7,-5.86 -28.17,-37.98 -28.17,-37.98 0,0 14.07,3.77 23.14,16.68 13.22,18.79 43.86,38.71 43.86,38.71" /><path
         id="path600"
         style="fill:#ffffff;fill-opacity:1;fill-rule:nonzero;stroke:none"
         d="m 5767.08,2187.11 c 25.77,-6.84 27.63,-11.58 29.52,-25.47 -60.7,-47.46 -188.54,-71.83 -188.54,-71.83 l 159.02,97.3" /><path
         id="path602"
         style="fill:#975140;fill-opacity:1;fill-rule:nonzero;stroke:none"
         d="m 5696.6,2093.91 c -3.05,16.77 -15.14,32.57 -22.19,43.25 33.57,25.07 65.17,41.66 101.93,63.74 13.7,8.23 30.82,-5.59 28.84,-19.53 -3.72,-26.06 -8.36,-36.71 -36.28,-53.02 -25.48,-14.87 -52.05,-26.27 -72.3,-34.44" /><path
         id="path604"
         style="fill:#282723;fill-opacity:1;fill-rule:nonzero;stroke:none"
         d="m 5891.93,2674.66 c 7.44,4.41 15.11,7.96 22.9,10.91 2.88,-7.8 6.39,-15.49 10.8,-22.9 35.28,-59.37 108.39,-82.57 172.06,-58.34 23.02,-62.47 -1.8,-135.05 -62.3,-171.01 -68.06,-40.45 -155.36,-19.22 -194.97,47.42 -39.61,66.63 -16.54,153.46 51.51,193.92" /><path
         id="path606"
         style="fill:#282723;fill-opacity:1;fill-rule:nonzero;stroke:none"
         d="m 5718.1,2623.23 c 12.88,-59.46 68.49,-97.88 124.2,-85.82 55.73,12.08 90.45,70.07 77.56,129.55 -12.88,59.47 -68.51,97.91 -124.23,85.82 -55.71,-12.07 -90.43,-70.07 -77.53,-129.55" /><path
         id="path608"
         style="fill:#ffffff;fill-opacity:1;fill-rule:nonzero;stroke:none"
         d="m 5986.43,2499.06 c 0,0 -27.52,-103.19 -80.8,-128.14 -53.26,-24.95 -82.61,-18.74 -95.48,1.93 -12.87,20.69 -24.61,64.24 -14.22,78.22 10.37,13.99 20.49,27.93 27.18,51.17 5.47,18.95 -4.01,49.42 -15.61,72.07 -11.61,22.62 -31.18,20.05 -14.38,35.44 16.77,15.36 6.34,24.83 26.25,25.8 19.91,0.95 29.56,10.58 33.55,-7.84 7.29,-33.6 14.77,-81.41 38.22,-98.99 26.02,-19.5 47.99,-22.37 95.29,-29.66" /><path
         id="path610"
         style="fill:#ffffff;fill-opacity:1;fill-rule:nonzero;stroke:none"
         d="m 5767.25,2700.9 c 1.54,0.82 3.13,1.58 4.75,2.24 7.78,-19.06 28.6,-39.05 56.97,-52.17 6.88,-3.19 13.79,-5.72 20.59,-7.72 l 4.02,-18.57 c 5.96,-27.5 -12.51,-54.86 -41.26,-61.08 -28.73,-6.22 -56.86,11.03 -62.81,38.52 l -9.09,41.87 c 12.23,12.61 22.17,32.87 26.83,56.91" /><path
         id="path612"
         style="fill:#15100c;fill-opacity:1;fill-rule:nonzero;stroke:none"
         d="m 5855.99,2139.71 c 0.12,-2 9.75,-3.03 21.5,-2.31 l 133.01,8.28 c 11.75,0.74 21.18,2.95 21.05,4.96 l -0.46,7.58 c -0.11,2 -9.75,3.03 -21.49,2.32 l -133,-8.28 c -11.76,-0.75 -21.18,-2.97 -21.06,-4.96 l 0.45,-7.59" /><path
         id="path614"
         style="fill:#dbdac6;fill-opacity:1;fill-rule:nonzero;stroke:none"
         d="m 5788.77,2346.46 c -3.13,62.8 3.38,88.84 15.75,121.06 3.25,8.48 11.57,17.01 14.41,24.04 -20.27,-126.02 72.75,-71.14 106.24,-9.74 21.09,-19.85 97.02,-33.42 97.19,-37.41 1.74,-43.57 -0.55,-87.17 0.79,-130.77 0.66,-18.54 -9.4,-35.81 -21.52,-48.04 0.98,-3.31 1.64,-6.88 1.79,-10.7 l 2.41,-21.14 c 0.64,-17.44 36.08,-76.92 24.07,-77.74 l -175.01,-9.42 c -11.99,-0.84 -27.74,34.96 -28.39,52.4 l -18.04,85.41 c -0.07,1.52 0.06,2.99 0.14,4.46 -12.87,15.05 -18.8,36.9 -19.83,57.59" /><path
         id="path616"
         style="fill:#ad5c49;fill-opacity:1;fill-rule:nonzero;stroke:none"
         d="m 5929.46,2510.51 c 0,0 69.49,6.89 87.46,-24.74 23.83,-41.88 17.92,-86.7 13.66,-116.59 -4.95,-34.72 -2.85,-79.74 -10.53,-124.57 -9.36,-54.46 35.84,-102.47 26.57,-93.68 -1.86,1.75 -66.59,-7.61 -101.92,8.11 -35.34,15.75 -16.83,85.73 -14.24,105.65 5.86,44.96 -33.83,133.02 -27.63,169 6.58,38.18 26.63,76.82 26.63,76.82" /><path
         id="path618"
         style="fill:#ad5c49;fill-opacity:1;fill-rule:nonzero;stroke:none"
         d="m 5773.85,2423.75 c 1.81,13.73 9.3,28.77 19.84,47.13 3.36,5.88 10.64,12.38 17.92,18 11.34,8.76 10.07,7.58 5.7,-2.71 -8.13,-19.12 -18.34,-56.37 -9.98,-130.62 2.45,-21.75 21.8,-72.16 32.25,-105.42 10.45,-33.26 23.63,-95.51 23.63,-95.51 0,0 -35.24,-10.96 -36.39,-16.51 -1.14,-5.53 4.82,46.6 -11.42,93.41 -39.08,112.55 -49.53,131.55 -41.55,192.23" /><path
         id="path620"
         style="fill:#975140;fill-opacity:1;fill-rule:nonzero;stroke:none"
         d="m 5981.91,2501.35 c -13.27,6.02 -35.71,8.37 -41.61,-20.39 -25.85,-125.97 -41.1,-374.75 -41.1,-374.75 0,0 11.6,-11.98 36.43,-5.58 42.56,10.97 42.62,99.77 79.77,303.98 10.72,58.98 -11.05,86.54 -33.49,96.74" /><path
         id="path622"
         style="fill:#ffffff;fill-opacity:1;fill-rule:nonzero;stroke:none"
         d="m 5790.29,2061.38 c 0,0 -62.4,-52.96 -67.85,-54.97 -5.42,-2.02 -9.11,0.27 -21.9,0.88 -12.76,0.62 -15.16,0.13 -25.23,0.03 -10.15,-0.1 -11.3,-0.38 -11.3,-0.38 0,0 0.83,-5.62 4.78,-6.55 3.54,-0.83 12.13,-0.69 15.09,-1.49 2.99,-0.81 -7.18,-0.22 -21.86,-3.6 -14.65,-3.34 -28.66,-8.5 -34.54,-11.14 -3.73,-1.64 -4.23,-1.94 -4.19,-2.16 0.26,-1.8 0.66,-3.45 2.49,-3.52 1.61,-0.06 7.21,1.17 6.91,0.86 -1.15,-1.2 -9.55,-5.43 -11.02,-6.04 -1.54,-0.6 -3.68,-1.42 -4.94,-2.05 -2.6,-1.39 -0.87,-4.49 4.07,-5.16 0.08,0 1.46,-2.17 2.95,-2.44 l 2.12,-0.4 2.73,-0.03 c 3.31,-0.28 6.58,-0.22 9.7,0 1.26,0.1 12.23,2.56 12.33,1.88 l -8.18,-3.89 c 0.57,-1.42 2.49,-3.04 4.03,-2.67 2.78,0.65 6.98,1.56 18.4,4.73 12.6,3.45 15.09,5.16 31.81,5.53 14.6,0.32 18.87,3.39 27.04,10.8 28.07,25.56 89.49,48.67 97.84,56.01 8.35,7.36 -31.28,25.77 -31.28,25.77" /><path
         id="path624"
         style="fill:#975140;fill-opacity:1;fill-rule:nonzero;stroke:none"
         d="m 5803.32,2009.29 c -14.89,8.38 -15.36,27.4 -24.57,48.11 43.23,32.86 74.41,64.49 122.24,95.13 17.81,11.42 57.14,-0.79 62.32,-13.95 8.75,-22.28 -64.5,-71.86 -101.52,-93.58 -21.27,-12.46 -42.66,-31.05 -58.47,-35.71" /><path
         id="path626"
         style="fill:#cdd5d7;fill-opacity:1;fill-rule:nonzero;stroke:none"
         d="m 5849.95,1961.51 h -337.78 v 6.95 h 337.78 v -6.95" /><path
         id="path628"
         style="fill:#cdd5d7;fill-opacity:1;fill-rule:nonzero;stroke:none"
         d="m 5700.86,1968.89 c -0.01,-5.4 -3.83,-9.77 -8.53,-9.77 H 5519.1 c -4.71,0 -11.12,3.44 -16.87,17.09 l -85.63,156.37 c 0,6.79 5.28,10.88 9.99,9.79 l 177.73,-5.36 c 4.72,-1.08 8.56,-4.71 11.21,-11.81 l 85.33,-156.31" /><path
         id="path630"
         style="fill:#b7bec0;fill-opacity:1;fill-rule:nonzero;stroke:none"
         d="m 5679.91,1961.51 h 170.87 c -6.07,-3.21 -16.18,-5.33 -27.66,-5.33 h -141.46 -1.75 -141.46 c -11.48,0 -21.59,2.12 -27.66,5.33 h 169.12" /><path
         id="path632"
         style="fill:#ffffff;fill-opacity:1;fill-rule:nonzero;stroke:none"
         d="m 6823.17,3164.93 c 0,-25.93 -21,-46.92 -46.92,-46.92 H 5480.33 c -25.92,0 -46.92,20.99 -46.92,46.92 v 907.14 c 0,25.92 21,46.92 46.92,46.92 h 1295.92 c 25.92,0 46.92,-21 46.92,-46.92 v -907.14" /><path
         id="path634"
         style="fill:#ffffff;fill-opacity:1;fill-rule:nonzero;stroke:none"
         d="m 6499.6,3580.69 c 66.33,10.11 130.84,-0.44 186.7,-26.65 -8.51,-0.62 -299.16,-113.6 -261.72,-365.02 15.43,-103.53 51.65,-175.65 141.83,-217.96 -163.4,-12.05 -310.3,99.13 -334.56,258.39 -25.53,167.58 94.35,324.83 267.75,351.24" /><path
         id="path636"
         style="fill:#dbe4e9;fill-opacity:1;fill-rule:nonzero;stroke:none"
         d="m 5697.06,3965.94 c 0,-39.49 -32.01,-71.51 -71.5,-71.51 -39.49,0 -71.49,32.02 -71.49,71.51 0,39.49 32,71.49 71.49,71.49 39.49,0 71.5,-32 71.5,-71.49" /><path
         id="path638"
         style="fill:#c4d1e1;fill-opacity:1;fill-rule:nonzero;stroke:none"
         d="m 6496.96,3914.55 h -737.34 v 31.28 h 737.34 v -31.28" /><path
         id="path640"
         style="fill:#c4d1e1;fill-opacity:1;fill-rule:nonzero;stroke:none"
         d="m 6175.21,3986.04 h -415.59 v 31.29 h 415.59 v -31.29" /><path
         id="path642"
         style="fill:#b0bfde;fill-opacity:1;fill-rule:nonzero;stroke:none"
         d="M 6711.45,3234.6 H 5557.97 v 589.35 H 6711.45 V 3234.6" /><path
         id="path644"
         style="fill:#ffffff;fill-opacity:1;fill-rule:nonzero;stroke:none"
         d="m 6192.32,3529.27 -72.4,-41.77 -72.43,-41.85 v 167.22 l 72.43,-41.78 72.4,-41.82" /><path
         id="path646"
         style="fill:#9eabc7;fill-opacity:1;fill-rule:nonzero;stroke:none"
         d="m 7250.21,1757.15 192.03,96.63 -119.75,-398.73 -192.04,-96.63 119.76,398.73" /><path
         id="path648"
         style="fill:#b0bfde;fill-opacity:1;fill-rule:nonzero;stroke:none"
         d="m 7337.24,2047.83 192.03,96.63 450.8,-36.89 -192.03,-96.63 -450.8,36.89" /><path
         id="path650"
         style="fill:#9eabc7;fill-opacity:1;fill-rule:nonzero;stroke:none"
         d="m 7556.06,2774.03 192.04,96.63 -218.83,-726.2 -192.03,-96.63 218.82,726.2" /><path
         id="path652"
         style="fill:#bcd0e2;fill-opacity:1;fill-rule:nonzero;stroke:none"
         d="m 7337.24,2047.83 450.8,-36.89 -224.59,762.49 -7.39,0.6 -218.82,-726.2 m 404.72,1154.63 621.73,-1944.98 -362.38,29.66 -123.47,418.64 -627.63,51.37 -119.76,-398.73 -362.3,29.66 606.52,1844.45 367.29,-30.07" /><path
         id="path654"
         style="fill:#ffffff;fill-opacity:1;fill-rule:nonzero;stroke:none"
         d="m 7741.96,3202.46 192.03,96.63 621.73,-1944.98 -192.03,-96.63 -621.73,1944.98" /><path
         id="path656"
         style="fill:#b0bfde;fill-opacity:1;fill-rule:nonzero;stroke:none"
         d="m 7374.67,3232.53 192.03,96.63 367.29,-30.07 -192.03,-96.63 -367.29,30.07" /><path
         id="path658"
         style="fill:#975140;fill-opacity:1;fill-rule:nonzero;stroke:none"
         d="m 6719.58,1326.79 -4.78,-56.55 -46.08,1.86 c 0,0 -2.28,7.16 -6.18,7.31 -3.27,0.13 -7.81,-6.75 -12.27,-6.58 -9.7,0.39 -20.45,0.83 -24.76,1 -8.65,0.35 -92.49,3.71 -92.49,3.71 0,0 -1.66,10.58 1.03,14.08 1.38,1.82 9.21,4.74 14.41,6.11 24.12,6.44 93.17,26.75 106.04,51.41 15.63,29.98 65.08,-22.35 65.08,-22.35" /><path
         id="path660"
         style="fill:#ffffff;fill-opacity:1;fill-rule:nonzero;stroke:none"
         d="m 6533.1,1289.44 c -1.23,-4.46 -0.08,-11.9 -0.08,-11.9 0,0 83.84,-3.36 92.49,-3.71 4.31,-0.17 15.06,-0.61 24.76,-1 4.46,-0.17 9,6.71 12.27,6.58 3.9,-0.15 6.18,-7.31 6.18,-7.31 l 46.08,-1.86 2.56,11.81 -184.26,7.39" /><path
         id="path662"
         style="fill:#ffffff;fill-opacity:1;fill-rule:nonzero;stroke:none"
         d="m 6619.35,1308.2 c -1.06,-1.44 -3.65,0.35 -7.01,3.42 -8.12,7.42 -7.37,6.62 -5.15,7.71 1.54,0.77 3.36,1.5 8.03,-2.95 3.31,-3.15 5.22,-6.74 4.13,-8.18" /><path
         id="path664"
         style="fill:#ffffff;fill-opacity:1;fill-rule:nonzero;stroke:none"
         d="m 6632.08,1313.77 c -1.09,-1.47 -3.68,0.34 -7.03,3.39 -8.12,7.44 -7.37,6.62 -5.16,7.7 1.55,0.76 3.37,1.52 8.06,-2.96 3.29,-3.13 5.2,-6.74 4.13,-8.13" /><path
         id="path666"
         style="fill:#ffffff;fill-opacity:1;fill-rule:nonzero;stroke:none"
         d="m 6643.8,1320.18 c -1.09,-1.45 -3.68,0.33 -7.01,3.4 -8.13,7.44 -7.4,6.63 -5.17,7.72 1.54,0.76 3.37,1.49 8.04,-2.96 3.3,-3.15 5.21,-6.74 4.14,-8.16" /><path
         id="path668"
         style="fill:#975140;fill-opacity:1;fill-rule:nonzero;stroke:none"
         d="m 7066.73,1255.68 c 3.24,-6.04 0.3,-19.75 0.3,-19.75 0,0 -71.26,-5.88 -93.86,0.96 -5.87,1.79 -15.66,7.8 -24.85,14.18 -1.55,1.06 -4.13,7.19 -5.62,8.27 -2.78,1.97 -4.4,-1.1 -6.78,0.7 -6.14,4.64 -10.44,8.25 -10.5,8.69 -4.79,36.17 4.08,50.31 4.08,50.31 0,0 46.34,20.33 57.01,4.45 25.16,-37.46 70.9,-50.31 80.22,-67.81" /><path
         id="path670"
         style="fill:#ffffff;fill-opacity:1;fill-rule:nonzero;stroke:none"
         d="m 7068.48,1247.91 c -22.01,-2.23 -68.2,-6.56 -76.61,-4.51 -34.35,8.3 -54.24,29.24 -67.8,42.16 0.13,-4.98 0.52,-10.55 1.35,-16.83 0.06,-0.44 4.36,-4.05 10.5,-8.69 2.38,-1.8 4,1.27 6.78,-0.7 1.49,-1.08 4.07,-7.21 5.62,-8.27 9.19,-6.38 18.98,-12.39 24.85,-14.18 22.6,-6.84 93.86,-0.96 93.86,-0.96 0,0 1.51,6.18 1.45,11.98" /><path
         id="path672"
         style="fill:#ffffff;fill-opacity:1;fill-rule:nonzero;stroke:none"
         d="m 7031.29,1283.55 c 0.24,-1.56 -2.75,-2.29 -6.7,-1.9 -8.02,0.77 -16.21,0.65 -24.46,-0.34 -4.07,-0.49 -7.48,0.22 -7.58,1.87 -0.09,1.66 3.11,3.63 7.13,4.09 8.14,0.88 16.25,0.92 24.14,0.07 3.89,-0.39 7.2,-2.25 7.47,-3.79" /><path
         id="path674"
         style="fill:#ffffff;fill-opacity:1;fill-rule:nonzero;stroke:none"
         d="m 7018.07,1294.76 c 0.17,-1.6 -2.86,-2.65 -6.81,-2.65 -7.97,0.01 -16.09,-0.86 -24.21,-2.61 -4.03,-0.85 -7.39,-0.41 -7.42,1.3 -0.05,1.7 3.15,4.02 7.12,4.82 8.05,1.65 16.08,2.43 23.96,2.34 3.88,-0.04 7.14,-1.63 7.36,-3.2" /><path
         id="path676"
         style="fill:#ffffff;fill-opacity:1;fill-rule:nonzero;stroke:none"
         d="m 7005.19,1305.06 c 0.15,-1.64 -2.92,-3.03 -6.84,-3.38 -7.93,-0.73 -15.95,-2.31 -23.96,-4.81 -3.96,-1.21 -7.23,-1.01 -7.23,0.77 -0.02,1.75 3.16,4.39 7.07,5.54 7.95,2.37 15.9,3.85 23.73,4.5 3.87,0.32 7.09,-1.02 7.23,-2.62" /><path
         id="path678"
         style="fill:#ffffff;fill-opacity:1;fill-rule:nonzero;stroke:none"
         d="m 6648.9,2695.25 9.22,43.29 3.58,24.9 -0.1,33.65 c 0,0 -9.7,13.84 -15.64,-17.85 -0.91,-4.79 -6.22,32.95 -6.22,32.95 l -6.72,26.17 -9.31,4.29 -21.78,-12.42 c 0,0 1.5,-11.95 19.02,-6.68 1.87,0.57 2.01,-21.71 2.01,-21.71 l -24.01,-32.1 c 0,0 -5.11,-17.06 1.35,-24.91 6.49,-7.85 6.49,-7.85 6.49,-7.85 l 2.89,2.92 0.31,-33.34 c 0,0 2.23,-13.16 13.14,-19.01 10.88,-5.85 4,-18.04 4,-18.04 l 21.77,25.74" /><path
         id="path680"
         style="fill:#975140;fill-opacity:1;fill-rule:nonzero;stroke:none"
         d="m 6683.96,2440.72 c 0,0 48.02,87.4 38.46,120.63 -9.59,33.2 -51.01,155.3 -51.01,155.3 l -58.39,-28.92 c 0,0 30.98,-238.04 43.19,-254.57 12.21,-16.52 24.11,2.69 27.75,7.56" /><path
         id="path682"
         style="fill:#163f59;fill-opacity:1;fill-rule:nonzero;stroke:none"
         d="m 6628.33,1333.46 93.94,-6.94 16.74,985.96 -197.14,67.79 c 0,0 5.58,-643.25 86.46,-1046.81" /><path
         id="path684"
         style="fill:#194866;fill-opacity:1;fill-rule:nonzero;stroke:none"
         d="m 6815.21,2290.5 206.43,-991.89 -111.29,1.35 -320.78,1059.49 225.64,-68.95" /><path
         id="path686"
         style="fill:#194866;fill-opacity:1;fill-rule:nonzero;stroke:none"
         d="m 6738.89,2305.84 -15.48,12 -181.54,62.43 c 0,0 0.58,-65.36 3.96,-167.46 l 189.44,-119.78 3.62,212.81" /><path
         id="path688"
         style="fill:#163f59;fill-opacity:1;fill-rule:nonzero;stroke:none"
         d="m 6816,2287.05 -0.79,3.45 -110.44,33.76 -162.9,56.01 c 0,0 0.09,-11.67 0.47,-32.79 L 6816,2287.05" /><path
         id="path690"
         style="fill:#ad5c49;fill-opacity:1;fill-rule:nonzero;stroke:none"
         d="m 6951.98,2805.14 c 0,0 -104.35,79.8 -206.31,-42.17 -101.98,-121.99 -213.8,-380.4 -213.8,-380.4 l 291.25,-108.15 111.3,377.99 c 0,0 58.35,125.85 17.56,152.73" /><path
         id="path692"
         style="fill:#975140;fill-opacity:1;fill-rule:nonzero;stroke:none"
         d="m 6952.71,2799.81 c 0,0 33.38,1.81 15.09,-98.3 -18.29,-100.13 -61.31,-294.89 -79.46,-343.55 -4.47,-12.04 -22.73,-68.44 -47,-32.78 -24.25,35.64 -36.01,169.57 14.6,339.85 32.45,109.17 79.68,135.48 96.77,134.78" /><path
         id="path694"
         style="fill:#161711;fill-opacity:1;fill-rule:nonzero;stroke:none"
         d="m 6564.04,2647.4 -5.75,-6.22 18.68,-68.06 42.27,-14.46 10.26,8.68 -13.91,61.02 -51.55,19.04" /><path
         id="path696"
         style="fill:#ffffff;fill-opacity:1;fill-rule:nonzero;stroke:none"
         d="m 6707.99,2552.36 -61.06,38.84 -24.54,4.65 5.71,-22.08 -25.04,-8.09 -24.31,10.07 -10.9,16.82 -5.65,-17.96 c 0,0 1.3,-9.15 7.58,-16.7 6.27,-7.52 27.71,-48.42 27.71,-48.42 l 18.27,2.91 41.57,9.26 25.53,-21.05 25.13,51.75" /><path
         id="path698"
         style="fill:#975140;fill-opacity:1;fill-rule:nonzero;stroke:none"
         d="m 6870.52,2340.81 c 0,0 -9.24,101.24 -35.1,121.19 -25.84,19.93 -125.85,89.11 -125.85,89.11 l -31.04,-61.8 c 0,0 155.06,-168.03 173.88,-173 18.84,-4.96 17.86,18.2 18.11,24.5" /><path
         id="path700"
         style="fill:#ffffff;fill-opacity:1;fill-rule:nonzero;stroke:none"
         d="m 6809.55,2787.33 64.5,13.82 -21.59,127.74 -64.52,-13.85 21.61,-127.71" /><path
         id="path702"
         style="fill:#163f59;fill-opacity:1;fill-rule:nonzero;stroke:none"
         d="m 6744.72,2960.72 c 1.87,-15.24 14.59,-25.88 28.41,-23.71 l 94.67,14.85 c 13.86,2.17 23.56,16.3 21.7,31.55 -1.85,15.25 -14.58,25.88 -28.43,23.71 l -94.66,-14.83 c -13.83,-2.17 -23.54,-16.31 -21.69,-31.57" /><path
         id="path704"
         style="fill:#163f59;fill-opacity:1;fill-rule:nonzero;stroke:none"
         d="m 6767.91,2915.55 c 3.43,-28.19 26.93,-47.8 52.5,-43.77 l 49.4,7.71 c 25.55,4.01 43.52,30.12 40.1,58.31 -3.43,28.17 -26.94,47.79 -52.51,43.8 l -49.4,-7.76 c -25.57,-4.02 -43.51,-30.11 -40.09,-58.29" /><path
         id="path706"
         style="fill:#ffffff;fill-opacity:1;fill-rule:nonzero;stroke:none"
         d="m 6740.67,2827.99 -19.39,159.61 c -3.11,25.42 18.69,2.94 41.74,6.56 l 22.27,3.47 c 23.07,3.62 44.27,-14.08 47.36,-39.49 l 13.82,-113.56 -105.8,-16.59" /><path
         id="path708"
         style="fill:#ffffff;fill-opacity:1;fill-rule:nonzero;stroke:none"
         d="m 6818.54,2919.62 c 1.35,-11.18 10.67,-18.95 20.81,-17.34 10.12,1.57 17.23,11.92 15.86,23.07 -1.34,11.17 -10.66,18.95 -20.81,17.36 -10.11,-1.6 -17.21,-11.92 -15.86,-23.09" /><path
         id="path710"
         style="fill:#ffffff;fill-opacity:1;fill-rule:nonzero;stroke:none"
         d="m 6746.68,2879.9 c 0.79,-6.49 -3.19,-12.46 -8.85,-13.35 l -8.57,-1.35 c -5.69,-0.86 -10.92,3.65 -11.7,10.12 0,0 11.41,63.55 17.08,64.45 0,0 5.3,-4.54 6.09,-11.02 l 5.95,-48.85" /><path
         id="path712"
         style="fill:#163f59;fill-opacity:1;fill-rule:nonzero;stroke:none"
         d="m 6798.08,2845.87 c 41.75,6.54 44.4,21.36 43.64,37.69 0,0 16.05,-38.68 17.65,-51.71 l 1.76,-14.52 c 3.41,-28.07 -20,-54.93 -52.28,-59.99 l -58.47,-9.15 -8.72,71.6 -2.06,16.93 58.48,9.15" /><path
         id="path714"
         style="fill:#163f59;fill-opacity:1;fill-rule:nonzero;stroke:none"
         d="m 6736.01,2866.36 33.41,5.22 c 15.37,2.43 29.5,-9.35 31.56,-26.31 0.33,-2.67 0.24,-5.28 -0.05,-7.84 l -60.26,-9.44 -4.66,38.37" /><path
         id="path716"
         style="fill:#ffffff;fill-opacity:1;fill-rule:nonzero;stroke:none"
         d="m 6783.08,2840.9 1.24,-10.25 c 0.36,-2.81 -1.44,-5.43 -4.02,-5.85 l -27.06,-4.23 c -2.56,-0.38 -4.91,1.58 -5.26,4.39 l -1.24,10.23 36.34,5.71" /><path
         id="path718"
         style="fill:#163f59;fill-opacity:1;fill-rule:nonzero;stroke:none"
         d="m 6732.22,3018.19 85.66,13.42 c 9.23,1.47 17.69,-5.61 18.92,-15.79 l 4.49,-36.84 -102.34,-16.05 -6.73,55.26" /><path
         id="path720"
         style="fill:#163f59;fill-opacity:1;fill-rule:nonzero;stroke:none"
         d="m 6682.51,2982.36 c 1.86,-15.35 14.68,-26.03 28.58,-23.83 l 57.99,9.05 c 13.94,2.21 23.73,16.42 21.86,31.78 -1.87,15.36 -14.68,26.05 -28.61,23.86 l -57.99,-9.08 c -13.92,-2.17 -23.71,-16.4 -21.83,-31.78" /><path
         id="path722"
         style="fill:#163f59;fill-opacity:1;fill-rule:nonzero;stroke:none"
         d="m 6806.56,2987.09 23.15,3.61 8.18,-67.16 -23.17,-3.64 -8.16,67.19" /><path
         id="path724"
         style="fill:#163f59;fill-opacity:1;fill-rule:nonzero;stroke:none"
         d="m 6750.84,3007.81 68.15,10.67 9.62,-79.11 -68.16,-10.66 -9.61,79.1" /><path
         id="path726"
         style="fill:#ffffff;fill-opacity:1;fill-rule:nonzero;stroke:none"
         d="m 6812.79,2935.86 c -2.56,20.97 -20.06,35.57 -39.1,32.58 l -17.77,-2.78 c -19.04,-2.98 -27.16,-21.58 -24.61,-42.58 2.57,-20.98 20.06,-35.58 39.1,-32.59 l 12.53,1.95 c 19.05,2.98 32.4,22.43 29.85,43.42" /></g></g></svg>
