<?xml version="1.0" encoding="utf-8"?>
<!-- Generator: Adobe Adobe Illustrator 24.2.0, SVG Export Plug-In . SVG Version: 6.00 Build 0)  -->
<svg version="1.1" xmlns="http://www.w3.org/2000/svg" xmlns:xlink="http://www.w3.org/1999/xlink" x="0px" y="0px"
	 viewBox="0 0 2110 520" style="enable-background:new 0 0 2110 520;" xml:space="preserve">
<style type="text/css">
	.st0{fill:#88C2D1;}
	.st1{fill:none;stroke:#8CC63F;stroke-miterlimit:10;}
	.st2{opacity:0.6;fill:#03689E;}
	.st3{opacity:0.502;fill:#03689E;}
	.st4{opacity:0.702;fill:#03689E;}
	.st5{opacity:0.4;fill:#03689E;}
	.st6{opacity:0.8;fill:#03689E;}
	.st7{opacity:0.302;fill:#03689E;}
	.st8{fill:#03689E;}
	.st9{opacity:0.2;fill:#03689E;}
	.st10{opacity:0.102;fill:#03689E;}
	.st11{opacity:0.1608;fill:#A4D7DE;}
	.st12{opacity:0.302;fill:#A4D7DE;}
	.st13{fill:#A4D7DE;}
	.st14{opacity:0.4;fill:#A4D7DE;}
	.st15{opacity:0.502;fill:#A4D7DE;}
	.st16{opacity:0.6;fill:#A4D7DE;}
	.st17{opacity:0.702;fill:#A4D7DE;}
	.st18{opacity:0.8;fill:#A4D7DE;}
	.st19{opacity:0.902;fill:#A4D7DE;}
	.st20{fill:#33789E;}
	.st21{fill:#8CC63F;}
	.st22{fill:none;stroke:#8CC63F;stroke-width:2;stroke-miterlimit:10;}
</style>
<g id="Ebene_17">
</g>
<g id="Symbole">
</g>
<g id="Ebene_1">
	<g id="Ebene_5">
	</g>
</g>
<g id="Wurzel_1_">
</g>
<g id="Taschenrechner">
</g>
<g id="Mensch">
</g>
<g id="Gesicht">
</g>
<g id="Ebene_8">
</g>
<g id="Lampe">
</g>
<g id="Form">
</g>
<g id="Fläche">
</g>
<g id="Wurzel">
</g>
<g id="Geometrie">
</g>
<g id="Lupe_1_">
	<g id="Lupe">
	</g>
</g>
<g id="Zirkel">
</g>
<g id="Ebene_18">
</g>
<g id="Ebene_19">
	<g>
		<path class="st0" d="M2077.32,337.54l-2.86-1.17c2.32-5.67,4.35-11.51,6.03-17.36l2.97,0.85
			C2081.75,325.81,2079.68,331.76,2077.32,337.54z"/>
		<path class="st0" d="M2087.62,301.6l-3.05-0.52c1.02-5.98,1.74-12.13,2.12-18.27l3.09,0.19
			C2089.39,289.26,2088.66,295.51,2087.62,301.6z"/>
		<path class="st0" d="M2086.91,264.41c-0.23-6.06-0.78-12.23-1.61-18.34l3.07-0.42c0.84,6.21,1.39,12.48,1.63,18.64L2086.91,264.41
			z"/>
		<path class="st0" d="M2081.98,227.96c-1.37-5.92-3.03-11.89-4.93-17.75l2.94-0.96c1.93,5.94,3.62,12,5,18.01L2081.98,227.96z"/>
		<g>
			<g>
				<path class="st1" d="M858.18,389.77"/>
				<circle class="st1" cx="1649.28" cy="60.36" r="4.75"/>
				<circle class="st1" cx="1649.28" cy="82.13" r="4.75"/>
				<path class="st2" d="M417.47,477.21l-0.25-3.08c6.13-0.5,12.27-1.3,18.25-2.37l0.55,3.05
					C429.93,475.89,423.69,476.7,417.47,477.21z"/>
				<path class="st3" d="M361.63,474.25c-6.05-1.11-12.18-2.48-18.22-4.08l0.79-2.99c5.96,1.58,12.02,2.94,17.98,4.03L361.63,474.25
					z"/>
				<path class="st4" d="M454.24,470.6l-0.84-2.98c5.88-1.66,11.75-3.64,17.44-5.87l1.13,2.88
					C466.19,466.91,460.22,468.92,454.24,470.6z"/>
				<path class="st5" d="M325.56,464.69c-5.83-2.03-11.69-4.31-17.4-6.78l1.23-2.84c5.65,2.44,11.43,4.69,17.19,6.7L325.56,464.69z"
					/>
				<path class="st6" d="M489.03,456.96l-1.41-2.76c5.41-2.76,10.78-5.83,15.98-9.13l1.66,2.61
					C499.99,451.04,494.52,454.16,489.03,456.96z"/>
				<path class="st7" d="M291.29,449.89c-5.52-2.87-10.99-5.97-16.25-9.21l1.62-2.64c5.2,3.2,10.6,6.26,16.06,9.1L291.29,449.89z"/>
				<path class="st8" d="M520.58,436.96l-1.89-2.45c4.79-3.68,9.54-7.66,14.12-11.84l2.08,2.29
					C530.25,429.19,525.44,433.23,520.58,436.96z"/>
				<path class="st9" d="M259.5,430.31c-5.11-3.7-10.06-7.59-14.69-11.56l2.01-2.35c4.57,3.91,9.45,7.75,14.49,11.4L259.5,430.31z"
					/>
				<path class="st8" d="M548.2,411.85l-2.25-2.12c3.44-3.65,6.86-7.51,10.16-11.47c0.68-0.81,1.34-1.61,2-2.41l2.39,1.97
					c-0.66,0.8-1.34,1.61-2.02,2.43C555.14,404.25,551.68,408.15,548.2,411.85z"/>
				<path class="st10" d="M231.16,405.96c-4.51-4.65-8.65-9.4-12.3-14.13l2.45-1.89c3.58,4.64,7.64,9.3,12.07,13.87L231.16,405.96z"
					/>
				<path class="st8" d="M572.1,383.27l-2.45-1.89c3.63-4.72,7.25-9.58,11.05-14.85l2.51,1.81
					C579.38,373.64,575.75,378.52,572.1,383.27z"/>
				<path class="st8" d="M593.92,353.17l-2.54-1.76c1.87-2.69,3.71-5.35,5.54-8.01c1.67-2.43,3.34-4.84,5.01-7.25l2.54,1.76
					c-1.67,2.41-3.34,4.82-5.01,7.25C597.63,347.81,595.78,350.48,593.92,353.17z"/>
				<path class="st8" d="M637.93,293.66l-2.35-2.01c3.98-4.66,8.16-9.34,12.41-13.89l2.26,2.11
					C646.03,284.39,641.89,289.03,637.93,293.66z"/>
				<path class="st8" d="M663.37,266.94l-2.06-2.31c4.44-3.97,9.3-7.96,14.44-11.87l1.87,2.46
					C672.55,259.09,667.75,263.03,663.37,266.94z"/>
				<path class="st8" d="M1016.7,254.71c-4.55,0-8.68-0.09-12.62-0.27l0.14-3.09c3.9,0.18,7.98,0.26,12.48,0.26
					c2,0,3.99-0.02,5.99-0.05l0.05,3.09C1020.73,254.69,1018.71,254.71,1016.7,254.71z"/>
				<path class="st8" d="M1041.33,254.13l-0.11-3.09c6.13-0.21,12.47-0.44,18.59-0.52l0.04,3.09
					C1053.76,253.7,1047.44,253.92,1041.33,254.13z"/>
				<path class="st8" d="M985.45,252.71c-6.56-0.98-12.56-2.3-18.33-4.04l0.9-2.96c5.63,1.7,11.48,2.99,17.89,3.95L985.45,252.71z"
					/>
				<path class="st8" d="M692.7,244.56l-1.71-2.58c5.09-3.37,10.43-6.67,15.87-9.82l1.55,2.68
					C703.03,237.96,697.75,241.23,692.7,244.56z"/>
				<path class="st8" d="M949.66,241.68c-4.82-2.38-9.92-5.04-16.52-8.6l1.47-2.72c6.57,3.54,11.64,6.18,16.42,8.54L949.66,241.68z"
					/>
				<path class="st8" d="M724.65,226.01l-1.4-2.76c5.55-2.82,11.22-5.52,16.86-8l1.25,2.83
					C735.77,220.54,730.15,223.21,724.65,226.01z"/>
				<path class="st8" d="M916.82,224.21c-4.47-2.42-10.38-5.59-16.4-8.6l1.39-2.77c6.06,3.04,11.99,6.22,16.48,8.65L916.82,224.21z"
					/>
				<path class="st8" d="M758.47,211.1l-1.08-2.9c5.93-2.21,11.88-4.23,17.69-5.98l0.89,2.96
					C770.23,206.92,764.34,208.91,758.47,211.1z"/>
				<path class="st8" d="M883.68,207.84c-6.07-2.56-11.72-4.62-17.28-6.31l0.9-2.96c5.66,1.72,11.41,3.82,17.58,6.42L883.68,207.84z
					"/>
				<path class="st8" d="M793.82,200.51l-0.67-3.02c6.3-1.39,12.5-2.48,18.43-3.23l0.39,3.07
					C806.14,198.06,800.03,199.13,793.82,200.51z"/>
				<path class="st8" d="M848.56,197.39c-1.51-0.23-3.02-0.44-4.54-0.61c-4.14-0.47-8.52-0.71-13.04-0.71l-0.67,0l-0.02-3.09l0.69,0
					c4.63,0,9.14,0.25,13.39,0.73c1.56,0.18,3.12,0.39,4.66,0.63L848.56,197.39z"/>
				<path class="st11" d="M86.48,500.47l-2.7-1.5c3-5.4,6.24-10.78,9.62-16l2.6,1.68C92.65,489.81,89.45,495.14,86.48,500.47z"/>
				<path class="st12" d="M106.55,469.51l-2.48-1.85c3.7-4.95,7.63-9.85,11.66-14.57l2.35,2.01
					C114.09,459.77,110.21,464.62,106.55,469.51z"/>
				<path class="st13" d="M648.41,468.7c-3.71,0-7.44-0.1-11.08-0.3l0.17-3.09c6.01,0.32,12.21,0.38,18.41,0.16l0.11,3.09
					C653.48,468.65,650.92,468.7,648.41,468.7z"/>
				<path class="st13" d="M674.64,467.13l-0.36-3.07c5.96-0.7,12.09-1.64,18.22-2.81l0.58,3.04
					C686.88,465.47,680.68,466.43,674.64,467.13z"/>
				<path class="st13" d="M618.72,466.5c-6.19-0.94-12.36-2.2-18.34-3.74l0.77-3c5.88,1.52,11.94,2.75,18.03,3.68L618.72,466.5z"/>
				<path class="st13" d="M711.28,460.19l-0.77-3c5.81-1.5,11.78-3.23,17.74-5.14l0.94,2.95
					C723.17,456.93,717.15,458.68,711.28,460.19z"/>
				<path class="st13" d="M582.52,457.14c-5.58-2.08-11.37-4.56-17.18-7.37l1.34-2.79c5.73,2.77,11.43,5.21,16.92,7.26
					L582.52,457.14z"/>
				<path class="st13" d="M746.79,448.87l-1.09-2.9c5.63-2.12,11.4-4.44,17.16-6.9l1.22,2.85
					C758.27,444.4,752.46,446.74,746.79,448.87z"/>
				<path class="st14" d="M130.54,441.47l-2.22-2.16c4.32-4.43,8.84-8.79,13.45-12.94l2.07,2.3
					C139.29,432.78,134.81,437.09,130.54,441.47z"/>
				<path class="st13" d="M548.84,441.05c-4.96-2.83-10.18-5.98-15.96-9.63l1.65-2.62c5.73,3.62,10.91,6.75,15.84,9.55
					L548.84,441.05z"/>
				<path class="st13" d="M781.05,434.25l-1.33-2.79c5.44-2.58,11.02-5.36,16.58-8.24l1.42,2.75
					C792.13,428.86,786.52,431.65,781.05,434.25z"/>
				<path class="st13" d="M517.28,421.3l-6.44-4.27c-3.01-2-6.02-4-9.04-5.99l1.7-2.58c3.02,1.99,6.04,3.99,9.05,5.99l6.43,4.27
					L517.28,421.3z"/>
				<path class="st13" d="M814.12,417.12l-1.51-2.7c5.26-2.93,10.66-6.05,16.06-9.26l1.58,2.66
					C824.83,411.05,819.4,414.18,814.12,417.12z"/>
				<path class="st15" d="M157.94,416.75l-1.92-2.43c4.86-3.85,9.9-7.59,14.99-11.12l1.76,2.54
					C167.74,409.24,162.75,412.94,157.94,416.75z"/>
				<path class="st13" d="M486.23,401.01c-5.71-3.56-10.91-6.65-15.9-9.44l1.51-2.7c5.03,2.81,10.27,5.92,16.03,9.51L486.23,401.01z
					"/>
				<path class="st16" d="M188.28,395.72l-1.6-2.65c5.32-3.2,10.8-6.26,16.29-9.1l1.42,2.75
					C198.96,389.53,193.54,392.56,188.28,395.72z"/>
				<path class="st13" d="M453.93,383.1c-5.52-2.62-11.22-5.09-16.93-7.35l1.14-2.88c5.78,2.28,11.54,4.78,17.12,7.43L453.93,383.1z
					"/>
				<path class="st17" d="M221.07,378.79l-1.24-2.84c5.7-2.48,11.54-4.8,17.35-6.88l1.04,2.91
					C232.48,374.04,226.7,376.33,221.07,378.79z"/>
				<path class="st13" d="M877.55,378.33l-1.66-2.61c5.22-3.32,10.45-6.64,15.68-9.95l1.65,2.62
					C887.99,371.69,882.77,375.01,877.55,378.33z"/>
				<path class="st13" d="M419.61,369.54c-5.82-1.87-11.8-3.57-17.76-5.06l0.75-3c6.02,1.51,12.06,3.23,17.95,5.11L419.61,369.54z"
					/>
				<path class="st18" d="M255.8,366.35l-0.84-2.98c5.94-1.68,12.04-3.19,18.12-4.47l0.64,3.03
					C267.7,363.2,261.67,364.69,255.8,366.35z"/>
				<path class="st13" d="M383.81,360.58c-6.03-1.1-12.17-2.02-18.26-2.74l0.36-3.07c6.16,0.72,12.36,1.65,18.46,2.77L383.81,360.58
					z"/>
				<path class="st19" d="M291.9,358.71l-0.44-3.06c6.12-0.87,12.36-1.55,18.55-2.03l0.24,3.09
					C304.12,357.18,297.95,357.85,291.9,358.71z"/>
				<path class="st13" d="M908.96,358.54l-1.63-2.63c5.67-3.51,10.87-6.67,15.88-9.67l1.59,2.66
					C919.8,351.89,914.62,355.04,908.96,358.54z"/>
				<path class="st13" d="M347.15,356.28c-6.13-0.32-12.33-0.45-18.46-0.38l-0.04-3.09c6.2-0.07,12.46,0.06,18.66,0.39
					L347.15,356.28z"/>
				<path class="st13" d="M940.8,339.54l-1.53-2.69c5.58-3.18,11.06-6.2,16.29-9l1.46,2.73
					C951.81,333.37,946.36,336.38,940.8,339.54z"/>
				<path class="st13" d="M973.5,322.14l-1.36-2.78c5.71-2.8,11.39-5.45,16.89-7.87l1.25,2.83
					C984.81,316.73,979.17,319.36,973.5,322.14z"/>
				<path class="st13" d="M1007.36,307.28l-1.11-2.89c5.89-2.26,11.81-4.35,17.58-6.21l0.95,2.95
					C1019.06,302.96,1013.2,305.04,1007.36,307.28z"/>
				<path class="st13" d="M1042.52,296l-0.76-3c6.08-1.55,12.21-2.89,18.22-4l0.56,3.04C1054.59,293.14,1048.53,294.47,1042.52,296z
					"/>
				<path class="st0" d="M1837.66,474.78c-2.06,0-4.12-0.02-6.18-0.05l0.05-3.09c6.18,0.1,12.41,0.05,18.49-0.15l0.1,3.09
					C1846.02,474.71,1841.83,474.78,1837.66,474.78z"/>
				<path class="st0" d="M1812.86,474.01c-6.08-0.37-12.32-0.88-18.57-1.51l0.31-3.08c6.2,0.63,12.41,1.13,18.44,1.5L1812.86,474.01
					z"/>
				<path class="st0" d="M1868.73,473.48l-0.26-3.08c6.17-0.53,12.35-1.23,18.36-2.08l0.44,3.06
					C1881.19,472.24,1874.96,472.94,1868.73,473.48z"/>
				<path class="st0" d="M1775.8,470.27c-6.01-0.84-12.2-1.81-18.39-2.88l0.53-3.05c6.16,1.07,12.31,2.03,18.29,2.86L1775.8,470.27z
					"/>
				<path class="st0" d="M1905.64,468.21l-0.62-3.03c0.73-0.15,1.45-0.3,2.18-0.45c5.25-1.11,10.55-2.4,15.77-3.85l0.83,2.98
					c-5.27,1.46-10.64,2.77-15.95,3.89C1907.11,467.91,1906.38,468.06,1905.64,468.21z"/>
				<path class="st0" d="M1739.12,463.93c-5.94-1.21-12.05-2.55-18.18-3.97l0.7-3.01c6.1,1.42,12.19,2.75,18.1,3.96L1739.12,463.93z
					"/>
				<path class="st0" d="M1941.61,458.24l-1.03-2.92c5.78-2.05,11.56-4.33,17.17-6.77l1.24,2.84
					C1953.3,453.86,1947.45,456.17,1941.61,458.24z"/>
				<path class="st0" d="M1702.87,455.53c-5.83-1.5-11.87-3.12-17.96-4.82l0.83-2.98c6.07,1.69,12.09,3.31,17.9,4.81L1702.87,455.53
					z"/>
				<path class="st0" d="M1667.05,445.54c-5.73-1.71-11.54-3.49-17.77-5.43l0.92-2.95c6.22,1.94,12.02,3.72,17.74,5.42
					L1667.05,445.54z"/>
				<path class="st0" d="M1975.82,443.33l-1.43-2.74c5.46-2.85,10.85-5.93,16.04-9.14l1.63,2.63
					C1986.81,437.33,1981.35,440.44,1975.82,443.33z"/>
				<path class="st0" d="M1631.57,434.48c-5.89-1.9-11.78-3.83-17.66-5.76l0.97-2.94c5.88,1.93,11.76,3.86,17.64,5.76
					L1631.57,434.48z"/>
				<path class="st0" d="M2007.56,423.65l-1.82-2.5c4.99-3.64,9.86-7.49,14.47-11.44l2.01,2.35
					C2017.55,416.07,2012.62,419.97,2007.56,423.65z"/>
				<path class="st0" d="M1596.28,422.89l-2.2-0.73c-5.14-1.71-10.28-3.41-15.42-5.11l0.97-2.94c5.14,1.7,10.28,3.4,15.42,5.11
					l2.2,0.73L1596.28,422.89z"/>
				<path class="st0" d="M1561.02,411.26c-5.88-1.91-11.77-3.81-17.67-5.67l0.93-2.95c5.9,1.87,11.8,3.76,17.69,5.68L1561.02,411.26
					z"/>
				<path class="st0" d="M1525.64,400.1c-6.1-1.85-12.09-3.62-17.78-5.25l0.85-2.97c5.71,1.64,11.71,3.41,17.83,5.26L1525.64,400.1z
					"/>
				<path class="st0" d="M2035.89,399.31l-2.2-2.17c4.34-4.4,8.49-9.01,12.34-13.68l2.39,1.97
					C2044.52,390.17,2040.3,394.84,2035.89,399.31z"/>
				<path class="st0" d="M1489.99,389.91c-6.09-1.62-12.13-3.16-17.96-4.57l0.73-3.01c5.85,1.42,11.91,2.96,18.03,4.58
					L1489.99,389.91z"/>
				<path class="st0" d="M1453.98,381.22c-6.12-1.31-12.24-2.53-18.16-3.62l0.56-3.04c5.96,1.1,12.1,2.32,18.25,3.64L1453.98,381.22
					z"/>
				<path class="st0" d="M2059.63,370.45l-2.56-1.73c3.45-5.11,6.66-10.4,9.53-15.73l2.72,1.47
					C2066.4,359.87,2063.14,365.25,2059.63,370.45z"/>
				<path class="st0" d="M2077.32,337.54l-2.86-1.17c2.32-5.67,4.35-11.51,6.03-17.36l2.97,0.85
					C2081.75,325.81,2079.68,331.76,2077.32,337.54z"/>
				<path class="st0" d="M2087.62,301.6l-3.05-0.52c1.02-5.98,1.74-12.13,2.12-18.27l3.09,0.19
					C2089.39,289.26,2088.66,295.51,2087.62,301.6z"/>
				<path class="st0" d="M2086.91,264.41c-0.23-6.06-0.78-12.23-1.61-18.34l3.07-0.42c0.84,6.21,1.39,12.48,1.63,18.64
					L2086.91,264.41z"/>
				<path class="st0" d="M2081.98,227.96c-1.37-5.92-3.03-11.89-4.93-17.75l2.94-0.96c1.93,5.94,3.62,12,5,18.01L2081.98,227.96z"/>
				<path class="st0" d="M2070.61,192.94c-2.37-5.62-5.02-11.23-7.86-16.67l2.74-1.43c2.88,5.52,5.56,11.21,7.97,16.91
					L2070.61,192.94z"/>
				<path class="st0" d="M2053.55,160.29c-3.27-5.18-6.79-10.29-10.47-15.18l2.47-1.86c3.72,4.95,7.29,10.13,10.61,15.39
					L2053.55,160.29z"/>
				<path class="st0" d="M2031.41,130.84l-0.16-0.18c-4-4.49-8.24-8.9-12.61-13.13l2.15-2.22c4.42,4.28,8.71,8.75,12.76,13.28
					l0.17,0.19L2031.41,130.84z"/>
				<path class="st0" d="M1579.09,117.93l-1.92-2.43c4.71-3.73,9.75-7.48,14.97-11.15l1.78,2.53
					C1588.75,110.52,1583.76,114.24,1579.09,117.93z"/>
				<path class="st0" d="M2004.93,105.19c-4.65-3.9-9.54-7.72-14.54-11.37l1.82-2.5c5.05,3.68,10,7.55,14.7,11.5L2004.93,105.19z"/>
				<path class="st0" d="M1609.31,96.62l-1.66-2.61c5.17-3.27,10.54-6.51,15.97-9.62l1.54,2.68
					C1619.77,90.17,1614.44,93.38,1609.31,96.62z"/>
				<path class="st0" d="M1975.13,83.44c-5.13-3.26-10.47-6.42-15.89-9.42l1.5-2.71c5.47,3.02,10.87,6.22,16.05,9.51L1975.13,83.44z
					"/>
				<path class="st0" d="M1942.82,65.56c-5.48-2.63-11.15-5.17-16.87-7.54l1.19-2.86c5.77,2.39,11.5,4.95,17.02,7.61L1942.82,65.56z
					"/>
				<path class="st0" d="M1674.94,62.55l-1.19-2.85c5.73-2.4,11.57-4.7,17.34-6.84l1.07,2.9
					C1686.43,57.88,1680.63,60.16,1674.94,62.55z"/>
				<path class="st0" d="M1908.7,51.38c-5.74-2.04-11.65-3.98-17.57-5.76l0.89-2.96c5.97,1.8,11.93,3.75,17.71,5.81L1908.7,51.38z"
					/>
				<path class="st0" d="M1709.65,49.71l-0.95-2.95c5.95-1.91,11.96-3.7,17.87-5.3l0.81,2.99
					C1721.52,46.04,1715.55,47.81,1709.65,49.71z"/>
				<path class="st0" d="M1873.3,40.71c-5.24-1.31-10.6-2.54-15.94-3.65c-0.7-0.14-1.39-0.29-2.09-0.42l0.6-3.04
					c0.71,0.14,1.42,0.28,2.12,0.43c5.38,1.12,10.78,2.35,16.06,3.68L1873.3,40.71z"/>
				<path class="st0" d="M1745.34,40.04l-0.66-3.02c6.13-1.34,12.29-2.53,18.31-3.52l0.5,3.05
					C1757.53,37.53,1751.42,38.71,1745.34,40.04z"/>
				<path class="st0" d="M1781.81,34.08l-0.32-3.08c6.26-0.66,12.53-1.12,18.61-1.37l0.13,3.09
					C1794.2,32.98,1788.01,33.43,1781.81,34.08z"/>
				<path class="st0" d="M1837.05,33.88c-5.98-0.65-12.17-1.07-18.4-1.26l0.09-3.09c6.3,0.19,12.57,0.62,18.64,1.27L1837.05,33.88z"
					/>
				<g>
					<path class="st20" d="M1811.62,76.99c-0.28-7.22-5.49-10.37-11.88-10.37c-4.54-0.04-11.07,1.03-11.07,11.7l-5.11,0
						c0-12.68,9.57-16.37,16.86-16.37c10.2,0,16.46,6.73,16.46,15.19c0,10.84-14.16,16.29-14.16,30.67h-5.4
						C1797.32,91.66,1812.01,87.04,1811.62,76.99z"/>
					<circle class="st20" cx="1800.22" cy="115.77" r="3.3"/>
				</g>
				<g>
					
						<rect x="389.11" y="458.62" transform="matrix(0.0424 -0.9991 0.9991 0.0424 -100.0203 844.6036)" class="st21" width="2.96" height="31.72"/>
					
						<rect x="373.73" y="473" transform="matrix(0.0424 -0.9991 0.9991 0.0424 -100.0203 844.6036)" class="st21" width="33.72" height="2.96"/>
				</g>
				
					<rect x="620.79" y="298.74" transform="matrix(0.8572 -0.515 0.515 0.8572 -73.1496 365.3976)" class="st21" width="2.96" height="31.72"/>
				
					<rect x="605.41" y="313.12" transform="matrix(0.6246 -0.7809 0.7809 0.6246 -12.0858 604.0459)" class="st21" width="33.72" height="2.96"/>
				<g>
					<polyline class="st0" points="1568.79,126.76 1571.71,100.94 1574.65,101.28 1571.88,125.74 1595.26,118.02 1596.19,120.84 
						1571.59,128.88 1568.59,129.69 					"/>
				</g>
				<g>
					<polyline class="st8" points="1074.9,254.64 1052.67,268.09 1051.14,265.56 1072.21,252.81 1051.82,239.01 1053.48,236.56 
						1074.87,251.13 1077.34,253.02 					"/>
				</g>
				
					<rect x="1632.59" y="69.84" transform="matrix(0.869 -0.4949 0.4949 0.869 180.8214 825.5275)" class="st21" width="33.37" height="2.96"/>
				<g>
					<g>
						<polygon class="st21" points="868.01,384.62 866.42,382.13 842.31,397.57 842.32,397.58 841.59,397.92 858.67,435.24 
							842.76,423.21 842.72,423.25 842.7,423.21 835.95,426.75 837.32,429.37 841.98,426.92 861.76,442.05 861.77,442.02 
							861.79,442.05 864.48,440.81 845.39,399.11 						"/>
					</g>
				</g>
			</g>
			<path class="st1" d="M858.18,389.77"/>
			<circle class="st22" cx="1649.28" cy="60.36" r="4.75"/>
			<circle class="st22" cx="1649.28" cy="82.13" r="4.75"/>
			<path class="st2" d="M417.47,477.21l-0.25-3.08c6.13-0.5,12.27-1.3,18.25-2.37l0.55,3.05
				C429.93,475.89,423.69,476.7,417.47,477.21z"/>
			<path class="st3" d="M361.63,474.25c-6.05-1.11-12.18-2.48-18.22-4.08l0.79-2.99c5.96,1.58,12.02,2.94,17.98,4.03L361.63,474.25z
				"/>
			<path class="st4" d="M454.24,470.6l-0.84-2.98c5.88-1.66,11.75-3.64,17.44-5.87l1.13,2.88
				C466.19,466.91,460.22,468.92,454.24,470.6z"/>
			<path class="st5" d="M325.56,464.69c-5.83-2.03-11.69-4.31-17.4-6.78l1.23-2.84c5.65,2.44,11.43,4.69,17.19,6.7L325.56,464.69z"
				/>
			<path class="st6" d="M489.03,456.96l-1.41-2.76c5.41-2.76,10.78-5.83,15.98-9.13l1.66,2.61
				C499.99,451.04,494.52,454.16,489.03,456.96z"/>
			<path class="st7" d="M291.29,449.89c-5.52-2.87-10.99-5.97-16.25-9.21l1.62-2.64c5.2,3.2,10.6,6.26,16.06,9.1L291.29,449.89z"/>
			<path class="st8" d="M520.58,436.96l-1.89-2.45c4.79-3.68,9.54-7.66,14.12-11.84l2.08,2.29
				C530.25,429.19,525.44,433.23,520.58,436.96z"/>
			<path class="st9" d="M259.5,430.31c-5.11-3.7-10.06-7.59-14.69-11.56l2.01-2.35c4.57,3.91,9.45,7.75,14.49,11.4L259.5,430.31z"/>
			<path class="st8" d="M548.2,411.85l-2.25-2.12c3.44-3.65,6.86-7.51,10.16-11.47c0.68-0.81,1.34-1.61,2-2.41l2.39,1.97
				c-0.66,0.8-1.34,1.61-2.02,2.43C555.14,404.25,551.68,408.15,548.2,411.85z"/>
			<path class="st10" d="M231.16,405.96c-4.51-4.65-8.65-9.4-12.3-14.13l2.45-1.89c3.58,4.64,7.64,9.3,12.07,13.87L231.16,405.96z"
				/>
			<path class="st8" d="M572.1,383.27l-2.45-1.89c3.63-4.72,7.25-9.58,11.05-14.85l2.51,1.81
				C579.38,373.64,575.75,378.52,572.1,383.27z"/>
			<path class="st8" d="M593.92,353.17l-2.54-1.76c1.87-2.69,3.71-5.35,5.54-8.01c1.67-2.43,3.34-4.84,5.01-7.25l2.54,1.76
				c-1.67,2.41-3.34,4.82-5.01,7.25C597.63,347.81,595.78,350.48,593.92,353.17z"/>
			<path class="st8" d="M637.93,293.66l-2.35-2.01c3.98-4.66,8.16-9.34,12.41-13.89l2.26,2.11
				C646.03,284.39,641.89,289.03,637.93,293.66z"/>
			<path class="st8" d="M663.37,266.94l-2.06-2.31c4.44-3.97,9.3-7.96,14.44-11.87l1.87,2.46
				C672.55,259.09,667.75,263.03,663.37,266.94z"/>
			<path class="st8" d="M1016.7,254.71c-4.55,0-8.68-0.09-12.62-0.27l0.14-3.09c3.9,0.18,7.98,0.26,12.48,0.26
				c2,0,3.99-0.02,5.99-0.05l0.05,3.09C1020.73,254.69,1018.71,254.71,1016.7,254.71z"/>
			<path class="st8" d="M1041.33,254.13l-0.11-3.09c6.13-0.21,12.47-0.44,18.59-0.52l0.04,3.09
				C1053.76,253.7,1047.44,253.92,1041.33,254.13z"/>
			<path class="st8" d="M985.45,252.71c-6.56-0.98-12.56-2.3-18.33-4.04l0.9-2.96c5.63,1.7,11.48,2.99,17.89,3.95L985.45,252.71z"/>
			<path class="st8" d="M692.7,244.56l-1.71-2.58c5.09-3.37,10.43-6.67,15.87-9.82l1.55,2.68
				C703.03,237.96,697.75,241.23,692.7,244.56z"/>
			<path class="st8" d="M949.66,241.68c-4.82-2.38-9.92-5.04-16.52-8.6l1.47-2.72c6.57,3.54,11.64,6.18,16.42,8.54L949.66,241.68z"
				/>
			<path class="st8" d="M724.65,226.01l-1.4-2.76c5.55-2.82,11.22-5.52,16.86-8l1.25,2.83
				C735.77,220.54,730.15,223.21,724.65,226.01z"/>
			<path class="st8" d="M916.82,224.21c-4.47-2.42-10.38-5.59-16.4-8.6l1.39-2.77c6.06,3.04,11.99,6.22,16.48,8.65L916.82,224.21z"
				/>
			<path class="st8" d="M758.47,211.1l-1.08-2.9c5.93-2.21,11.88-4.23,17.69-5.98l0.89,2.96
				C770.23,206.92,764.34,208.91,758.47,211.1z"/>
			<path class="st8" d="M883.68,207.84c-6.07-2.56-11.72-4.62-17.28-6.31l0.9-2.96c5.66,1.72,11.41,3.82,17.58,6.42L883.68,207.84z"
				/>
			<path class="st8" d="M793.82,200.51l-0.67-3.02c6.3-1.39,12.5-2.48,18.43-3.23l0.39,3.07
				C806.14,198.06,800.03,199.13,793.82,200.51z"/>
			<path class="st8" d="M848.56,197.39c-1.51-0.23-3.02-0.44-4.54-0.61c-4.14-0.47-8.52-0.71-13.04-0.71l-0.67,0l-0.02-3.09l0.69,0
				c4.63,0,9.14,0.25,13.39,0.73c1.56,0.18,3.12,0.39,4.66,0.63L848.56,197.39z"/>
			<path class="st11" d="M86.48,500.47l-2.7-1.5c3-5.4,6.24-10.78,9.62-16l2.6,1.68C92.65,489.81,89.45,495.14,86.48,500.47z"/>
			<path class="st12" d="M106.55,469.51l-2.48-1.85c3.7-4.95,7.63-9.85,11.66-14.57l2.35,2.01
				C114.09,459.77,110.21,464.62,106.55,469.51z"/>
			<path class="st13" d="M648.41,468.7c-3.71,0-7.44-0.1-11.08-0.3l0.17-3.09c6.01,0.32,12.21,0.38,18.41,0.16l0.11,3.09
				C653.48,468.65,650.92,468.7,648.41,468.7z"/>
			<path class="st13" d="M674.64,467.13l-0.36-3.07c5.96-0.7,12.09-1.64,18.22-2.81l0.58,3.04
				C686.88,465.47,680.68,466.43,674.64,467.13z"/>
			<path class="st13" d="M618.72,466.5c-6.19-0.94-12.36-2.2-18.34-3.74l0.77-3c5.88,1.52,11.94,2.75,18.03,3.68L618.72,466.5z"/>
			<path class="st13" d="M711.28,460.19l-0.77-3c5.81-1.5,11.78-3.23,17.74-5.14l0.94,2.95
				C723.17,456.93,717.15,458.68,711.28,460.19z"/>
			<path class="st13" d="M582.52,457.14c-5.58-2.08-11.37-4.56-17.18-7.37l1.34-2.79c5.73,2.77,11.43,5.21,16.92,7.26L582.52,457.14
				z"/>
			<path class="st13" d="M746.79,448.87l-1.09-2.9c5.63-2.12,11.4-4.44,17.16-6.9l1.22,2.85
				C758.27,444.4,752.46,446.74,746.79,448.87z"/>
			<path class="st14" d="M130.54,441.47l-2.22-2.16c4.32-4.43,8.84-8.79,13.45-12.94l2.07,2.3
				C139.29,432.78,134.81,437.09,130.54,441.47z"/>
			<path class="st13" d="M548.84,441.05c-4.96-2.83-10.18-5.98-15.96-9.63l1.65-2.62c5.73,3.62,10.91,6.75,15.84,9.55L548.84,441.05
				z"/>
			<path class="st13" d="M781.05,434.25l-1.33-2.79c5.44-2.58,11.02-5.36,16.58-8.24l1.42,2.75
				C792.13,428.86,786.52,431.65,781.05,434.25z"/>
			<path class="st13" d="M517.28,421.3l-6.44-4.27c-3.01-2-6.02-4-9.04-5.99l1.7-2.58c3.02,1.99,6.04,3.99,9.05,5.99l6.43,4.27
				L517.28,421.3z"/>
			<path class="st13" d="M814.12,417.12l-1.51-2.7c5.26-2.93,10.66-6.05,16.06-9.26l1.58,2.66
				C824.83,411.05,819.4,414.18,814.12,417.12z"/>
			<path class="st15" d="M157.94,416.75l-1.92-2.43c4.86-3.85,9.9-7.59,14.99-11.12l1.76,2.54
				C167.74,409.24,162.75,412.94,157.94,416.75z"/>
			<path class="st13" d="M486.23,401.01c-5.71-3.56-10.91-6.65-15.9-9.44l1.51-2.7c5.03,2.81,10.27,5.92,16.03,9.51L486.23,401.01z"
				/>
			<path class="st16" d="M188.28,395.72l-1.6-2.65c5.32-3.2,10.8-6.26,16.29-9.1l1.42,2.75
				C198.96,389.53,193.54,392.56,188.28,395.72z"/>
			<path class="st13" d="M453.93,383.1c-5.52-2.62-11.22-5.09-16.93-7.35l1.14-2.88c5.78,2.28,11.54,4.78,17.12,7.43L453.93,383.1z"
				/>
			<path class="st17" d="M221.07,378.79l-1.24-2.84c5.7-2.48,11.54-4.8,17.35-6.88l1.04,2.91
				C232.48,374.04,226.7,376.33,221.07,378.79z"/>
			<path class="st13" d="M877.55,378.33l-1.66-2.61c5.22-3.32,10.45-6.64,15.68-9.95l1.65,2.62
				C887.99,371.69,882.77,375.01,877.55,378.33z"/>
			<path class="st13" d="M419.61,369.54c-5.82-1.87-11.8-3.57-17.76-5.06l0.75-3c6.02,1.51,12.06,3.23,17.95,5.11L419.61,369.54z"/>
			<path class="st18" d="M255.8,366.35l-0.84-2.98c5.94-1.68,12.04-3.19,18.12-4.47l0.64,3.03
				C267.7,363.2,261.67,364.69,255.8,366.35z"/>
			<path class="st13" d="M383.81,360.58c-6.03-1.1-12.17-2.02-18.26-2.74l0.36-3.07c6.16,0.72,12.36,1.65,18.46,2.77L383.81,360.58z
				"/>
			<path class="st19" d="M291.9,358.71l-0.44-3.06c6.12-0.87,12.36-1.55,18.55-2.03l0.24,3.09
				C304.12,357.18,297.95,357.85,291.9,358.71z"/>
			<path class="st13" d="M908.96,358.54l-1.63-2.63c5.67-3.51,10.87-6.67,15.88-9.67l1.59,2.66
				C919.8,351.89,914.62,355.04,908.96,358.54z"/>
			<path class="st13" d="M347.15,356.28c-6.13-0.32-12.33-0.45-18.46-0.38l-0.04-3.09c6.2-0.07,12.46,0.06,18.66,0.39L347.15,356.28
				z"/>
			<path class="st13" d="M940.8,339.54l-1.53-2.69c5.58-3.18,11.06-6.2,16.29-9l1.46,2.73C951.81,333.37,946.36,336.38,940.8,339.54
				z"/>
			<path class="st13" d="M973.5,322.14l-1.36-2.78c5.71-2.8,11.39-5.45,16.89-7.87l1.25,2.83
				C984.81,316.73,979.17,319.36,973.5,322.14z"/>
			<path class="st13" d="M1007.36,307.28l-1.11-2.89c5.89-2.26,11.81-4.35,17.58-6.21l0.95,2.95
				C1019.06,302.96,1013.2,305.04,1007.36,307.28z"/>
			<path class="st13" d="M1042.52,296l-0.76-3c6.08-1.55,12.21-2.89,18.22-4l0.56,3.04C1054.59,293.14,1048.53,294.47,1042.52,296z"
				/>
			<path class="st0" d="M1837.66,474.78c-2.06,0-4.12-0.02-6.18-0.05l0.05-3.09c6.18,0.1,12.41,0.05,18.49-0.15l0.1,3.09
				C1846.02,474.71,1841.83,474.78,1837.66,474.78z"/>
			<path class="st0" d="M1812.86,474.01c-6.08-0.37-12.32-0.88-18.57-1.51l0.31-3.08c6.2,0.63,12.41,1.13,18.44,1.5L1812.86,474.01z
				"/>
			<path class="st0" d="M1868.73,473.48l-0.26-3.08c6.17-0.53,12.35-1.23,18.36-2.08l0.44,3.06
				C1881.19,472.24,1874.96,472.94,1868.73,473.48z"/>
			<path class="st0" d="M1775.8,470.27c-6.01-0.84-12.2-1.81-18.39-2.88l0.53-3.05c6.16,1.07,12.31,2.03,18.29,2.86L1775.8,470.27z"
				/>
			<path class="st0" d="M1905.64,468.21l-0.62-3.03c0.73-0.15,1.45-0.3,2.18-0.45c5.25-1.11,10.55-2.4,15.77-3.85l0.83,2.98
				c-5.27,1.46-10.64,2.77-15.95,3.89C1907.11,467.91,1906.38,468.06,1905.64,468.21z"/>
			<path class="st0" d="M1739.12,463.93c-5.94-1.21-12.05-2.55-18.18-3.97l0.7-3.01c6.1,1.42,12.19,2.75,18.1,3.96L1739.12,463.93z"
				/>
			<path class="st0" d="M1941.61,458.24l-1.03-2.92c5.78-2.05,11.56-4.33,17.17-6.77l1.24,2.84
				C1953.3,453.86,1947.45,456.17,1941.61,458.24z"/>
			<path class="st0" d="M1702.87,455.53c-5.83-1.5-11.87-3.12-17.96-4.82l0.83-2.98c6.07,1.69,12.09,3.31,17.9,4.81L1702.87,455.53z
				"/>
			<path class="st0" d="M1667.05,445.54c-5.73-1.71-11.54-3.49-17.77-5.43l0.92-2.95c6.22,1.94,12.02,3.72,17.74,5.42
				L1667.05,445.54z"/>
			<path class="st0" d="M1975.82,443.33l-1.43-2.74c5.46-2.85,10.85-5.93,16.04-9.14l1.63,2.63
				C1986.81,437.33,1981.35,440.44,1975.82,443.33z"/>
			<path class="st0" d="M1631.57,434.48c-5.89-1.9-11.78-3.83-17.66-5.76l0.97-2.94c5.88,1.93,11.76,3.86,17.64,5.76L1631.57,434.48
				z"/>
			<path class="st0" d="M2007.56,423.65l-1.82-2.5c4.99-3.64,9.86-7.49,14.47-11.44l2.01,2.35
				C2017.55,416.07,2012.62,419.97,2007.56,423.65z"/>
			<path class="st0" d="M1596.28,422.89l-2.2-0.73c-5.14-1.71-10.28-3.41-15.42-5.11l0.97-2.94c5.14,1.7,10.28,3.4,15.42,5.11
				l2.2,0.73L1596.28,422.89z"/>
			<path class="st0" d="M1561.02,411.26c-5.88-1.91-11.77-3.81-17.67-5.67l0.93-2.95c5.9,1.87,11.8,3.76,17.69,5.68L1561.02,411.26z
				"/>
			<path class="st0" d="M1525.64,400.1c-6.1-1.85-12.09-3.62-17.78-5.25l0.85-2.97c5.71,1.64,11.71,3.41,17.83,5.26L1525.64,400.1z"
				/>
			<path class="st0" d="M2035.89,399.31l-2.2-2.17c4.34-4.4,8.49-9.01,12.34-13.68l2.39,1.97
				C2044.52,390.17,2040.3,394.84,2035.89,399.31z"/>
			<path class="st0" d="M1489.99,389.91c-6.09-1.62-12.13-3.16-17.96-4.57l0.73-3.01c5.85,1.42,11.91,2.96,18.03,4.58
				L1489.99,389.91z"/>
			<path class="st0" d="M1453.98,381.22c-6.12-1.31-12.24-2.53-18.16-3.62l0.56-3.04c5.96,1.1,12.1,2.32,18.25,3.64L1453.98,381.22z
				"/>
			<path class="st0" d="M2059.63,370.45l-2.56-1.73c3.45-5.11,6.66-10.4,9.53-15.73l2.72,1.47
				C2066.4,359.87,2063.14,365.25,2059.63,370.45z"/>
			<path class="st0" d="M2070.61,192.94c-2.37-5.62-5.02-11.23-7.86-16.67l2.74-1.43c2.88,5.52,5.56,11.21,7.97,16.91
				L2070.61,192.94z"/>
			<path class="st0" d="M2053.55,160.29c-3.27-5.18-6.79-10.29-10.47-15.18l2.47-1.86c3.72,4.95,7.29,10.13,10.61,15.39
				L2053.55,160.29z"/>
			<path class="st0" d="M2031.41,130.84l-0.16-0.18c-4-4.49-8.24-8.9-12.61-13.13l2.15-2.22c4.42,4.28,8.71,8.75,12.76,13.28
				l0.17,0.19L2031.41,130.84z"/>
			<path class="st0" d="M1579.09,117.93l-1.92-2.43c4.71-3.73,9.75-7.48,14.97-11.15l1.78,2.53
				C1588.75,110.52,1583.76,114.24,1579.09,117.93z"/>
			<path class="st0" d="M2004.93,105.19c-4.65-3.9-9.54-7.72-14.54-11.37l1.82-2.5c5.05,3.68,10,7.55,14.7,11.5L2004.93,105.19z"/>
			<path class="st0" d="M1609.31,96.62l-1.66-2.61c5.17-3.27,10.54-6.51,15.97-9.62l1.54,2.68
				C1619.77,90.17,1614.44,93.38,1609.31,96.62z"/>
			<path class="st0" d="M1975.13,83.44c-5.13-3.26-10.47-6.42-15.89-9.42l1.5-2.71c5.47,3.02,10.87,6.22,16.05,9.51L1975.13,83.44z"
				/>
			<path class="st0" d="M1942.82,65.56c-5.48-2.63-11.15-5.17-16.87-7.54l1.19-2.86c5.77,2.39,11.5,4.95,17.02,7.61L1942.82,65.56z"
				/>
			<path class="st0" d="M1674.94,62.55l-1.19-2.85c5.73-2.4,11.57-4.7,17.34-6.84l1.07,2.9
				C1686.43,57.88,1680.63,60.16,1674.94,62.55z"/>
			<path class="st0" d="M1908.7,51.38c-5.74-2.04-11.65-3.98-17.57-5.76l0.89-2.96c5.97,1.8,11.93,3.75,17.71,5.81L1908.7,51.38z"/>
			<path class="st0" d="M1709.65,49.71l-0.95-2.95c5.95-1.91,11.96-3.7,17.87-5.3l0.81,2.99
				C1721.52,46.04,1715.55,47.81,1709.65,49.71z"/>
			<path class="st0" d="M1873.3,40.71c-5.24-1.31-10.6-2.54-15.94-3.65c-0.7-0.14-1.39-0.29-2.09-0.42l0.6-3.04
				c0.71,0.14,1.42,0.28,2.12,0.43c5.38,1.12,10.78,2.35,16.06,3.68L1873.3,40.71z"/>
			<path class="st0" d="M1745.34,40.04l-0.66-3.02c6.13-1.34,12.29-2.53,18.31-3.52l0.5,3.05
				C1757.53,37.53,1751.42,38.71,1745.34,40.04z"/>
			<path class="st0" d="M1781.81,34.08l-0.32-3.08c6.26-0.66,12.53-1.12,18.61-1.37l0.13,3.09
				C1794.2,32.98,1788.01,33.43,1781.81,34.08z"/>
			<path class="st0" d="M1837.05,33.88c-5.98-0.65-12.17-1.07-18.4-1.26l0.09-3.09c6.3,0.19,12.57,0.62,18.64,1.27L1837.05,33.88z"
				/>
			<g>
				<path class="st20" d="M1811.62,76.99c-0.28-7.22-5.49-10.37-11.88-10.37c-4.54-0.04-11.07,1.03-11.07,11.7l-5.11,0
					c0-12.68,9.57-16.37,16.86-16.37c10.2,0,16.46,6.73,16.46,15.19c0,10.84-14.16,16.29-14.16,30.67h-5.4
					C1797.32,91.66,1812.01,87.04,1811.62,76.99z"/>
				<circle class="st20" cx="1800.22" cy="115.77" r="3.3"/>
			</g>
			<g>
				
					<rect x="389.11" y="458.62" transform="matrix(0.0424 -0.9991 0.9991 0.0424 -100.0203 844.6036)" class="st21" width="2.96" height="31.72"/>
				
					<rect x="373.73" y="473" transform="matrix(0.0424 -0.9991 0.9991 0.0424 -100.0203 844.6036)" class="st21" width="33.72" height="2.96"/>
			</g>
			
				<rect x="620.79" y="298.74" transform="matrix(0.8572 -0.515 0.515 0.8572 -73.1496 365.3976)" class="st21" width="2.96" height="31.72"/>
			
				<rect x="605.41" y="313.12" transform="matrix(0.6246 -0.7809 0.7809 0.6246 -12.0858 604.0459)" class="st21" width="33.72" height="2.96"/>
			<g>
				<polyline class="st0" points="1568.79,126.76 1571.71,100.94 1574.65,101.28 1571.88,125.74 1595.26,118.02 1596.19,120.84 
					1571.59,128.88 1568.59,129.69 				"/>
			</g>
			<g>
				<polyline class="st8" points="1074.9,254.64 1052.67,268.09 1051.14,265.56 1072.21,252.81 1051.82,239.01 1053.48,236.56 
					1074.87,251.13 1077.34,253.02 				"/>
			</g>
			
				<rect x="1632.59" y="69.84" transform="matrix(0.869 -0.4949 0.4949 0.869 180.8214 825.5275)" class="st21" width="33.37" height="2.96"/>
			<g>
				<g>
					<polygon class="st21" points="868.01,384.62 866.42,382.13 842.31,397.57 842.32,397.58 841.59,397.92 858.67,435.24 
						842.76,423.21 842.72,423.25 842.7,423.21 835.95,426.75 837.32,429.37 841.98,426.92 861.76,442.05 861.77,442.02 
						861.79,442.05 864.48,440.81 845.39,399.11 					"/>
				</g>
			</g>
		</g>
	</g>
</g>
</svg>
