<?xml version="1.0" encoding="utf-8"?>
<!-- Generator: Adobe Illustrator 21.1.0, SVG Export Plug-In . SVG Version: 6.00 Build 0)  -->
<svg version="1.1" id="Ebene_1" xmlns="http://www.w3.org/2000/svg" xmlns:xlink="http://www.w3.org/1999/xlink" x="0px" y="0px"
	 viewBox="0 0 200 80" style="enable-background:new 0 0 200 80;" xml:space="preserve">
<style type="text/css">
	.st0{fill:url(#SVGID_1_);}
	.st1{fill:#FFFFFF;}
	.st2{fill:#F15A24;}
	.st3{fill:#F10024;}
	.st4{font-family:'DINCondensed-Bold';}
	.st5{font-size:15.8556px;}
</style>
<path d="M17.4,24.5l-1.7,0.3l-1.4,4.8l-1.4,0.2l1.4-4.8l-1,0.2l0.2-1.3l1.2-0.2l1.1-3.6l-1,0.2L15,19l1.2-0.2l1.4-4.8l1.4-0.2
	l-1.4,4.8l1.7-0.3l1.4-4.8l1.4-0.2L20.7,18l1-0.2l-0.2,1.3l-1.2,0.2l-1.1,3.6l1-0.2L20,24.1l-1.2,0.2L17.4,29L16,29.3L17.4,24.5z
	 M18.9,19.6l-1.7,0.3l-1.1,3.6l1.7-0.3L18.9,19.6z M23.6,13l2.1-0.4l-2.3,13.2l4.1-0.7l-0.4,2.2l-6.2,1.1L23.6,13z M31,22.1
	l-0.3,1.5c-0.1,0.3,0,0.6,0.1,0.8c0.2,0.2,0.4,0.2,0.7,0.2c0.4-0.1,0.7-0.2,0.8-0.5c0.2-0.3,0.3-0.5,0.4-0.8l2.1-0.4
	c-0.1,0.5-0.2,0.9-0.4,1.3c-0.2,0.4-0.5,0.8-0.8,1.1c-0.3,0.4-0.7,0.6-1.1,0.9c-0.4,0.2-0.9,0.4-1.3,0.5c-0.6,0.1-1.2,0.1-1.6-0.1
	c-0.4-0.2-0.7-0.5-0.9-1c-0.1-0.3-0.1-0.6-0.1-0.9c0-0.4,0.1-0.8,0.1-1.2l0.6-3.6c0.1-0.4,0.2-0.9,0.3-1.2c0.1-0.4,0.3-0.7,0.5-1
	c0.3-0.5,0.7-1,1.3-1.3c0.5-0.4,1.1-0.6,1.7-0.7c0.5-0.1,0.9-0.1,1.2,0c0.4,0.1,0.6,0.3,0.8,0.6c0.2,0.3,0.3,0.6,0.4,1
	c0.1,0.4,0.1,0.8,0,1.3l-0.5,3L31,22.1z M31.3,20.4l2-0.4l0.2-1.3c0.1-0.4,0-0.7-0.1-0.9c-0.1-0.2-0.4-0.2-0.7-0.2s-0.6,0.2-0.8,0.4
	c-0.2,0.2-0.4,0.6-0.4,1L31.3,20.4z M38.4,11.5l2.1-0.4l-0.6,3.3l1.3-0.2l-0.3,1.7l-1.3,0.2l-1.1,6.1c0,0.3-0.1,0.5,0,0.6
	c0,0.1,0.1,0.2,0.2,0.3c0.1,0.1,0.2,0.1,0.4,0.1c0.2,0,0.4,0,0.6-0.1l-0.4,2.1l-0.9,0.2c-0.5,0.1-0.9,0.1-1.1,0
	c-0.3-0.1-0.5-0.3-0.7-0.5c-0.1-0.2-0.2-0.5-0.3-0.8c0-0.3,0-0.6,0-0.9l1.2-6.7l-1,0.2l0.3-1.7l1-0.2L38.4,11.5z M45.2,16.5
	c0.1-0.4,0-0.6-0.2-0.8c-0.2-0.2-0.4-0.2-0.7-0.2c-0.3,0.1-0.6,0.2-0.8,0.5c-0.2,0.3-0.3,0.5-0.4,0.8c0,0.2,0,0.4,0,0.6
	c0.1,0.2,0.3,0.3,0.6,0.4l1.1,0.3c0.7,0.2,1.2,0.5,1.4,1c0.2,0.5,0.2,1.1,0.1,1.7c-0.1,0.5-0.2,0.9-0.5,1.3
	c-0.2,0.4-0.5,0.8-0.8,1.2c-0.3,0.4-0.7,0.6-1.1,0.9c-0.4,0.2-0.8,0.4-1.3,0.5c-0.4,0.1-0.8,0.1-1.1,0c-0.3-0.1-0.6-0.2-0.9-0.5
	c-0.2-0.2-0.4-0.5-0.5-0.9c-0.1-0.4-0.1-0.8,0-1.4l2-0.3c0,0.3,0,0.6,0.1,0.8c0.1,0.2,0.4,0.3,0.8,0.2c0.3-0.1,0.6-0.2,0.9-0.5
	c0.3-0.3,0.4-0.6,0.5-0.9c0.1-0.3,0-0.5-0.1-0.7c-0.1-0.2-0.3-0.3-0.7-0.4l-0.9-0.2c-0.6-0.1-1-0.4-1.3-0.9c-0.3-0.4-0.4-1-0.2-1.8
	c0.1-0.5,0.2-0.9,0.5-1.3c0.2-0.4,0.5-0.8,0.8-1.1c0.3-0.3,0.7-0.6,1.1-0.8c0.4-0.2,0.8-0.4,1.2-0.4c0.4-0.1,0.8-0.1,1.1,0
	c0.3,0.1,0.6,0.3,0.8,0.5c0.2,0.2,0.4,0.5,0.4,0.9c0.1,0.4,0.1,0.8,0,1.2L45.2,16.5z M50,8.4l3.3-0.6c2.4-0.4,3.4,0.9,2.9,3.9
	c-0.2,0.9-0.4,1.7-0.8,2.4c-0.4,0.7-0.9,1.3-1.7,1.8l1,6.6l-2.2,0.4l-0.8-6.2l-1.2,0.2l-1.2,6.6l-2.1,0.4L50,8.4z M50.9,14.9
	l1.2-0.2c0.4-0.1,0.7-0.2,0.9-0.3c0.2-0.1,0.4-0.3,0.6-0.6c0.2-0.2,0.3-0.5,0.4-0.8c0.1-0.3,0.2-0.6,0.2-1c0.1-0.4,0.1-0.7,0.1-1
	c0-0.3,0-0.5-0.1-0.7c-0.1-0.2-0.2-0.3-0.5-0.4c-0.2-0.1-0.5-0.1-0.9,0l-1.1,0.2L50.9,14.9z M56.9,15c0.1-0.4,0.2-0.9,0.3-1.2
	c0.1-0.4,0.3-0.7,0.5-1c0.3-0.5,0.7-1,1.3-1.3c0.5-0.4,1.1-0.6,1.7-0.7c0.6-0.1,1.2-0.1,1.6,0.1c0.4,0.2,0.7,0.5,0.9,1
	c0.1,0.3,0.1,0.6,0.1,0.9c0,0.4-0.1,0.8-0.1,1.2l-0.6,3.6c-0.1,0.4-0.2,0.9-0.3,1.2c-0.1,0.4-0.3,0.7-0.5,1c-0.3,0.5-0.7,1-1.3,1.3
	c-0.5,0.4-1.1,0.6-1.7,0.7c-0.6,0.1-1.2,0.1-1.6-0.1c-0.4-0.2-0.7-0.5-0.9-1c-0.1-0.3-0.1-0.6-0.1-0.9c0-0.4,0.1-0.8,0.1-1.2
	L56.9,15z M58.3,18.6c-0.1,0.4,0,0.7,0.1,0.9c0.1,0.2,0.4,0.2,0.7,0.2s0.6-0.2,0.8-0.4c0.2-0.2,0.4-0.6,0.4-1l0.8-4.3
	c0.1-0.4,0-0.7-0.1-0.9c-0.1-0.2-0.4-0.2-0.7-0.2c-0.3,0.1-0.6,0.2-0.8,0.4c-0.2,0.2-0.4,0.6-0.4,1L58.3,18.6z M66.1,17.4
	c-0.1,0.3,0,0.6,0.1,0.8c0.2,0.2,0.4,0.2,0.7,0.2c0.4-0.1,0.7-0.2,0.8-0.5c0.2-0.3,0.3-0.5,0.4-0.8l2.1-0.4
	c-0.1,0.5-0.2,0.9-0.4,1.3c-0.2,0.4-0.5,0.8-0.8,1.1c-0.3,0.4-0.7,0.6-1.1,0.9c-0.4,0.2-0.9,0.4-1.3,0.5c-0.6,0.1-1.2,0.1-1.6-0.1
	c-0.4-0.2-0.7-0.5-0.9-1C64,19.1,64,18.8,64,18.5c0-0.4,0.1-0.8,0.1-1.2l0.6-3.6c0.1-0.4,0.2-0.9,0.3-1.2c0.1-0.4,0.3-0.7,0.5-1
	c0.3-0.5,0.7-1,1.3-1.3c0.5-0.4,1.1-0.6,1.7-0.7c0.5-0.1,0.9-0.1,1.2,0s0.6,0.3,0.8,0.6c0.2,0.3,0.3,0.6,0.4,1
	c0.1,0.4,0.1,0.9,0,1.4l-2.1,0.4c0.1-0.4,0-0.8-0.1-0.9c-0.1-0.2-0.4-0.2-0.7-0.2c-0.3,0.1-0.6,0.2-0.8,0.4c-0.2,0.2-0.4,0.6-0.4,1
	L66.1,17.4z M73.4,4.2l2.1-0.4l-1.6,9.2l0,0l3.3-5.2l2.1-0.4L76,12.4l1.8,6l-2.3,0.4l-1-4.4l-1.3,1.8l-0.5,3.1l-2.1,0.4L73.4,4.2z
	 M12.3,31.4l5.3-0.9L20.9,51l0.1,0l10.9-23l5.4-0.9L30,68.1l-5.5,1l4.4-25l-0.1,0l-8.6,18.6l-2.8,0.5l-2.3-16.7l-0.1,0l-4.4,25
	l-5.5,1L12.3,31.4z M48.6,25l4.6-0.8l1.4,39.6l-5.5,1L49,56.2l-7.5,1.3l-3.2,9.1l-5.5,1L48.6,25z M48.8,36.5l-0.1,0l-5.3,15.4l5.5-1
	L48.8,36.5z M64.2,27.7l-6.4,1.1l1-5.5L77.1,20l-1,5.5l-6.4,1.1l-6.3,35.6l-5.5,1L64.2,27.7z M79.6,19.6l5.5-1L82,36.2l6.8-1.2
	l3.1-17.6l5.5-1l-7.2,41.1l-5.5,1l3.2-18.3l-6.8,1.2l-3.2,18.3l-5.5,1L79.6,19.6z M102.7,15.5l16.5-2.9l-1,5.5l-11,1.9l-2.1,12.1
	l9.5-1.7l-1,5.5l-9.5,1.7L102,49.7l11-1.9l-1,5.9l-16.5,2.9L102.7,15.5z"/>
<g>
	<text transform="matrix(1 0 0 1 81.999 74.0996)"><tspan x="0" y="0" class="st3 st4 st5">Fragen</tspan><tspan x="34.3" y="-1" class="st3 st4 st5"> | </tspan><tspan x="43.8" y="0" class="st3 st4 st5">Teilen</tspan><tspan x="72.8" y="-1" class="st3 st4 st5"> | </tspan><tspan x="82.2" y="0" class="st3 st4 st5">Helfen</tspan></text>
</g>
<g>
	<path class="st1" d="M15.9,23l-1.7,0.3l-1.4,4.8l-1.4,0.2l1.4-4.8l-1,0.2l0.2-1.3l1.2-0.2l1.1-3.6l-1,0.2l0.2-1.3l1.2-0.2l1.4-4.8
		l1.4-0.2l-1.4,4.8l1.7-0.3l1.4-4.8l1.4-0.2l-1.4,4.8l1-0.2L20,17.7l-1.2,0.2l-1.1,3.6l1-0.2l-0.2,1.3l-1.2,0.2l-1.4,4.8l-1.4,0.2
		L15.9,23z M17.4,18.1l-1.7,0.3L14.6,22l1.7-0.3L17.4,18.1z"/>
	<path class="st1" d="M22.1,11.5l2.1-0.4l-2.3,13.2l4.1-0.7l-0.4,2.2l-6.2,1.1L22.1,11.5z"/>
	<path class="st1" d="M29.5,20.6l-0.3,1.5c-0.1,0.3,0,0.6,0.1,0.8c0.2,0.2,0.4,0.2,0.7,0.2c0.4-0.1,0.7-0.2,0.8-0.5
		c0.2-0.3,0.3-0.5,0.4-0.8l2.1-0.4c-0.1,0.5-0.2,0.9-0.4,1.3c-0.2,0.4-0.5,0.8-0.8,1.1c-0.3,0.4-0.7,0.6-1.1,0.9
		c-0.4,0.2-0.9,0.4-1.3,0.5c-0.6,0.1-1.2,0.1-1.6-0.1c-0.4-0.2-0.7-0.5-0.9-1c-0.1-0.3-0.1-0.6-0.1-0.9c0-0.4,0.1-0.8,0.1-1.2
		l0.6-3.6c0.1-0.4,0.2-0.9,0.3-1.2c0.1-0.4,0.3-0.7,0.5-1c0.3-0.5,0.7-1,1.3-1.3c0.5-0.4,1.1-0.6,1.7-0.7c0.5-0.1,0.9-0.1,1.2,0
		c0.4,0.1,0.6,0.3,0.8,0.6c0.2,0.3,0.3,0.6,0.4,1c0.1,0.4,0.1,0.8,0,1.3l-0.5,3L29.5,20.6z M29.8,18.9l2-0.4l0.2-1.3
		c0.1-0.4,0-0.7-0.1-0.9c-0.1-0.2-0.4-0.2-0.7-0.2s-0.6,0.2-0.8,0.4c-0.2,0.2-0.4,0.6-0.4,1L29.8,18.9z"/>
	<path class="st1" d="M36.9,10l2.1-0.4l-0.6,3.3l1.3-0.2l-0.3,1.7l-1.3,0.2L37,20.8c0,0.3-0.1,0.5,0,0.6c0,0.1,0.1,0.2,0.2,0.3
		c0.1,0.1,0.2,0.1,0.4,0.1c0.2,0,0.4,0,0.6-0.1l-0.4,2.1l-0.9,0.2c-0.5,0.1-0.9,0.1-1.1,0c-0.3-0.1-0.5-0.3-0.7-0.5
		c-0.1-0.2-0.2-0.5-0.3-0.8c0-0.3,0-0.6,0-0.9L36,15l-1,0.2l0.3-1.7l1-0.2L36.9,10z"/>
	<path class="st1" d="M43.7,15c0.1-0.4,0-0.6-0.2-0.8c-0.2-0.2-0.4-0.2-0.7-0.2c-0.3,0.1-0.6,0.2-0.8,0.5c-0.2,0.3-0.3,0.5-0.4,0.8
		c0,0.2,0,0.4,0,0.6c0.1,0.2,0.3,0.3,0.6,0.4l1.1,0.3c0.7,0.2,1.2,0.5,1.4,1c0.2,0.5,0.2,1.1,0.1,1.7c-0.1,0.5-0.2,0.9-0.5,1.3
		c-0.2,0.4-0.5,0.8-0.8,1.2c-0.3,0.4-0.7,0.6-1.1,0.9c-0.4,0.2-0.8,0.4-1.3,0.5c-0.4,0.1-0.8,0.1-1.1,0c-0.3-0.1-0.6-0.2-0.9-0.5
		c-0.2-0.2-0.4-0.5-0.5-0.9c-0.1-0.4-0.1-0.8,0-1.4l2-0.3c0,0.3,0,0.6,0.1,0.8c0.1,0.2,0.4,0.3,0.8,0.2c0.3-0.1,0.6-0.2,0.9-0.5
		c0.3-0.3,0.4-0.6,0.5-0.9c0.1-0.3,0-0.5-0.1-0.7c-0.1-0.2-0.3-0.3-0.7-0.4l-0.9-0.2c-0.6-0.1-1-0.4-1.3-0.9c-0.3-0.4-0.4-1-0.2-1.8
		c0.1-0.5,0.2-0.9,0.5-1.3c0.2-0.4,0.5-0.8,0.8-1.1c0.3-0.3,0.7-0.6,1.1-0.8c0.4-0.2,0.8-0.4,1.2-0.4c0.4-0.1,0.8-0.1,1.1,0
		c0.3,0.1,0.6,0.3,0.8,0.5c0.2,0.2,0.4,0.5,0.4,0.9c0.1,0.4,0.1,0.8,0,1.2L43.7,15z"/>
	<path class="st1" d="M48.5,6.9l3.3-0.6c2.4-0.4,3.4,0.9,2.9,3.9c-0.2,0.9-0.4,1.7-0.8,2.4c-0.4,0.7-0.9,1.3-1.7,1.8l1,6.6L51,21.3
		l-0.8-6.2L49,15.3l-1.2,6.6l-2.1,0.4L48.5,6.9z M49.4,13.4l1.2-0.2c0.4-0.1,0.7-0.2,0.9-0.3c0.2-0.1,0.4-0.3,0.6-0.6
		c0.2-0.2,0.3-0.5,0.4-0.8c0.1-0.3,0.2-0.6,0.2-1c0.1-0.4,0.1-0.7,0.1-1c0-0.3,0-0.5-0.1-0.7c-0.1-0.2-0.2-0.3-0.5-0.4
		c-0.2-0.1-0.5-0.1-0.9,0l-1.1,0.2L49.4,13.4z"/>
	<path class="st1" d="M55.4,13.5c0.1-0.4,0.2-0.9,0.3-1.2c0.1-0.4,0.3-0.7,0.5-1c0.3-0.5,0.7-1,1.3-1.3c0.5-0.4,1.1-0.6,1.7-0.7
		c0.6-0.1,1.2-0.1,1.6,0.1c0.4,0.2,0.7,0.5,0.9,1c0.1,0.3,0.1,0.6,0.1,0.9c0,0.4-0.1,0.8-0.1,1.2L61,16c-0.1,0.4-0.2,0.9-0.3,1.2
		c-0.1,0.4-0.3,0.7-0.5,1c-0.3,0.5-0.7,1-1.3,1.3c-0.5,0.4-1.1,0.6-1.7,0.7c-0.6,0.1-1.2,0.1-1.6-0.1c-0.4-0.2-0.7-0.5-0.9-1
		c-0.1-0.3-0.1-0.6-0.1-0.9c0-0.4,0.1-0.8,0.1-1.2L55.4,13.5z M56.8,17.1c-0.1,0.4,0,0.7,0.1,0.9c0.1,0.2,0.4,0.2,0.7,0.2
		s0.6-0.2,0.8-0.4c0.2-0.2,0.4-0.6,0.4-1l0.8-4.3c0.1-0.4,0-0.7-0.1-0.9c-0.1-0.2-0.4-0.2-0.7-0.2c-0.3,0.1-0.6,0.2-0.8,0.4
		c-0.2,0.2-0.4,0.6-0.4,1L56.8,17.1z"/>
	<path class="st1" d="M64.6,15.9c-0.1,0.3,0,0.6,0.1,0.8c0.2,0.2,0.4,0.2,0.7,0.2c0.4-0.1,0.7-0.2,0.8-0.5c0.2-0.3,0.3-0.5,0.4-0.8
		l2.1-0.4c-0.1,0.5-0.2,0.9-0.4,1.3c-0.2,0.4-0.5,0.8-0.8,1.1c-0.3,0.4-0.7,0.6-1.1,0.9C66,18.8,65.5,18.9,65,19
		c-0.6,0.1-1.2,0.1-1.6-0.1c-0.4-0.2-0.7-0.5-0.9-1c-0.1-0.3-0.1-0.6-0.1-0.9c0-0.4,0.1-0.8,0.1-1.2l0.6-3.6
		c0.1-0.4,0.2-0.9,0.3-1.2c0.1-0.4,0.3-0.7,0.5-1c0.3-0.5,0.7-1,1.3-1.3c0.5-0.4,1.1-0.6,1.7-0.7c0.5-0.1,0.9-0.1,1.2,0
		s0.6,0.3,0.8,0.6c0.2,0.3,0.3,0.6,0.4,1c0.1,0.4,0.1,0.9,0,1.4l-2.1,0.4c0.1-0.4,0-0.8-0.1-0.9c-0.1-0.2-0.4-0.2-0.7-0.2
		c-0.3,0.1-0.6,0.2-0.8,0.4c-0.2,0.2-0.4,0.6-0.4,1L64.6,15.9z"/>
	<path class="st1" d="M71.9,2.7l2.1-0.4l-1.6,9.2l0,0l3.3-5.2L77.8,6l-3.2,4.9l1.8,6l-2.3,0.4l-1-4.4l-1.3,1.8l-0.5,3.1l-2.1,0.4
		L71.9,2.7z"/>
</g>
<g>
	<path class="st1" d="M10.8,29.9l5.3-0.9l3.3,20.5l0.1,0l10.9-23l5.4-0.9l-7.2,41.1l-5.5,1l4.4-25l-0.1,0l-8.6,18.6l-2.8,0.5
		l-2.3-16.7l-0.1,0l-4.4,25l-5.5,1L10.8,29.9z"/>
	<path class="st1" d="M47.1,23.5l4.6-0.8l1.4,39.6l-5.5,1l-0.1-8.5l-7.5,1.3l-3.2,9.1l-5.5,1L47.1,23.5z M47.3,35l-0.1,0l-5.3,15.4
		l5.5-1L47.3,35z"/>
	<path class="st1" d="M62.7,26.2l-6.4,1.1l1-5.5l18.3-3.2l-1,5.5l-6.4,1.1L62,60.7l-5.5,1L62.7,26.2z"/>
	<path class="st1" d="M78.1,18.1l5.5-1l-3.1,17.6l6.8-1.2l3.1-17.6l5.5-1L88.7,56l-5.5,1l3.2-18.3l-6.8,1.2l-3.2,18.3l-5.5,1
		L78.1,18.1z"/>
	<path class="st1" d="M101.2,14l16.5-2.9l-1,5.5l-11,1.9l-2.1,12.1l9.5-1.7l-1,5.5l-9.5,1.7l-2.1,12.1l11-1.9l-1,5.9l-16.5,2.9
		L101.2,14z"/>
</g>
</svg>
