<?xml version="1.0" encoding="utf-8"?>
<!-- Generator: Adobe Illustrator 23.0.4, SVG Export Plug-In . SVG Version: 6.00 Build 0)  -->
<svg version="1.1" id="Layer_1" xmlns="http://www.w3.org/2000/svg" xmlns:xlink="http://www.w3.org/1999/xlink" x="0px" y="0px"
	 viewBox="0 0 841.89 214.34" style="enable-background:new 0 0 841.89 214.34;" xml:space="preserve">
<style type="text/css">
	.st0{fill:#02689E;}
	.st1{fill:url(#SVGID_1_);}
	.st2{fill:#FFFFFF;}
</style>
<g>
	<g>
		<path class="st0" d="M253.61,83.88c3.32,3.29,4.98,8.39,4.98,15.28v27.53h-13.57v-6.93c-0.95,2.41-2.53,4.29-4.75,5.65
			c-2.22,1.36-4.81,2.04-7.78,2.04c-3.16,0-6.03-0.63-8.59-1.9c-2.56-1.27-4.59-3.04-6.08-5.32c-1.49-2.28-2.23-4.81-2.23-7.59
			c0-3.42,0.87-6.11,2.61-8.07c1.74-1.96,4.54-3.38,8.4-4.27c3.86-0.88,9.14-1.33,15.85-1.33h2.47v-1.71c0-2.78-0.6-4.75-1.8-5.88
			c-1.2-1.14-3.29-1.71-6.27-1.71c-2.28,0-4.81,0.41-7.59,1.23c-2.79,0.82-5.44,1.96-7.97,3.42l-3.8-9.59
			c2.66-1.65,5.93-3.02,9.83-4.13c3.89-1.11,7.51-1.66,10.87-1.66C245.15,78.94,250.29,80.59,253.61,83.88z M242.36,114.78
			c1.71-1.87,2.56-4.29,2.56-7.26v-1.61h-1.61c-5.13,0-8.72,0.41-10.77,1.23c-2.06,0.82-3.09,2.31-3.09,4.46
			c0,1.71,0.58,3.13,1.76,4.27c1.17,1.14,2.64,1.71,4.41,1.71C238.41,117.58,240.66,116.64,242.36,114.78z"/>
		<path class="st0" d="M299.7,116.63l-0.76,10.44c-1.84,0.25-3.67,0.38-5.51,0.38c-7.09,0-12.26-1.55-15.52-4.65
			c-3.26-3.1-4.89-7.82-4.89-14.15V90.81h-8.83V80.08h8.83V66.41h14.33v13.67h11.68v10.73h-11.68v17.75c0,5.57,2.59,8.35,7.78,8.35
			C296.6,116.91,298.12,116.82,299.7,116.63z"/>
		<path class="st0" d="M347.73,83.83c2.72,3.26,4.08,8.18,4.08,14.76v28.1h-14.33V99.25c0-3.16-0.59-5.47-1.76-6.93
			c-1.17-1.46-2.99-2.18-5.46-2.18c-2.97,0-5.36,0.95-7.17,2.85c-1.8,1.9-2.7,4.43-2.7,7.59v26.11h-14.34V59.76h14.34v26.49
			c1.64-2.4,3.75-4.23,6.31-5.46c2.56-1.23,5.43-1.85,8.59-1.85C340.87,78.94,345.01,80.57,347.73,83.83z"/>
		<path class="st0" d="M404.5,106.09h-30.38c0.44,3.73,1.66,6.44,3.65,8.12c1.99,1.68,4.83,2.52,8.5,2.52c2.4,0,4.79-0.39,7.17-1.19
			c2.37-0.79,4.54-1.91,6.5-3.37l3.8,9.59c-2.28,1.77-5.05,3.16-8.31,4.18c-3.26,1.01-6.53,1.52-9.83,1.52
			c-7.85,0-14.03-2.17-18.56-6.5c-4.53-4.33-6.79-10.23-6.79-17.7c0-4.75,0.98-8.96,2.94-12.63c1.96-3.67,4.68-6.53,8.16-8.59
			c3.48-2.05,7.44-3.09,11.87-3.09c6.52,0,11.69,2.12,15.52,6.36c3.83,4.24,5.74,10,5.74,17.28V106.09z M377.12,91.42
			c-1.61,1.74-2.61,4.26-2.99,7.55h18.32c-0.19-3.35-1.03-5.89-2.52-7.59c-1.49-1.71-3.59-2.56-6.31-2.56
			C380.9,88.81,378.73,89.68,377.12,91.42z"/>
		<path class="st0" d="M430.71,80.08h11.68v10.73h-11.68v35.88h-14.34V90.81h-8.83V80.08h8.83c0.13-6.58,2.04-11.53,5.74-14.86
			c3.7-3.32,9.35-5.2,16.94-5.65l5.22-0.29l0.85,10.54l-4.46,0.19c-3.67,0.13-6.25,0.81-7.74,2.04c-1.49,1.23-2.23,3.28-2.23,6.12
			V80.08z"/>
		<path class="st0" d="M481.68,90.71l-8.07,0.85c-3.99,0.38-6.8,1.5-8.45,3.37c-1.65,1.87-2.47,4.35-2.47,7.45v24.3h-14.33V80.08
			h13.77v7.88c2.34-5.38,7.18-8.32,14.52-8.83l4.18-0.29L481.68,90.71z"/>
		<path class="st0" d="M522.55,83.88c3.32,3.29,4.98,8.39,4.98,15.28v27.53h-13.57v-6.93c-0.95,2.41-2.53,4.29-4.75,5.65
			c-2.22,1.36-4.81,2.04-7.79,2.04c-3.17,0-6.03-0.63-8.59-1.9c-2.56-1.27-4.59-3.04-6.08-5.32c-1.49-2.28-2.23-4.81-2.23-7.59
			c0-3.42,0.87-6.11,2.61-8.07c1.74-1.96,4.54-3.38,8.4-4.27c3.86-0.88,9.14-1.33,15.85-1.33h2.47v-1.71c0-2.78-0.6-4.75-1.8-5.88
			c-1.2-1.14-3.29-1.71-6.27-1.71c-2.28,0-4.81,0.41-7.59,1.23c-2.78,0.82-5.44,1.96-7.97,3.42l-3.8-9.59
			c2.66-1.65,5.93-3.02,9.83-4.13c3.89-1.11,7.51-1.66,10.87-1.66C514.08,78.94,519.23,80.59,522.55,83.88z M511.3,114.78
			c1.71-1.87,2.56-4.29,2.56-7.26v-1.61h-1.61c-5.13,0-8.72,0.41-10.77,1.23c-2.06,0.82-3.09,2.31-3.09,4.46
			c0,1.71,0.58,3.13,1.76,4.27c1.17,1.14,2.64,1.71,4.41,1.71C507.34,117.58,509.59,116.64,511.3,114.78z"/>
		<path class="st0" d="M585.82,80.08v41.58c0,7.53-2.15,13.23-6.46,17.09c-4.3,3.86-10.66,5.79-19.08,5.79
			c-4.18,0-8.18-0.51-12.01-1.52c-3.83-1.01-7.2-2.44-10.11-4.27l3.8-9.87c6.01,3.29,11.99,4.94,17.94,4.94
			c7.85,0,11.77-3.7,11.77-11.11v-5.13c-1.33,2.4-3.32,4.3-5.98,5.7c-2.66,1.39-5.63,2.09-8.92,2.09c-4.05,0-7.64-0.95-10.78-2.85
			c-3.13-1.9-5.58-4.6-7.36-8.12c-1.77-3.51-2.66-7.58-2.66-12.2c0-4.62,0.88-8.68,2.66-12.2c1.77-3.51,4.23-6.23,7.36-8.16
			c3.13-1.93,6.72-2.9,10.78-2.9c3.23,0,6.15,0.68,8.78,2.04c2.63,1.36,4.64,3.24,6.03,5.65v-6.55H585.82z M568.78,111.22
			c1.87-2.15,2.8-5.16,2.8-9.02c0-3.86-0.93-6.88-2.8-9.06c-1.87-2.18-4.48-3.28-7.83-3.28s-5.98,1.09-7.88,3.28
			c-1.9,2.18-2.85,5.21-2.85,9.06c0,3.8,0.95,6.79,2.85,8.97c1.9,2.18,4.52,3.27,7.88,3.27S566.91,113.37,568.78,111.22z"/>
		<path class="st0" d="M638.79,106.09h-30.38c0.44,3.73,1.66,6.44,3.65,8.12c1.99,1.68,4.83,2.52,8.5,2.52
			c2.4,0,4.79-0.39,7.17-1.19c2.37-0.79,4.54-1.91,6.5-3.37l3.8,9.59c-2.28,1.77-5.05,3.16-8.31,4.18
			c-3.26,1.01-6.53,1.52-9.83,1.52c-7.85,0-14.03-2.17-18.56-6.5c-4.53-4.33-6.79-10.23-6.79-17.7c0-4.75,0.98-8.96,2.94-12.63
			c1.96-3.67,4.68-6.53,8.16-8.59c3.48-2.05,7.44-3.09,11.87-3.09c6.52,0,11.69,2.12,15.52,6.36c3.83,4.24,5.74,10,5.74,17.28
			V106.09z M611.4,91.42c-1.61,1.74-2.61,4.26-2.99,7.55h18.32c-0.19-3.35-1.03-5.89-2.52-7.59c-1.49-1.71-3.59-2.56-6.31-2.56
			C615.18,88.81,613.02,89.68,611.4,91.42z"/>
		<path class="st0" d="M689.1,83.83c2.72,3.26,4.08,8.18,4.08,14.76v28.1h-14.33V99.25c0-3.16-0.59-5.47-1.76-6.93
			c-1.17-1.46-2.99-2.18-5.46-2.18c-2.98,0-5.36,0.95-7.17,2.85c-1.8,1.9-2.71,4.43-2.71,7.59v26.11h-14.33V80.08h13.95v6.65
			c1.64-2.53,3.78-4.46,6.41-5.79c2.63-1.33,5.58-2,8.88-2C682.24,78.94,686.38,80.57,689.1,83.83z"/>
		<path class="st0" d="M703.06,111.5h15.38v15.19h-15.38V111.5z"/>
		<path class="st0" d="M774.83,59.76v66.93h-14.24v-6.93c-1.39,2.41-3.37,4.29-5.93,5.65c-2.56,1.36-5.46,2.04-8.69,2.04
			c-3.99,0-7.55-1.03-10.68-3.09c-3.13-2.06-5.57-4.94-7.31-8.64c-1.74-3.7-2.61-7.96-2.61-12.77s0.87-9.03,2.61-12.67
			c1.74-3.64,4.16-6.44,7.26-8.4c3.1-1.96,6.67-2.94,10.73-2.94c3.17,0,6.03,0.67,8.59,2c2.56,1.33,4.54,3.2,5.93,5.6V59.76H774.83z
			 M757.88,113.07c1.8-2.31,2.71-5.62,2.71-9.92c0-4.3-0.9-7.59-2.71-9.87c-1.8-2.28-4.38-3.42-7.74-3.42
			c-3.36,0-5.95,1.13-7.78,3.37c-1.84,2.25-2.75,5.49-2.75,9.73c0,4.31,0.92,7.64,2.75,10.02c1.83,2.37,4.43,3.56,7.78,3.56
			C753.5,116.53,756.08,115.38,757.88,113.07z"/>
		<path class="st0" d="M827.8,106.09h-30.38c0.44,3.73,1.66,6.44,3.65,8.12c1.99,1.68,4.83,2.52,8.5,2.52c2.4,0,4.79-0.39,7.17-1.19
			c2.37-0.79,4.54-1.91,6.5-3.37l3.8,9.59c-2.28,1.77-5.05,3.16-8.31,4.18c-3.26,1.01-6.53,1.52-9.83,1.52
			c-7.85,0-14.03-2.17-18.56-6.5c-4.53-4.33-6.79-10.23-6.79-17.7c0-4.75,0.98-8.96,2.94-12.63c1.96-3.67,4.68-6.53,8.16-8.59
			c3.48-2.05,7.44-3.09,11.87-3.09c6.52,0,11.69,2.12,15.52,6.36c3.83,4.24,5.74,10,5.74,17.28V106.09z M800.41,91.42
			c-1.61,1.74-2.61,4.26-2.99,7.55h18.32c-0.19-3.35-1.03-5.89-2.52-7.59c-1.49-1.71-3.59-2.56-6.31-2.56
			C804.19,88.81,802.02,89.68,800.41,91.42z"/>
	</g>
</g>
<g>
	<g>
		<path class="st0" d="M196.03,82.49v49.92c0,7.34-1.86,14.44-5.24,20.7c-3.76,6.98-9.43,12.92-16.54,17.02l-43.22,24.95
			c-6.75,3.89-14.27,5.84-21.78,5.84c-7.51,0-15.04-1.95-21.78-5.84l-6.96-4.02l-36.27-20.93c-7.1-4.1-12.77-10.04-16.54-17.02
			c-3.38-6.26-5.22-13.36-5.22-20.7V82.49c0-9.73,3.24-18.99,8.95-26.47c3.43-4.5,7.76-8.33,12.81-11.25l43.24-24.97
			c5.84-3.38,12.27-5.27,18.78-5.73c8.5-0.59,17.13,1.33,24.78,5.73l43.22,24.97c7.29,4.19,13.05,10.34,16.83,17.53
			C194.29,68.43,196.03,75.34,196.03,82.49z"/>
	</g>
	<linearGradient id="SVGID_1_" gradientUnits="userSpaceOnUse" x1="179.495" y1="200.2986" x2="76.2377" y2="73.698">
		<stop  offset="6.613757e-04" style="stop-color:#02689E"/>
		<stop  offset="1" style="stop-color:#004A74"/>
	</linearGradient>
	<path class="st1" d="M196.03,100.74v31.66c0,7.34-1.86,14.44-5.24,20.7c-3.76,6.98-9.43,12.92-16.54,17.02l-43.22,24.95
		c-6.75,3.89-14.27,5.84-21.78,5.84c-7.51,0-15.04-1.95-21.78-5.84l-6.96-4.02c-14.34-14.17-34.45-34.53-34.45-34.53l4.42-4.21
		c0,0,3.38-2.73,4.21-3.38c0.83-0.63,4.63-8.61,4.63-9.24c0-0.65,3.15-16.22,3.15-16.22l-17.4-13.81l2.47-3.41h26.92L63.89,92.45
		c0,0,5.1-19.22,5.94-20.05c0.83-0.85,5.88-8.63,6.74-9.39c0.83-0.78,12.05,0.17,12.05,0.17l37.34,42.54l13.91-0.51L122.7,91.26
		l6.01-16.77l11-8.99l5.82-5.94L196.03,100.74z"/>
	<g>
		<path class="st2" d="M63.95,119.13c-2.13-0.25-4.06,1.27-4.32,3.4c-1.13,9.4-2.55,15.87-4.47,20.35c-2.81,6.53-5.8,6.53-6.92,6.53
			c-2.15,0-3.89,1.74-3.89,3.89c0,2.15,1.74,3.89,3.89,3.89c6.13,0,10.86-3.78,14.06-11.24c2.23-5.18,3.83-12.33,5.04-22.49
			C67.6,121.32,66.08,119.38,63.95,119.13z"/>
		<path class="st2" d="M170.11,103.56l-13,0c-0.89-11.04-1.77-21.44-3.72-29.56c-1.16-4.79-2.6-8.4-4.43-11
			c-2.81-4-6.16-5.11-8.7-5.26c-0.11-0.02-0.21-0.03-0.33-0.03h-0.38c-3.75,0-6.9,1.75-9.44,5.21c-0.08,0.09-0.15,0.17-0.21,0.26
			c-2.04,2.75-3.66,6.54-4.99,11.62c-1.11,4.23-1.93,9.12-2.6,14.22c-0.31,2.37,1.55,4.48,3.94,4.48h0c2.01,0,3.69-1.49,3.94-3.48
			c0.77-6.09,2.63-18.35,5.68-21.85c1.16-1.69,2.45-2.58,3.84-2.67c3.04,0.18,5,5.68,6.12,10.32c1.77,7.4,2.63,17.25,3.47,27.75
			H97.73C96.82,93.68,95.72,83,93.57,74.8c-1.33-5.08-2.95-8.87-4.97-11.62c-0.08-0.09-0.15-0.17-0.23-0.26
			c-2.54-3.46-5.7-5.21-9.44-5.21h-0.38c-0.12,0-0.23,0.02-0.33,0.03C75.69,57.9,72.33,59,69.52,63c-1.83,2.6-3.26,6.21-4.43,11
			c-1.07,4.48-1.82,9.63-2.42,15.2c-0.24,2.29,1.56,4.3,3.86,4.3h0c1.98,0,3.65-1.5,3.86-3.47c0.57-5.29,1.26-10.13,2.25-14.22
			c1.12-4.64,3.08-10.14,6.13-10.32c1.37,0.09,2.66,0.98,3.82,2.69c2.45,3.88,4.44,11.98,5.94,24.19c0.05,0.42,1.07,7.89,1.37,11.19
			l-41.46,0c-2.03,0-3.88,1.46-4.08,3.48c-0.23,2.32,1.59,4.28,3.86,4.28h71.94c-0.91,9.08-2.05,19.56-4.05,27.09
			c-1.3,4.92-3.55,10.76-6.87,10.98c-3.34-0.23-5.59-6.06-6.89-10.98c-1.05-3.95-1.87-8.72-2.53-13.67
			c-0.26-1.92-1.89-3.35-3.83-3.35h0c-2.35,0-4.15,2.08-3.83,4.41c0.84,5.95,2.47,16.23,4.13,19.97
			c3.28,7.39,7.13,11.41,12.75,11.41h0.38c5.62,0,9.91-3.84,12.75-11.41c1.92-5.11,3.29-12.01,4.49-22.34v-0.05
			c0.47-3.75,0.88-7.76,1.31-12.05h42.27c2.39,0,4.3-2.16,3.82-4.64C173.72,104.83,171.99,103.56,170.11,103.56z"/>
		<path class="st2" d="M170.26,149.41c-1.13,0-4.12,0-6.92-6.53c-1.92-4.48-3.34-10.95-4.47-20.35c-0.26-2.13-2.19-3.65-4.32-3.4
			c-2.13,0.25-3.65,2.19-3.4,4.32c1.22,10.16,2.82,17.31,5.04,22.49c3.2,7.46,7.93,11.24,14.06,11.24c2.15,0,3.89-1.74,3.89-3.89
			C174.14,151.15,172.4,149.41,170.26,149.41z"/>
	</g>
</g>
</svg>
