<?xml version="1.0" encoding="utf-8"?>
<!-- Generator: Adobe Illustrator 23.0.4, SVG Export Plug-In . SVG Version: 6.00 Build 0)  -->
<svg version="1.1" id="Layer_1" xmlns="http://www.w3.org/2000/svg" xmlns:xlink="http://www.w3.org/1999/xlink" x="0px" y="0px"
	 viewBox="0 0 587.38 146.53" style="enable-background:new 0 0 587.38 146.53;    width: 236px;" xml:space="preserve">
<style type="text/css">
	.st0{fill:#02689E;}
	.st2{font-size:59px; font-weight: bold;}
	.st3{fill:url(#SVGID_1_);}
	.st4{fill:#FFFFFF;}
</style>
<path class="st0" d="M131.94,74.67c0,1.3-0.05,2.58-0.13,3.86c-0.04,0.69-0.1,1.37-0.17,2.05c-2.95,30.85-28.95,54.96-60.56,54.96
	c-7.82,0-15.31-1.48-22.18-4.17c-1.47-0.58-2.92-1.21-4.33-1.9c-3.51-1.7-6.83-3.73-9.92-6.04c-14.84-11.1-24.44-28.8-24.44-48.76
	c0-33.6,27.25-60.85,60.87-60.85c28.99,0,53.25,20.28,59.37,47.42C131.43,65.56,131.94,70.05,131.94,74.67z"/>
<g>
	<text transform="matrix(1 0 0 1 142.1815 88.8205)" class="st0 st1 st2">mathefragen.de</text>
</g>
<linearGradient id="SVGID_1_" gradientUnits="userSpaceOnUse" x1="116.8132" y1="138.5146" x2="47.6088" y2="53.6653">
	<stop  offset="6.613757e-04" style="stop-color:#02689E"/>
	<stop  offset="1" style="stop-color:#004A74"/>
</linearGradient>
<path class="st3" d="M131.64,80.58c-2.95,30.85-28.95,54.96-60.56,54.96c-7.82,0-15.31-1.48-22.18-4.17l-18.13-27.81l3.91-3.16
	l4.28-6.14l1.77-8l-1.3-2.14l-8.39-8.87l21.78-2.57l-0.27-1.53l-9.96-6.84l4.28-17.03l9.33-3.05L78.83,62.1l7.94-15.65l6.8-2.61
	C93.57,43.84,119.28,68.3,131.64,80.58z"/>
<g>
	<path class="st4" d="M42.53,80.82c-1.32-0.16-2.53,0.79-2.69,2.11c-0.7,5.85-1.58,9.87-2.78,12.66c-1.74,4.06-3.61,4.06-4.31,4.06
		c-1.33,0-2.42,1.08-2.42,2.42s1.08,2.42,2.42,2.42c3.81,0,6.75-2.35,8.75-6.99c1.38-3.22,2.38-7.67,3.14-13.99
		C44.8,82.19,43.86,80.98,42.53,80.82z"/>
	<path class="st4" d="M108.56,71.14l-8.09,0c-0.55-6.87-1.1-13.33-2.31-18.39c-0.72-2.98-1.62-5.22-2.75-6.84
		c-1.75-2.49-3.83-3.18-5.41-3.27c-0.07-0.01-0.13-0.02-0.21-0.02h-0.23c-2.33,0-4.29,1.09-5.87,3.24c-0.05,0.06-0.09,0.1-0.13,0.16
		c-1.27,1.71-2.27,4.07-3.1,7.22c-0.69,2.63-1.2,5.67-1.62,8.85c-0.19,1.48,0.96,2.79,2.45,2.79l0,0c1.25,0,2.3-0.93,2.45-2.16
		c0.48-3.79,1.63-11.41,3.53-13.59c0.72-1.05,1.52-1.61,2.39-1.66c1.89,0.11,3.11,3.53,3.8,6.42c1.1,4.6,1.63,10.73,2.16,17.26
		H63.54c-0.56-6.14-1.25-12.79-2.58-17.89c-0.83-3.16-1.83-5.51-3.09-7.22c-0.05-0.06-0.09-0.1-0.14-0.16
		c-1.58-2.15-3.54-3.24-5.87-3.24h-0.23c-0.08,0-0.14,0.01-0.21,0.02c-1.58,0.09-3.66,0.78-5.41,3.27
		c-1.14,1.62-2.03,3.86-2.75,6.84c-0.67,2.78-1.13,5.99-1.5,9.46c-0.15,1.43,0.97,2.67,2.4,2.67h0c1.23,0,2.27-0.93,2.4-2.16
		c0.35-3.29,0.79-6.3,1.4-8.84c0.7-2.88,1.92-6.3,3.81-6.42c0.85,0.06,1.65,0.61,2.38,1.67c1.52,2.41,2.76,7.45,3.69,15.04
		c0.03,0.26,0.67,4.9,0.85,6.96l-25.78,0c-1.26,0-2.41,0.91-2.54,2.17c-0.14,1.45,0.99,2.66,2.4,2.66H77.5
		c-0.56,5.65-1.28,12.17-2.52,16.85c-0.81,3.06-2.21,6.69-4.27,6.83c-2.08-0.14-3.48-3.77-4.28-6.83c-0.65-2.46-1.16-5.42-1.58-8.5
		c-0.16-1.19-1.18-2.08-2.38-2.08h0c-1.46,0-2.58,1.29-2.38,2.74c0.52,3.7,1.53,10.09,2.57,12.42c2.04,4.59,4.43,7.09,7.93,7.09
		h0.23c3.49,0,6.16-2.39,7.93-7.09c1.19-3.18,2.05-7.47,2.79-13.9v-0.03c0.29-2.33,0.54-4.83,0.82-7.5h26.29
		c1.49,0,2.67-1.35,2.38-2.89C110.8,71.93,109.73,71.14,108.56,71.14z"/>
	<path class="st4" d="M108.65,99.66c-0.7,0-2.56,0-4.31-4.06c-1.2-2.79-2.08-6.81-2.78-12.66c-0.16-1.33-1.36-2.27-2.69-2.11
		c-1.33,0.16-2.27,1.36-2.11,2.69c0.76,6.32,1.75,10.77,3.14,13.99c1.99,4.64,4.93,6.99,8.75,6.99c1.33,0,2.42-1.08,2.42-2.42
		S109.98,99.66,108.65,99.66z"/>
</g>
</svg>
