<?xml version="1.0" standalone="no"?>
<!DOCTYPE svg PUBLIC "-//W3C//DTD SVG 20010904//EN"
 "http://www.w3.org/TR/2001/REC-SVG-20010904/DTD/svg10.dtd">
<svg version="1.0" xmlns="http://www.w3.org/2000/svg"
 width="300.000000pt" height="300.000000pt" viewBox="0 0 300.000000 300.000000"
 preserveAspectRatio="xMidYMid meet">
<metadata>
Created by potrace 1.14, written by Peter Selinger 2001-2017
</metadata>
<g transform="translate(0.000000,300.000000) scale(0.100000,-0.100000)"
fill="#000000" stroke="none">
<path d="M949 2897 c-65 -33 -131 -92 -154 -137 -23 -45 -37 -139 -30 -204 6
-59 6 -164 0 -236 -5 -63 -24 -116 -55 -150 -24 -27 -38 -34 -75 -36 -25 -1
-57 -11 -72 -22 -16 -10 -62 -32 -103 -47 -156 -59 -298 -170 -343 -268 -20
-43 -50 -140 -52 -169 0 -3 -3 -10 -7 -14 -5 -4 -8 -23 -8 -43 0 -20 -6 -57
-14 -82 -8 -25 -18 -75 -22 -110 -11 -79 -11 -313 -2 -394 18 -150 19 -155 49
-170 15 -8 35 -15 43 -15 24 0 110 -31 124 -44 13 -13 18 -44 28 -188 4 -55 2
-103 -5 -130 -18 -66 -19 -117 -4 -182 10 -43 11 -68 3 -90 -5 -17 -12 -61
-16 -98 l-6 -68 493 0 494 0 14 21 c7 12 24 52 38 88 22 56 25 80 24 166 -1
55 -9 133 -17 173 -8 40 -12 81 -9 91 11 35 22 158 24 263 l1 67 76 36 c42 20
93 52 114 71 44 40 47 40 74 15 12 -11 45 -31 74 -46 33 -17 52 -32 52 -44 0
-15 28 -36 65 -47 72 -23 121 -31 180 -28 41 2 87 -3 110 -10 21 -8 43 -13 49
-12 39 7 155 81 236 150 53 44 113 95 135 111 59 45 116 107 230 250 57 72
132 155 167 185 120 104 151 138 143 157 -4 10 -15 44 -24 76 l-16 58 -80 41
c-44 23 -96 49 -116 59 -58 30 -63 23 -25 -34 22 -32 23 -36 7 -40 -12 -3 -20
-18 -24 -41 -7 -43 0 -66 19 -66 19 0 18 -7 -5 -39 -11 -15 -30 -51 -44 -81
-35 -79 -63 -104 -253 -223 -52 -33 -190 -107 -198 -107 -3 0 -6 176 -6 390
l0 390 -22 1 c-73 3 -158 1 -170 -4 -13 -5 -15 -61 -16 -404 -1 -479 0 -453
-11 -453 -5 0 -35 27 -68 61 -32 34 -87 82 -123 107 -79 55 -120 98 -121 126
-5 145 -61 283 -153 378 -68 71 -96 93 -156 123 -44 22 -49 28 -40 45 6 11 8
31 6 44 -3 14 2 30 10 37 8 6 14 24 14 38 0 37 19 59 55 63 l30 3 -3 83 c-1
45 2 82 7 82 15 0 25 51 22 112 -2 50 0 57 14 52 27 -11 85 58 85 101 0 29
-71 104 -129 137 -31 17 -72 45 -91 61 -19 17 -63 43 -99 59 -54 25 -80 30
-162 33 -93 4 -100 2 -160 -28z"/>
</g>
</svg>
